%
M48
M72
T01C0.01378
T02C0.03200
T03C0.03583
T04C0.03937
T05C0.10827
%
T01
X145000Y80000
X140000Y85000
X65000Y60000
T02
X195000Y30000
X185000Y30000
X170000Y55000
X160000Y55000
X185000Y80000
X195000Y80000
X210000Y55000
X220000Y55000
T03
X40000Y73937
X50000Y73937
X60000Y73937
T04
X227953Y114331
X217953Y114331
X207953Y114331
X197953Y114331
X187953Y114331
X177953Y114331
X167953Y114331
X157953Y114331
X147953Y114331
X137953Y114331
X127953Y114331
X117953Y114331
X107953Y114331
X97953Y114331
X87953Y114331
X77953Y114331
X67953Y114331
X57953Y114331
X47953Y114331
X37953Y114331
X37953Y104331
X47953Y104331
X57953Y104331
X67953Y104331
X77953Y104331
X87953Y104331
X97953Y104331
X107953Y104331
X117953Y104331
X127953Y104331
X137953Y104331
X147953Y104331
X157953Y104331
X167953Y104331
X177953Y104331
X187953Y104331
X197953Y104331
X207953Y104331
X217953Y104331
X227953Y104331
T05
X18780Y18780
X18780Y109331
X247126Y109331
X247126Y18780
M30
