G75*
%MOIN*%
%OFA0B0*%
%FSLAX25Y25*%
%IPPOS*%
%LPD*%
%AMOC8*
5,1,8,0,0,1.08239X$1,22.5*
%
%ADD10C,0.00000*%
%ADD11C,0.00800*%
%ADD12C,0.01000*%
%ADD13C,0.00600*%
%ADD14C,0.00500*%
%ADD15C,0.00400*%
%ADD16C,0.00787*%
%ADD17R,0.03400X0.03000*%
%ADD18C,0.00300*%
D10*
X0016899Y0005000D02*
X0249166Y0005000D01*
X0249450Y0005003D01*
X0249734Y0005014D01*
X0250017Y0005031D01*
X0250301Y0005055D01*
X0250583Y0005086D01*
X0250864Y0005123D01*
X0251145Y0005168D01*
X0251424Y0005219D01*
X0251703Y0005277D01*
X0251979Y0005342D01*
X0252254Y0005413D01*
X0252527Y0005491D01*
X0252798Y0005575D01*
X0253068Y0005666D01*
X0253334Y0005764D01*
X0253599Y0005868D01*
X0253861Y0005978D01*
X0254120Y0006095D01*
X0254376Y0006218D01*
X0254629Y0006346D01*
X0254879Y0006482D01*
X0255125Y0006623D01*
X0255368Y0006770D01*
X0255608Y0006922D01*
X0255844Y0007081D01*
X0256075Y0007245D01*
X0256303Y0007415D01*
X0256527Y0007590D01*
X0256746Y0007770D01*
X0256961Y0007956D01*
X0257171Y0008147D01*
X0257377Y0008343D01*
X0257578Y0008544D01*
X0257774Y0008750D01*
X0257965Y0008960D01*
X0258151Y0009175D01*
X0258331Y0009394D01*
X0258506Y0009618D01*
X0258676Y0009846D01*
X0258840Y0010077D01*
X0258999Y0010313D01*
X0259151Y0010553D01*
X0259298Y0010796D01*
X0259439Y0011042D01*
X0259575Y0011292D01*
X0259703Y0011545D01*
X0259826Y0011801D01*
X0259943Y0012060D01*
X0260053Y0012322D01*
X0260157Y0012587D01*
X0260255Y0012853D01*
X0260346Y0013123D01*
X0260430Y0013394D01*
X0260508Y0013667D01*
X0260579Y0013942D01*
X0260644Y0014218D01*
X0260702Y0014497D01*
X0260753Y0014776D01*
X0260798Y0015057D01*
X0260835Y0015338D01*
X0260866Y0015620D01*
X0260890Y0015904D01*
X0260907Y0016187D01*
X0260918Y0016471D01*
X0260921Y0016755D01*
X0260921Y0111192D01*
X0260917Y0111482D01*
X0260907Y0111772D01*
X0260889Y0112062D01*
X0260865Y0112351D01*
X0260833Y0112640D01*
X0260795Y0112927D01*
X0260750Y0113214D01*
X0260697Y0113499D01*
X0260638Y0113783D01*
X0260572Y0114066D01*
X0260499Y0114347D01*
X0260420Y0114626D01*
X0260333Y0114903D01*
X0260240Y0115178D01*
X0260141Y0115450D01*
X0260034Y0115721D01*
X0259922Y0115988D01*
X0259803Y0116253D01*
X0259677Y0116514D01*
X0259545Y0116773D01*
X0259407Y0117028D01*
X0259263Y0117280D01*
X0259113Y0117528D01*
X0258957Y0117773D01*
X0258795Y0118014D01*
X0258627Y0118251D01*
X0258454Y0118483D01*
X0258275Y0118712D01*
X0258091Y0118936D01*
X0257901Y0119155D01*
X0257706Y0119370D01*
X0257506Y0119580D01*
X0257300Y0119786D01*
X0257090Y0119986D01*
X0256875Y0120181D01*
X0256656Y0120371D01*
X0256432Y0120555D01*
X0256203Y0120734D01*
X0255971Y0120907D01*
X0255734Y0121075D01*
X0255493Y0121237D01*
X0255248Y0121393D01*
X0255000Y0121543D01*
X0254748Y0121687D01*
X0254493Y0121825D01*
X0254234Y0121957D01*
X0253973Y0122083D01*
X0253708Y0122202D01*
X0253441Y0122314D01*
X0253170Y0122421D01*
X0252898Y0122520D01*
X0252623Y0122613D01*
X0252346Y0122700D01*
X0252067Y0122779D01*
X0251786Y0122852D01*
X0251503Y0122918D01*
X0251219Y0122977D01*
X0250934Y0123030D01*
X0250647Y0123075D01*
X0250360Y0123113D01*
X0250071Y0123145D01*
X0249782Y0123169D01*
X0249492Y0123187D01*
X0249202Y0123197D01*
X0248912Y0123201D01*
X0017261Y0123201D01*
X0016965Y0123197D01*
X0016669Y0123187D01*
X0016373Y0123169D01*
X0016078Y0123144D01*
X0015783Y0123112D01*
X0015489Y0123072D01*
X0015197Y0123026D01*
X0014905Y0122973D01*
X0014615Y0122912D01*
X0014327Y0122845D01*
X0014040Y0122770D01*
X0013755Y0122689D01*
X0013472Y0122601D01*
X0013191Y0122506D01*
X0012913Y0122404D01*
X0012637Y0122296D01*
X0012364Y0122181D01*
X0012094Y0122059D01*
X0011827Y0121931D01*
X0011563Y0121797D01*
X0011302Y0121656D01*
X0011045Y0121509D01*
X0010792Y0121355D01*
X0010542Y0121196D01*
X0010296Y0121031D01*
X0010054Y0120859D01*
X0009817Y0120682D01*
X0009583Y0120500D01*
X0009355Y0120311D01*
X0009130Y0120117D01*
X0008911Y0119918D01*
X0008697Y0119714D01*
X0008487Y0119504D01*
X0008283Y0119290D01*
X0008084Y0119071D01*
X0007890Y0118846D01*
X0007701Y0118618D01*
X0007519Y0118384D01*
X0007342Y0118147D01*
X0007170Y0117905D01*
X0007005Y0117659D01*
X0006846Y0117409D01*
X0006692Y0117156D01*
X0006545Y0116899D01*
X0006404Y0116638D01*
X0006270Y0116374D01*
X0006142Y0116107D01*
X0006020Y0115837D01*
X0005905Y0115564D01*
X0005797Y0115288D01*
X0005695Y0115010D01*
X0005600Y0114729D01*
X0005512Y0114446D01*
X0005431Y0114161D01*
X0005356Y0113874D01*
X0005289Y0113586D01*
X0005228Y0113296D01*
X0005175Y0113004D01*
X0005129Y0112712D01*
X0005089Y0112418D01*
X0005057Y0112123D01*
X0005032Y0111828D01*
X0005014Y0111532D01*
X0005004Y0111236D01*
X0005000Y0110940D01*
X0005000Y0016899D01*
X0005003Y0016611D01*
X0005014Y0016324D01*
X0005031Y0016037D01*
X0005056Y0015751D01*
X0005087Y0015465D01*
X0005125Y0015180D01*
X0005170Y0014896D01*
X0005222Y0014613D01*
X0005280Y0014331D01*
X0005346Y0014051D01*
X0005418Y0013773D01*
X0005497Y0013497D01*
X0005582Y0013222D01*
X0005675Y0012950D01*
X0005773Y0012680D01*
X0005878Y0012412D01*
X0005990Y0012147D01*
X0006108Y0011885D01*
X0006232Y0011625D01*
X0006363Y0011369D01*
X0006500Y0011116D01*
X0006642Y0010867D01*
X0006791Y0010621D01*
X0006946Y0010378D01*
X0007106Y0010140D01*
X0007273Y0009905D01*
X0007444Y0009674D01*
X0007622Y0009448D01*
X0007804Y0009226D01*
X0007992Y0009009D01*
X0008186Y0008796D01*
X0008384Y0008587D01*
X0008587Y0008384D01*
X0008796Y0008186D01*
X0009009Y0007992D01*
X0009226Y0007804D01*
X0009448Y0007622D01*
X0009674Y0007444D01*
X0009905Y0007273D01*
X0010140Y0007106D01*
X0010378Y0006946D01*
X0010621Y0006791D01*
X0010867Y0006642D01*
X0011116Y0006500D01*
X0011369Y0006363D01*
X0011625Y0006232D01*
X0011885Y0006108D01*
X0012147Y0005990D01*
X0012412Y0005878D01*
X0012680Y0005773D01*
X0012950Y0005675D01*
X0013222Y0005582D01*
X0013497Y0005497D01*
X0013773Y0005418D01*
X0014051Y0005346D01*
X0014331Y0005280D01*
X0014613Y0005222D01*
X0014896Y0005170D01*
X0015180Y0005125D01*
X0015465Y0005087D01*
X0015751Y0005056D01*
X0016037Y0005031D01*
X0016324Y0005014D01*
X0016611Y0005003D01*
X0016899Y0005000D01*
X0013367Y0018780D02*
X0013369Y0018927D01*
X0013375Y0019073D01*
X0013385Y0019219D01*
X0013399Y0019365D01*
X0013417Y0019511D01*
X0013438Y0019656D01*
X0013464Y0019800D01*
X0013494Y0019944D01*
X0013527Y0020086D01*
X0013564Y0020228D01*
X0013605Y0020369D01*
X0013650Y0020508D01*
X0013699Y0020647D01*
X0013751Y0020784D01*
X0013808Y0020919D01*
X0013867Y0021053D01*
X0013931Y0021185D01*
X0013998Y0021315D01*
X0014068Y0021444D01*
X0014142Y0021571D01*
X0014219Y0021695D01*
X0014300Y0021818D01*
X0014384Y0021938D01*
X0014471Y0022056D01*
X0014561Y0022171D01*
X0014654Y0022284D01*
X0014751Y0022395D01*
X0014850Y0022503D01*
X0014952Y0022608D01*
X0015057Y0022710D01*
X0015165Y0022809D01*
X0015276Y0022906D01*
X0015389Y0022999D01*
X0015504Y0023089D01*
X0015622Y0023176D01*
X0015742Y0023260D01*
X0015865Y0023341D01*
X0015989Y0023418D01*
X0016116Y0023492D01*
X0016245Y0023562D01*
X0016375Y0023629D01*
X0016507Y0023693D01*
X0016641Y0023752D01*
X0016776Y0023809D01*
X0016913Y0023861D01*
X0017052Y0023910D01*
X0017191Y0023955D01*
X0017332Y0023996D01*
X0017474Y0024033D01*
X0017616Y0024066D01*
X0017760Y0024096D01*
X0017904Y0024122D01*
X0018049Y0024143D01*
X0018195Y0024161D01*
X0018341Y0024175D01*
X0018487Y0024185D01*
X0018633Y0024191D01*
X0018780Y0024193D01*
X0018927Y0024191D01*
X0019073Y0024185D01*
X0019219Y0024175D01*
X0019365Y0024161D01*
X0019511Y0024143D01*
X0019656Y0024122D01*
X0019800Y0024096D01*
X0019944Y0024066D01*
X0020086Y0024033D01*
X0020228Y0023996D01*
X0020369Y0023955D01*
X0020508Y0023910D01*
X0020647Y0023861D01*
X0020784Y0023809D01*
X0020919Y0023752D01*
X0021053Y0023693D01*
X0021185Y0023629D01*
X0021315Y0023562D01*
X0021444Y0023492D01*
X0021571Y0023418D01*
X0021695Y0023341D01*
X0021818Y0023260D01*
X0021938Y0023176D01*
X0022056Y0023089D01*
X0022171Y0022999D01*
X0022284Y0022906D01*
X0022395Y0022809D01*
X0022503Y0022710D01*
X0022608Y0022608D01*
X0022710Y0022503D01*
X0022809Y0022395D01*
X0022906Y0022284D01*
X0022999Y0022171D01*
X0023089Y0022056D01*
X0023176Y0021938D01*
X0023260Y0021818D01*
X0023341Y0021695D01*
X0023418Y0021571D01*
X0023492Y0021444D01*
X0023562Y0021315D01*
X0023629Y0021185D01*
X0023693Y0021053D01*
X0023752Y0020919D01*
X0023809Y0020784D01*
X0023861Y0020647D01*
X0023910Y0020508D01*
X0023955Y0020369D01*
X0023996Y0020228D01*
X0024033Y0020086D01*
X0024066Y0019944D01*
X0024096Y0019800D01*
X0024122Y0019656D01*
X0024143Y0019511D01*
X0024161Y0019365D01*
X0024175Y0019219D01*
X0024185Y0019073D01*
X0024191Y0018927D01*
X0024193Y0018780D01*
X0024191Y0018633D01*
X0024185Y0018487D01*
X0024175Y0018341D01*
X0024161Y0018195D01*
X0024143Y0018049D01*
X0024122Y0017904D01*
X0024096Y0017760D01*
X0024066Y0017616D01*
X0024033Y0017474D01*
X0023996Y0017332D01*
X0023955Y0017191D01*
X0023910Y0017052D01*
X0023861Y0016913D01*
X0023809Y0016776D01*
X0023752Y0016641D01*
X0023693Y0016507D01*
X0023629Y0016375D01*
X0023562Y0016245D01*
X0023492Y0016116D01*
X0023418Y0015989D01*
X0023341Y0015865D01*
X0023260Y0015742D01*
X0023176Y0015622D01*
X0023089Y0015504D01*
X0022999Y0015389D01*
X0022906Y0015276D01*
X0022809Y0015165D01*
X0022710Y0015057D01*
X0022608Y0014952D01*
X0022503Y0014850D01*
X0022395Y0014751D01*
X0022284Y0014654D01*
X0022171Y0014561D01*
X0022056Y0014471D01*
X0021938Y0014384D01*
X0021818Y0014300D01*
X0021695Y0014219D01*
X0021571Y0014142D01*
X0021444Y0014068D01*
X0021315Y0013998D01*
X0021185Y0013931D01*
X0021053Y0013867D01*
X0020919Y0013808D01*
X0020784Y0013751D01*
X0020647Y0013699D01*
X0020508Y0013650D01*
X0020369Y0013605D01*
X0020228Y0013564D01*
X0020086Y0013527D01*
X0019944Y0013494D01*
X0019800Y0013464D01*
X0019656Y0013438D01*
X0019511Y0013417D01*
X0019365Y0013399D01*
X0019219Y0013385D01*
X0019073Y0013375D01*
X0018927Y0013369D01*
X0018780Y0013367D01*
X0018633Y0013369D01*
X0018487Y0013375D01*
X0018341Y0013385D01*
X0018195Y0013399D01*
X0018049Y0013417D01*
X0017904Y0013438D01*
X0017760Y0013464D01*
X0017616Y0013494D01*
X0017474Y0013527D01*
X0017332Y0013564D01*
X0017191Y0013605D01*
X0017052Y0013650D01*
X0016913Y0013699D01*
X0016776Y0013751D01*
X0016641Y0013808D01*
X0016507Y0013867D01*
X0016375Y0013931D01*
X0016245Y0013998D01*
X0016116Y0014068D01*
X0015989Y0014142D01*
X0015865Y0014219D01*
X0015742Y0014300D01*
X0015622Y0014384D01*
X0015504Y0014471D01*
X0015389Y0014561D01*
X0015276Y0014654D01*
X0015165Y0014751D01*
X0015057Y0014850D01*
X0014952Y0014952D01*
X0014850Y0015057D01*
X0014751Y0015165D01*
X0014654Y0015276D01*
X0014561Y0015389D01*
X0014471Y0015504D01*
X0014384Y0015622D01*
X0014300Y0015742D01*
X0014219Y0015865D01*
X0014142Y0015989D01*
X0014068Y0016116D01*
X0013998Y0016245D01*
X0013931Y0016375D01*
X0013867Y0016507D01*
X0013808Y0016641D01*
X0013751Y0016776D01*
X0013699Y0016913D01*
X0013650Y0017052D01*
X0013605Y0017191D01*
X0013564Y0017332D01*
X0013527Y0017474D01*
X0013494Y0017616D01*
X0013464Y0017760D01*
X0013438Y0017904D01*
X0013417Y0018049D01*
X0013399Y0018195D01*
X0013385Y0018341D01*
X0013375Y0018487D01*
X0013369Y0018633D01*
X0013367Y0018780D01*
X0013367Y0109331D02*
X0013369Y0109478D01*
X0013375Y0109624D01*
X0013385Y0109770D01*
X0013399Y0109916D01*
X0013417Y0110062D01*
X0013438Y0110207D01*
X0013464Y0110351D01*
X0013494Y0110495D01*
X0013527Y0110637D01*
X0013564Y0110779D01*
X0013605Y0110920D01*
X0013650Y0111059D01*
X0013699Y0111198D01*
X0013751Y0111335D01*
X0013808Y0111470D01*
X0013867Y0111604D01*
X0013931Y0111736D01*
X0013998Y0111866D01*
X0014068Y0111995D01*
X0014142Y0112122D01*
X0014219Y0112246D01*
X0014300Y0112369D01*
X0014384Y0112489D01*
X0014471Y0112607D01*
X0014561Y0112722D01*
X0014654Y0112835D01*
X0014751Y0112946D01*
X0014850Y0113054D01*
X0014952Y0113159D01*
X0015057Y0113261D01*
X0015165Y0113360D01*
X0015276Y0113457D01*
X0015389Y0113550D01*
X0015504Y0113640D01*
X0015622Y0113727D01*
X0015742Y0113811D01*
X0015865Y0113892D01*
X0015989Y0113969D01*
X0016116Y0114043D01*
X0016245Y0114113D01*
X0016375Y0114180D01*
X0016507Y0114244D01*
X0016641Y0114303D01*
X0016776Y0114360D01*
X0016913Y0114412D01*
X0017052Y0114461D01*
X0017191Y0114506D01*
X0017332Y0114547D01*
X0017474Y0114584D01*
X0017616Y0114617D01*
X0017760Y0114647D01*
X0017904Y0114673D01*
X0018049Y0114694D01*
X0018195Y0114712D01*
X0018341Y0114726D01*
X0018487Y0114736D01*
X0018633Y0114742D01*
X0018780Y0114744D01*
X0018927Y0114742D01*
X0019073Y0114736D01*
X0019219Y0114726D01*
X0019365Y0114712D01*
X0019511Y0114694D01*
X0019656Y0114673D01*
X0019800Y0114647D01*
X0019944Y0114617D01*
X0020086Y0114584D01*
X0020228Y0114547D01*
X0020369Y0114506D01*
X0020508Y0114461D01*
X0020647Y0114412D01*
X0020784Y0114360D01*
X0020919Y0114303D01*
X0021053Y0114244D01*
X0021185Y0114180D01*
X0021315Y0114113D01*
X0021444Y0114043D01*
X0021571Y0113969D01*
X0021695Y0113892D01*
X0021818Y0113811D01*
X0021938Y0113727D01*
X0022056Y0113640D01*
X0022171Y0113550D01*
X0022284Y0113457D01*
X0022395Y0113360D01*
X0022503Y0113261D01*
X0022608Y0113159D01*
X0022710Y0113054D01*
X0022809Y0112946D01*
X0022906Y0112835D01*
X0022999Y0112722D01*
X0023089Y0112607D01*
X0023176Y0112489D01*
X0023260Y0112369D01*
X0023341Y0112246D01*
X0023418Y0112122D01*
X0023492Y0111995D01*
X0023562Y0111866D01*
X0023629Y0111736D01*
X0023693Y0111604D01*
X0023752Y0111470D01*
X0023809Y0111335D01*
X0023861Y0111198D01*
X0023910Y0111059D01*
X0023955Y0110920D01*
X0023996Y0110779D01*
X0024033Y0110637D01*
X0024066Y0110495D01*
X0024096Y0110351D01*
X0024122Y0110207D01*
X0024143Y0110062D01*
X0024161Y0109916D01*
X0024175Y0109770D01*
X0024185Y0109624D01*
X0024191Y0109478D01*
X0024193Y0109331D01*
X0024191Y0109184D01*
X0024185Y0109038D01*
X0024175Y0108892D01*
X0024161Y0108746D01*
X0024143Y0108600D01*
X0024122Y0108455D01*
X0024096Y0108311D01*
X0024066Y0108167D01*
X0024033Y0108025D01*
X0023996Y0107883D01*
X0023955Y0107742D01*
X0023910Y0107603D01*
X0023861Y0107464D01*
X0023809Y0107327D01*
X0023752Y0107192D01*
X0023693Y0107058D01*
X0023629Y0106926D01*
X0023562Y0106796D01*
X0023492Y0106667D01*
X0023418Y0106540D01*
X0023341Y0106416D01*
X0023260Y0106293D01*
X0023176Y0106173D01*
X0023089Y0106055D01*
X0022999Y0105940D01*
X0022906Y0105827D01*
X0022809Y0105716D01*
X0022710Y0105608D01*
X0022608Y0105503D01*
X0022503Y0105401D01*
X0022395Y0105302D01*
X0022284Y0105205D01*
X0022171Y0105112D01*
X0022056Y0105022D01*
X0021938Y0104935D01*
X0021818Y0104851D01*
X0021695Y0104770D01*
X0021571Y0104693D01*
X0021444Y0104619D01*
X0021315Y0104549D01*
X0021185Y0104482D01*
X0021053Y0104418D01*
X0020919Y0104359D01*
X0020784Y0104302D01*
X0020647Y0104250D01*
X0020508Y0104201D01*
X0020369Y0104156D01*
X0020228Y0104115D01*
X0020086Y0104078D01*
X0019944Y0104045D01*
X0019800Y0104015D01*
X0019656Y0103989D01*
X0019511Y0103968D01*
X0019365Y0103950D01*
X0019219Y0103936D01*
X0019073Y0103926D01*
X0018927Y0103920D01*
X0018780Y0103918D01*
X0018633Y0103920D01*
X0018487Y0103926D01*
X0018341Y0103936D01*
X0018195Y0103950D01*
X0018049Y0103968D01*
X0017904Y0103989D01*
X0017760Y0104015D01*
X0017616Y0104045D01*
X0017474Y0104078D01*
X0017332Y0104115D01*
X0017191Y0104156D01*
X0017052Y0104201D01*
X0016913Y0104250D01*
X0016776Y0104302D01*
X0016641Y0104359D01*
X0016507Y0104418D01*
X0016375Y0104482D01*
X0016245Y0104549D01*
X0016116Y0104619D01*
X0015989Y0104693D01*
X0015865Y0104770D01*
X0015742Y0104851D01*
X0015622Y0104935D01*
X0015504Y0105022D01*
X0015389Y0105112D01*
X0015276Y0105205D01*
X0015165Y0105302D01*
X0015057Y0105401D01*
X0014952Y0105503D01*
X0014850Y0105608D01*
X0014751Y0105716D01*
X0014654Y0105827D01*
X0014561Y0105940D01*
X0014471Y0106055D01*
X0014384Y0106173D01*
X0014300Y0106293D01*
X0014219Y0106416D01*
X0014142Y0106540D01*
X0014068Y0106667D01*
X0013998Y0106796D01*
X0013931Y0106926D01*
X0013867Y0107058D01*
X0013808Y0107192D01*
X0013751Y0107327D01*
X0013699Y0107464D01*
X0013650Y0107603D01*
X0013605Y0107742D01*
X0013564Y0107883D01*
X0013527Y0108025D01*
X0013494Y0108167D01*
X0013464Y0108311D01*
X0013438Y0108455D01*
X0013417Y0108600D01*
X0013399Y0108746D01*
X0013385Y0108892D01*
X0013375Y0109038D01*
X0013369Y0109184D01*
X0013367Y0109331D01*
X0241713Y0109331D02*
X0241715Y0109478D01*
X0241721Y0109624D01*
X0241731Y0109770D01*
X0241745Y0109916D01*
X0241763Y0110062D01*
X0241784Y0110207D01*
X0241810Y0110351D01*
X0241840Y0110495D01*
X0241873Y0110637D01*
X0241910Y0110779D01*
X0241951Y0110920D01*
X0241996Y0111059D01*
X0242045Y0111198D01*
X0242097Y0111335D01*
X0242154Y0111470D01*
X0242213Y0111604D01*
X0242277Y0111736D01*
X0242344Y0111866D01*
X0242414Y0111995D01*
X0242488Y0112122D01*
X0242565Y0112246D01*
X0242646Y0112369D01*
X0242730Y0112489D01*
X0242817Y0112607D01*
X0242907Y0112722D01*
X0243000Y0112835D01*
X0243097Y0112946D01*
X0243196Y0113054D01*
X0243298Y0113159D01*
X0243403Y0113261D01*
X0243511Y0113360D01*
X0243622Y0113457D01*
X0243735Y0113550D01*
X0243850Y0113640D01*
X0243968Y0113727D01*
X0244088Y0113811D01*
X0244211Y0113892D01*
X0244335Y0113969D01*
X0244462Y0114043D01*
X0244591Y0114113D01*
X0244721Y0114180D01*
X0244853Y0114244D01*
X0244987Y0114303D01*
X0245122Y0114360D01*
X0245259Y0114412D01*
X0245398Y0114461D01*
X0245537Y0114506D01*
X0245678Y0114547D01*
X0245820Y0114584D01*
X0245962Y0114617D01*
X0246106Y0114647D01*
X0246250Y0114673D01*
X0246395Y0114694D01*
X0246541Y0114712D01*
X0246687Y0114726D01*
X0246833Y0114736D01*
X0246979Y0114742D01*
X0247126Y0114744D01*
X0247273Y0114742D01*
X0247419Y0114736D01*
X0247565Y0114726D01*
X0247711Y0114712D01*
X0247857Y0114694D01*
X0248002Y0114673D01*
X0248146Y0114647D01*
X0248290Y0114617D01*
X0248432Y0114584D01*
X0248574Y0114547D01*
X0248715Y0114506D01*
X0248854Y0114461D01*
X0248993Y0114412D01*
X0249130Y0114360D01*
X0249265Y0114303D01*
X0249399Y0114244D01*
X0249531Y0114180D01*
X0249661Y0114113D01*
X0249790Y0114043D01*
X0249917Y0113969D01*
X0250041Y0113892D01*
X0250164Y0113811D01*
X0250284Y0113727D01*
X0250402Y0113640D01*
X0250517Y0113550D01*
X0250630Y0113457D01*
X0250741Y0113360D01*
X0250849Y0113261D01*
X0250954Y0113159D01*
X0251056Y0113054D01*
X0251155Y0112946D01*
X0251252Y0112835D01*
X0251345Y0112722D01*
X0251435Y0112607D01*
X0251522Y0112489D01*
X0251606Y0112369D01*
X0251687Y0112246D01*
X0251764Y0112122D01*
X0251838Y0111995D01*
X0251908Y0111866D01*
X0251975Y0111736D01*
X0252039Y0111604D01*
X0252098Y0111470D01*
X0252155Y0111335D01*
X0252207Y0111198D01*
X0252256Y0111059D01*
X0252301Y0110920D01*
X0252342Y0110779D01*
X0252379Y0110637D01*
X0252412Y0110495D01*
X0252442Y0110351D01*
X0252468Y0110207D01*
X0252489Y0110062D01*
X0252507Y0109916D01*
X0252521Y0109770D01*
X0252531Y0109624D01*
X0252537Y0109478D01*
X0252539Y0109331D01*
X0252537Y0109184D01*
X0252531Y0109038D01*
X0252521Y0108892D01*
X0252507Y0108746D01*
X0252489Y0108600D01*
X0252468Y0108455D01*
X0252442Y0108311D01*
X0252412Y0108167D01*
X0252379Y0108025D01*
X0252342Y0107883D01*
X0252301Y0107742D01*
X0252256Y0107603D01*
X0252207Y0107464D01*
X0252155Y0107327D01*
X0252098Y0107192D01*
X0252039Y0107058D01*
X0251975Y0106926D01*
X0251908Y0106796D01*
X0251838Y0106667D01*
X0251764Y0106540D01*
X0251687Y0106416D01*
X0251606Y0106293D01*
X0251522Y0106173D01*
X0251435Y0106055D01*
X0251345Y0105940D01*
X0251252Y0105827D01*
X0251155Y0105716D01*
X0251056Y0105608D01*
X0250954Y0105503D01*
X0250849Y0105401D01*
X0250741Y0105302D01*
X0250630Y0105205D01*
X0250517Y0105112D01*
X0250402Y0105022D01*
X0250284Y0104935D01*
X0250164Y0104851D01*
X0250041Y0104770D01*
X0249917Y0104693D01*
X0249790Y0104619D01*
X0249661Y0104549D01*
X0249531Y0104482D01*
X0249399Y0104418D01*
X0249265Y0104359D01*
X0249130Y0104302D01*
X0248993Y0104250D01*
X0248854Y0104201D01*
X0248715Y0104156D01*
X0248574Y0104115D01*
X0248432Y0104078D01*
X0248290Y0104045D01*
X0248146Y0104015D01*
X0248002Y0103989D01*
X0247857Y0103968D01*
X0247711Y0103950D01*
X0247565Y0103936D01*
X0247419Y0103926D01*
X0247273Y0103920D01*
X0247126Y0103918D01*
X0246979Y0103920D01*
X0246833Y0103926D01*
X0246687Y0103936D01*
X0246541Y0103950D01*
X0246395Y0103968D01*
X0246250Y0103989D01*
X0246106Y0104015D01*
X0245962Y0104045D01*
X0245820Y0104078D01*
X0245678Y0104115D01*
X0245537Y0104156D01*
X0245398Y0104201D01*
X0245259Y0104250D01*
X0245122Y0104302D01*
X0244987Y0104359D01*
X0244853Y0104418D01*
X0244721Y0104482D01*
X0244591Y0104549D01*
X0244462Y0104619D01*
X0244335Y0104693D01*
X0244211Y0104770D01*
X0244088Y0104851D01*
X0243968Y0104935D01*
X0243850Y0105022D01*
X0243735Y0105112D01*
X0243622Y0105205D01*
X0243511Y0105302D01*
X0243403Y0105401D01*
X0243298Y0105503D01*
X0243196Y0105608D01*
X0243097Y0105716D01*
X0243000Y0105827D01*
X0242907Y0105940D01*
X0242817Y0106055D01*
X0242730Y0106173D01*
X0242646Y0106293D01*
X0242565Y0106416D01*
X0242488Y0106540D01*
X0242414Y0106667D01*
X0242344Y0106796D01*
X0242277Y0106926D01*
X0242213Y0107058D01*
X0242154Y0107192D01*
X0242097Y0107327D01*
X0242045Y0107464D01*
X0241996Y0107603D01*
X0241951Y0107742D01*
X0241910Y0107883D01*
X0241873Y0108025D01*
X0241840Y0108167D01*
X0241810Y0108311D01*
X0241784Y0108455D01*
X0241763Y0108600D01*
X0241745Y0108746D01*
X0241731Y0108892D01*
X0241721Y0109038D01*
X0241715Y0109184D01*
X0241713Y0109331D01*
X0241713Y0018780D02*
X0241715Y0018927D01*
X0241721Y0019073D01*
X0241731Y0019219D01*
X0241745Y0019365D01*
X0241763Y0019511D01*
X0241784Y0019656D01*
X0241810Y0019800D01*
X0241840Y0019944D01*
X0241873Y0020086D01*
X0241910Y0020228D01*
X0241951Y0020369D01*
X0241996Y0020508D01*
X0242045Y0020647D01*
X0242097Y0020784D01*
X0242154Y0020919D01*
X0242213Y0021053D01*
X0242277Y0021185D01*
X0242344Y0021315D01*
X0242414Y0021444D01*
X0242488Y0021571D01*
X0242565Y0021695D01*
X0242646Y0021818D01*
X0242730Y0021938D01*
X0242817Y0022056D01*
X0242907Y0022171D01*
X0243000Y0022284D01*
X0243097Y0022395D01*
X0243196Y0022503D01*
X0243298Y0022608D01*
X0243403Y0022710D01*
X0243511Y0022809D01*
X0243622Y0022906D01*
X0243735Y0022999D01*
X0243850Y0023089D01*
X0243968Y0023176D01*
X0244088Y0023260D01*
X0244211Y0023341D01*
X0244335Y0023418D01*
X0244462Y0023492D01*
X0244591Y0023562D01*
X0244721Y0023629D01*
X0244853Y0023693D01*
X0244987Y0023752D01*
X0245122Y0023809D01*
X0245259Y0023861D01*
X0245398Y0023910D01*
X0245537Y0023955D01*
X0245678Y0023996D01*
X0245820Y0024033D01*
X0245962Y0024066D01*
X0246106Y0024096D01*
X0246250Y0024122D01*
X0246395Y0024143D01*
X0246541Y0024161D01*
X0246687Y0024175D01*
X0246833Y0024185D01*
X0246979Y0024191D01*
X0247126Y0024193D01*
X0247273Y0024191D01*
X0247419Y0024185D01*
X0247565Y0024175D01*
X0247711Y0024161D01*
X0247857Y0024143D01*
X0248002Y0024122D01*
X0248146Y0024096D01*
X0248290Y0024066D01*
X0248432Y0024033D01*
X0248574Y0023996D01*
X0248715Y0023955D01*
X0248854Y0023910D01*
X0248993Y0023861D01*
X0249130Y0023809D01*
X0249265Y0023752D01*
X0249399Y0023693D01*
X0249531Y0023629D01*
X0249661Y0023562D01*
X0249790Y0023492D01*
X0249917Y0023418D01*
X0250041Y0023341D01*
X0250164Y0023260D01*
X0250284Y0023176D01*
X0250402Y0023089D01*
X0250517Y0022999D01*
X0250630Y0022906D01*
X0250741Y0022809D01*
X0250849Y0022710D01*
X0250954Y0022608D01*
X0251056Y0022503D01*
X0251155Y0022395D01*
X0251252Y0022284D01*
X0251345Y0022171D01*
X0251435Y0022056D01*
X0251522Y0021938D01*
X0251606Y0021818D01*
X0251687Y0021695D01*
X0251764Y0021571D01*
X0251838Y0021444D01*
X0251908Y0021315D01*
X0251975Y0021185D01*
X0252039Y0021053D01*
X0252098Y0020919D01*
X0252155Y0020784D01*
X0252207Y0020647D01*
X0252256Y0020508D01*
X0252301Y0020369D01*
X0252342Y0020228D01*
X0252379Y0020086D01*
X0252412Y0019944D01*
X0252442Y0019800D01*
X0252468Y0019656D01*
X0252489Y0019511D01*
X0252507Y0019365D01*
X0252521Y0019219D01*
X0252531Y0019073D01*
X0252537Y0018927D01*
X0252539Y0018780D01*
X0252537Y0018633D01*
X0252531Y0018487D01*
X0252521Y0018341D01*
X0252507Y0018195D01*
X0252489Y0018049D01*
X0252468Y0017904D01*
X0252442Y0017760D01*
X0252412Y0017616D01*
X0252379Y0017474D01*
X0252342Y0017332D01*
X0252301Y0017191D01*
X0252256Y0017052D01*
X0252207Y0016913D01*
X0252155Y0016776D01*
X0252098Y0016641D01*
X0252039Y0016507D01*
X0251975Y0016375D01*
X0251908Y0016245D01*
X0251838Y0016116D01*
X0251764Y0015989D01*
X0251687Y0015865D01*
X0251606Y0015742D01*
X0251522Y0015622D01*
X0251435Y0015504D01*
X0251345Y0015389D01*
X0251252Y0015276D01*
X0251155Y0015165D01*
X0251056Y0015057D01*
X0250954Y0014952D01*
X0250849Y0014850D01*
X0250741Y0014751D01*
X0250630Y0014654D01*
X0250517Y0014561D01*
X0250402Y0014471D01*
X0250284Y0014384D01*
X0250164Y0014300D01*
X0250041Y0014219D01*
X0249917Y0014142D01*
X0249790Y0014068D01*
X0249661Y0013998D01*
X0249531Y0013931D01*
X0249399Y0013867D01*
X0249265Y0013808D01*
X0249130Y0013751D01*
X0248993Y0013699D01*
X0248854Y0013650D01*
X0248715Y0013605D01*
X0248574Y0013564D01*
X0248432Y0013527D01*
X0248290Y0013494D01*
X0248146Y0013464D01*
X0248002Y0013438D01*
X0247857Y0013417D01*
X0247711Y0013399D01*
X0247565Y0013385D01*
X0247419Y0013375D01*
X0247273Y0013369D01*
X0247126Y0013367D01*
X0246979Y0013369D01*
X0246833Y0013375D01*
X0246687Y0013385D01*
X0246541Y0013399D01*
X0246395Y0013417D01*
X0246250Y0013438D01*
X0246106Y0013464D01*
X0245962Y0013494D01*
X0245820Y0013527D01*
X0245678Y0013564D01*
X0245537Y0013605D01*
X0245398Y0013650D01*
X0245259Y0013699D01*
X0245122Y0013751D01*
X0244987Y0013808D01*
X0244853Y0013867D01*
X0244721Y0013931D01*
X0244591Y0013998D01*
X0244462Y0014068D01*
X0244335Y0014142D01*
X0244211Y0014219D01*
X0244088Y0014300D01*
X0243968Y0014384D01*
X0243850Y0014471D01*
X0243735Y0014561D01*
X0243622Y0014654D01*
X0243511Y0014751D01*
X0243403Y0014850D01*
X0243298Y0014952D01*
X0243196Y0015057D01*
X0243097Y0015165D01*
X0243000Y0015276D01*
X0242907Y0015389D01*
X0242817Y0015504D01*
X0242730Y0015622D01*
X0242646Y0015742D01*
X0242565Y0015865D01*
X0242488Y0015989D01*
X0242414Y0016116D01*
X0242344Y0016245D01*
X0242277Y0016375D01*
X0242213Y0016507D01*
X0242154Y0016641D01*
X0242097Y0016776D01*
X0242045Y0016913D01*
X0241996Y0017052D01*
X0241951Y0017191D01*
X0241910Y0017332D01*
X0241873Y0017474D01*
X0241840Y0017616D01*
X0241810Y0017760D01*
X0241784Y0017904D01*
X0241763Y0018049D01*
X0241745Y0018195D01*
X0241731Y0018341D01*
X0241721Y0018487D01*
X0241715Y0018633D01*
X0241713Y0018780D01*
D11*
X0200000Y0022500D02*
X0200000Y0037500D01*
X0225000Y0047500D02*
X0225000Y0062500D01*
X0200000Y0072500D02*
X0200000Y0087500D01*
X0175000Y0062500D02*
X0175000Y0047500D01*
X0102902Y0061500D02*
X0077098Y0061500D01*
X0077100Y0085100D01*
X0102900Y0085100D02*
X0102902Y0061500D01*
D12*
X0064070Y0073886D02*
X0064072Y0073932D01*
X0064078Y0073977D01*
X0064088Y0074022D01*
X0064102Y0074065D01*
X0064119Y0074107D01*
X0064140Y0074148D01*
X0064165Y0074187D01*
X0064193Y0074223D01*
X0064223Y0074257D01*
X0064257Y0074287D01*
X0064293Y0074315D01*
X0064332Y0074340D01*
X0064373Y0074361D01*
X0064415Y0074378D01*
X0064458Y0074392D01*
X0064503Y0074402D01*
X0064548Y0074408D01*
X0064594Y0074410D01*
X0064640Y0074408D01*
X0064685Y0074402D01*
X0064730Y0074392D01*
X0064773Y0074378D01*
X0064815Y0074361D01*
X0064856Y0074340D01*
X0064895Y0074315D01*
X0064931Y0074287D01*
X0064965Y0074257D01*
X0064995Y0074223D01*
X0065023Y0074187D01*
X0065048Y0074148D01*
X0065069Y0074107D01*
X0065086Y0074065D01*
X0065100Y0074022D01*
X0065110Y0073977D01*
X0065116Y0073932D01*
X0065118Y0073886D01*
X0065116Y0073840D01*
X0065110Y0073795D01*
X0065100Y0073750D01*
X0065086Y0073707D01*
X0065069Y0073665D01*
X0065048Y0073624D01*
X0065023Y0073585D01*
X0064995Y0073549D01*
X0064965Y0073515D01*
X0064931Y0073485D01*
X0064895Y0073457D01*
X0064856Y0073432D01*
X0064815Y0073411D01*
X0064773Y0073394D01*
X0064730Y0073380D01*
X0064685Y0073370D01*
X0064640Y0073364D01*
X0064594Y0073362D01*
X0064548Y0073364D01*
X0064503Y0073370D01*
X0064458Y0073380D01*
X0064415Y0073394D01*
X0064373Y0073411D01*
X0064332Y0073432D01*
X0064293Y0073457D01*
X0064257Y0073485D01*
X0064223Y0073515D01*
X0064193Y0073549D01*
X0064165Y0073585D01*
X0064140Y0073624D01*
X0064119Y0073665D01*
X0064102Y0073707D01*
X0064088Y0073750D01*
X0064078Y0073795D01*
X0064072Y0073840D01*
X0064070Y0073886D01*
X0062205Y0077087D02*
X0062205Y0084173D01*
X0056701Y0084173D01*
X0056693Y0084173D02*
X0056700Y0084336D01*
X0056702Y0084500D01*
X0056700Y0084663D01*
X0056695Y0084827D01*
X0056685Y0084990D01*
X0056672Y0085153D01*
X0056654Y0085316D01*
X0056633Y0085478D01*
X0056608Y0085639D01*
X0056578Y0085800D01*
X0056545Y0085960D01*
X0056508Y0086119D01*
X0056467Y0086278D01*
X0056422Y0086435D01*
X0056373Y0086591D01*
X0056321Y0086746D01*
X0056265Y0086899D01*
X0056205Y0087051D01*
X0056141Y0087202D01*
X0056074Y0087351D01*
X0056003Y0087498D01*
X0055928Y0087644D01*
X0055850Y0087787D01*
X0055769Y0087929D01*
X0055684Y0088069D01*
X0055596Y0088206D01*
X0055504Y0088342D01*
X0055409Y0088475D01*
X0055311Y0088606D01*
X0055210Y0088734D01*
X0055105Y0088860D01*
X0054998Y0088983D01*
X0054888Y0089104D01*
X0054774Y0089222D01*
X0054658Y0089337D01*
X0054539Y0089449D01*
X0054417Y0089558D01*
X0054293Y0089664D01*
X0054166Y0089768D01*
X0054037Y0089868D01*
X0053905Y0089965D01*
X0053771Y0090058D01*
X0053635Y0090148D01*
X0053497Y0090235D01*
X0053356Y0090319D01*
X0053214Y0090399D01*
X0053069Y0090476D01*
X0052923Y0090549D01*
X0052775Y0090618D01*
X0052625Y0090684D01*
X0052474Y0090747D01*
X0052322Y0090805D01*
X0052168Y0090860D01*
X0052012Y0090911D01*
X0051856Y0090958D01*
X0051698Y0091001D01*
X0051539Y0091041D01*
X0051380Y0091076D01*
X0051219Y0091108D01*
X0051058Y0091136D01*
X0050897Y0091160D01*
X0050734Y0091180D01*
X0050572Y0091196D01*
X0050408Y0091208D01*
X0050245Y0091216D01*
X0050082Y0091220D01*
X0049918Y0091220D01*
X0049755Y0091216D01*
X0049592Y0091208D01*
X0049428Y0091196D01*
X0049266Y0091180D01*
X0049103Y0091160D01*
X0048942Y0091136D01*
X0048781Y0091108D01*
X0048620Y0091076D01*
X0048461Y0091041D01*
X0048302Y0091001D01*
X0048144Y0090958D01*
X0047988Y0090911D01*
X0047832Y0090860D01*
X0047678Y0090805D01*
X0047526Y0090747D01*
X0047375Y0090684D01*
X0047225Y0090618D01*
X0047077Y0090549D01*
X0046931Y0090476D01*
X0046786Y0090399D01*
X0046644Y0090319D01*
X0046503Y0090235D01*
X0046365Y0090148D01*
X0046229Y0090058D01*
X0046095Y0089965D01*
X0045963Y0089868D01*
X0045834Y0089768D01*
X0045707Y0089664D01*
X0045583Y0089558D01*
X0045461Y0089449D01*
X0045342Y0089337D01*
X0045226Y0089222D01*
X0045112Y0089104D01*
X0045002Y0088983D01*
X0044895Y0088860D01*
X0044790Y0088734D01*
X0044689Y0088606D01*
X0044591Y0088475D01*
X0044496Y0088342D01*
X0044404Y0088206D01*
X0044316Y0088069D01*
X0044231Y0087929D01*
X0044150Y0087787D01*
X0044072Y0087644D01*
X0043997Y0087498D01*
X0043926Y0087351D01*
X0043859Y0087202D01*
X0043795Y0087051D01*
X0043735Y0086899D01*
X0043679Y0086746D01*
X0043627Y0086591D01*
X0043578Y0086435D01*
X0043533Y0086278D01*
X0043492Y0086119D01*
X0043455Y0085960D01*
X0043422Y0085800D01*
X0043392Y0085639D01*
X0043367Y0085478D01*
X0043346Y0085316D01*
X0043328Y0085153D01*
X0043315Y0084990D01*
X0043305Y0084827D01*
X0043300Y0084663D01*
X0043298Y0084500D01*
X0043300Y0084336D01*
X0043307Y0084173D01*
X0037795Y0084173D01*
X0037795Y0077087D01*
X0037795Y0070000D02*
X0062205Y0070000D01*
X0175000Y0062500D02*
X0174813Y0062743D01*
X0174621Y0062981D01*
X0174422Y0063214D01*
X0174218Y0063442D01*
X0174009Y0063665D01*
X0173794Y0063883D01*
X0173574Y0064096D01*
X0173349Y0064303D01*
X0173118Y0064505D01*
X0172883Y0064701D01*
X0172643Y0064891D01*
X0172399Y0065075D01*
X0172150Y0065253D01*
X0171896Y0065425D01*
X0171639Y0065591D01*
X0171378Y0065751D01*
X0171113Y0065904D01*
X0170844Y0066050D01*
X0170571Y0066190D01*
X0170296Y0066323D01*
X0170017Y0066449D01*
X0169735Y0066569D01*
X0169450Y0066681D01*
X0169163Y0066786D01*
X0168873Y0066885D01*
X0168581Y0066976D01*
X0168286Y0067060D01*
X0167990Y0067137D01*
X0167692Y0067207D01*
X0167392Y0067269D01*
X0167091Y0067324D01*
X0166789Y0067371D01*
X0166485Y0067411D01*
X0166181Y0067444D01*
X0165876Y0067469D01*
X0165570Y0067487D01*
X0165264Y0067497D01*
X0164958Y0067500D01*
X0164652Y0067495D01*
X0164346Y0067483D01*
X0164040Y0067463D01*
X0163736Y0067436D01*
X0163431Y0067401D01*
X0163128Y0067359D01*
X0162826Y0067310D01*
X0162525Y0067253D01*
X0162226Y0067188D01*
X0161928Y0067117D01*
X0161633Y0067038D01*
X0161339Y0066952D01*
X0161047Y0066859D01*
X0160758Y0066758D01*
X0160471Y0066651D01*
X0160187Y0066536D01*
X0159906Y0066415D01*
X0159628Y0066287D01*
X0159353Y0066152D01*
X0159082Y0066010D01*
X0158814Y0065862D01*
X0158550Y0065707D01*
X0158290Y0065546D01*
X0158034Y0065379D01*
X0157781Y0065205D01*
X0157534Y0065025D01*
X0157290Y0064839D01*
X0157052Y0064648D01*
X0156818Y0064450D01*
X0156589Y0064247D01*
X0156365Y0064038D01*
X0156146Y0063824D01*
X0155933Y0063604D01*
X0155725Y0063380D01*
X0155522Y0063150D01*
X0155326Y0062916D01*
X0155135Y0062676D01*
X0154950Y0062433D01*
X0154771Y0062184D01*
X0154598Y0061932D01*
X0154431Y0061675D01*
X0154271Y0061414D01*
X0154117Y0061149D01*
X0153970Y0060881D01*
X0153829Y0060609D01*
X0153695Y0060334D01*
X0153568Y0060055D01*
X0153447Y0059774D01*
X0153334Y0059489D01*
X0153228Y0059202D01*
X0153128Y0058913D01*
X0153036Y0058621D01*
X0152951Y0058327D01*
X0152873Y0058031D01*
X0152802Y0057733D01*
X0152739Y0057433D01*
X0152683Y0057132D01*
X0152635Y0056830D01*
X0152594Y0056527D01*
X0152560Y0056223D01*
X0152534Y0055918D01*
X0152515Y0055612D01*
X0152504Y0055306D01*
X0152500Y0055000D01*
X0152504Y0054694D01*
X0152515Y0054388D01*
X0152534Y0054082D01*
X0152560Y0053777D01*
X0152594Y0053473D01*
X0152635Y0053170D01*
X0152683Y0052868D01*
X0152739Y0052567D01*
X0152802Y0052267D01*
X0152873Y0051969D01*
X0152951Y0051673D01*
X0153036Y0051379D01*
X0153128Y0051087D01*
X0153228Y0050798D01*
X0153334Y0050511D01*
X0153447Y0050226D01*
X0153568Y0049945D01*
X0153695Y0049666D01*
X0153829Y0049391D01*
X0153970Y0049119D01*
X0154117Y0048851D01*
X0154271Y0048586D01*
X0154431Y0048325D01*
X0154598Y0048068D01*
X0154771Y0047816D01*
X0154950Y0047567D01*
X0155135Y0047324D01*
X0155326Y0047084D01*
X0155522Y0046850D01*
X0155725Y0046620D01*
X0155933Y0046396D01*
X0156146Y0046176D01*
X0156365Y0045962D01*
X0156589Y0045753D01*
X0156818Y0045550D01*
X0157052Y0045352D01*
X0157290Y0045161D01*
X0157534Y0044975D01*
X0157781Y0044795D01*
X0158034Y0044621D01*
X0158290Y0044454D01*
X0158550Y0044293D01*
X0158814Y0044138D01*
X0159082Y0043990D01*
X0159353Y0043848D01*
X0159628Y0043713D01*
X0159906Y0043585D01*
X0160187Y0043464D01*
X0160471Y0043349D01*
X0160758Y0043242D01*
X0161047Y0043141D01*
X0161339Y0043048D01*
X0161633Y0042962D01*
X0161928Y0042883D01*
X0162226Y0042812D01*
X0162525Y0042747D01*
X0162826Y0042690D01*
X0163128Y0042641D01*
X0163431Y0042599D01*
X0163736Y0042564D01*
X0164040Y0042537D01*
X0164346Y0042517D01*
X0164652Y0042505D01*
X0164958Y0042500D01*
X0165264Y0042503D01*
X0165570Y0042513D01*
X0165876Y0042531D01*
X0166181Y0042556D01*
X0166485Y0042589D01*
X0166789Y0042629D01*
X0167091Y0042676D01*
X0167392Y0042731D01*
X0167692Y0042793D01*
X0167990Y0042863D01*
X0168286Y0042940D01*
X0168581Y0043024D01*
X0168873Y0043115D01*
X0169163Y0043214D01*
X0169450Y0043319D01*
X0169735Y0043431D01*
X0170017Y0043551D01*
X0170296Y0043677D01*
X0170571Y0043810D01*
X0170844Y0043950D01*
X0171113Y0044096D01*
X0171378Y0044249D01*
X0171639Y0044409D01*
X0171896Y0044575D01*
X0172150Y0044747D01*
X0172399Y0044925D01*
X0172643Y0045109D01*
X0172883Y0045299D01*
X0173118Y0045495D01*
X0173349Y0045697D01*
X0173574Y0045904D01*
X0173794Y0046117D01*
X0174009Y0046335D01*
X0174218Y0046558D01*
X0174422Y0046786D01*
X0174621Y0047019D01*
X0174813Y0047257D01*
X0175000Y0047500D01*
X0200000Y0037500D02*
X0199813Y0037743D01*
X0199621Y0037981D01*
X0199422Y0038214D01*
X0199218Y0038442D01*
X0199009Y0038665D01*
X0198794Y0038883D01*
X0198574Y0039096D01*
X0198349Y0039303D01*
X0198118Y0039505D01*
X0197883Y0039701D01*
X0197643Y0039891D01*
X0197399Y0040075D01*
X0197150Y0040253D01*
X0196896Y0040425D01*
X0196639Y0040591D01*
X0196378Y0040751D01*
X0196113Y0040904D01*
X0195844Y0041050D01*
X0195571Y0041190D01*
X0195296Y0041323D01*
X0195017Y0041449D01*
X0194735Y0041569D01*
X0194450Y0041681D01*
X0194163Y0041786D01*
X0193873Y0041885D01*
X0193581Y0041976D01*
X0193286Y0042060D01*
X0192990Y0042137D01*
X0192692Y0042207D01*
X0192392Y0042269D01*
X0192091Y0042324D01*
X0191789Y0042371D01*
X0191485Y0042411D01*
X0191181Y0042444D01*
X0190876Y0042469D01*
X0190570Y0042487D01*
X0190264Y0042497D01*
X0189958Y0042500D01*
X0189652Y0042495D01*
X0189346Y0042483D01*
X0189040Y0042463D01*
X0188736Y0042436D01*
X0188431Y0042401D01*
X0188128Y0042359D01*
X0187826Y0042310D01*
X0187525Y0042253D01*
X0187226Y0042188D01*
X0186928Y0042117D01*
X0186633Y0042038D01*
X0186339Y0041952D01*
X0186047Y0041859D01*
X0185758Y0041758D01*
X0185471Y0041651D01*
X0185187Y0041536D01*
X0184906Y0041415D01*
X0184628Y0041287D01*
X0184353Y0041152D01*
X0184082Y0041010D01*
X0183814Y0040862D01*
X0183550Y0040707D01*
X0183290Y0040546D01*
X0183034Y0040379D01*
X0182781Y0040205D01*
X0182534Y0040025D01*
X0182290Y0039839D01*
X0182052Y0039648D01*
X0181818Y0039450D01*
X0181589Y0039247D01*
X0181365Y0039038D01*
X0181146Y0038824D01*
X0180933Y0038604D01*
X0180725Y0038380D01*
X0180522Y0038150D01*
X0180326Y0037916D01*
X0180135Y0037676D01*
X0179950Y0037433D01*
X0179771Y0037184D01*
X0179598Y0036932D01*
X0179431Y0036675D01*
X0179271Y0036414D01*
X0179117Y0036149D01*
X0178970Y0035881D01*
X0178829Y0035609D01*
X0178695Y0035334D01*
X0178568Y0035055D01*
X0178447Y0034774D01*
X0178334Y0034489D01*
X0178228Y0034202D01*
X0178128Y0033913D01*
X0178036Y0033621D01*
X0177951Y0033327D01*
X0177873Y0033031D01*
X0177802Y0032733D01*
X0177739Y0032433D01*
X0177683Y0032132D01*
X0177635Y0031830D01*
X0177594Y0031527D01*
X0177560Y0031223D01*
X0177534Y0030918D01*
X0177515Y0030612D01*
X0177504Y0030306D01*
X0177500Y0030000D01*
X0177504Y0029694D01*
X0177515Y0029388D01*
X0177534Y0029082D01*
X0177560Y0028777D01*
X0177594Y0028473D01*
X0177635Y0028170D01*
X0177683Y0027868D01*
X0177739Y0027567D01*
X0177802Y0027267D01*
X0177873Y0026969D01*
X0177951Y0026673D01*
X0178036Y0026379D01*
X0178128Y0026087D01*
X0178228Y0025798D01*
X0178334Y0025511D01*
X0178447Y0025226D01*
X0178568Y0024945D01*
X0178695Y0024666D01*
X0178829Y0024391D01*
X0178970Y0024119D01*
X0179117Y0023851D01*
X0179271Y0023586D01*
X0179431Y0023325D01*
X0179598Y0023068D01*
X0179771Y0022816D01*
X0179950Y0022567D01*
X0180135Y0022324D01*
X0180326Y0022084D01*
X0180522Y0021850D01*
X0180725Y0021620D01*
X0180933Y0021396D01*
X0181146Y0021176D01*
X0181365Y0020962D01*
X0181589Y0020753D01*
X0181818Y0020550D01*
X0182052Y0020352D01*
X0182290Y0020161D01*
X0182534Y0019975D01*
X0182781Y0019795D01*
X0183034Y0019621D01*
X0183290Y0019454D01*
X0183550Y0019293D01*
X0183814Y0019138D01*
X0184082Y0018990D01*
X0184353Y0018848D01*
X0184628Y0018713D01*
X0184906Y0018585D01*
X0185187Y0018464D01*
X0185471Y0018349D01*
X0185758Y0018242D01*
X0186047Y0018141D01*
X0186339Y0018048D01*
X0186633Y0017962D01*
X0186928Y0017883D01*
X0187226Y0017812D01*
X0187525Y0017747D01*
X0187826Y0017690D01*
X0188128Y0017641D01*
X0188431Y0017599D01*
X0188736Y0017564D01*
X0189040Y0017537D01*
X0189346Y0017517D01*
X0189652Y0017505D01*
X0189958Y0017500D01*
X0190264Y0017503D01*
X0190570Y0017513D01*
X0190876Y0017531D01*
X0191181Y0017556D01*
X0191485Y0017589D01*
X0191789Y0017629D01*
X0192091Y0017676D01*
X0192392Y0017731D01*
X0192692Y0017793D01*
X0192990Y0017863D01*
X0193286Y0017940D01*
X0193581Y0018024D01*
X0193873Y0018115D01*
X0194163Y0018214D01*
X0194450Y0018319D01*
X0194735Y0018431D01*
X0195017Y0018551D01*
X0195296Y0018677D01*
X0195571Y0018810D01*
X0195844Y0018950D01*
X0196113Y0019096D01*
X0196378Y0019249D01*
X0196639Y0019409D01*
X0196896Y0019575D01*
X0197150Y0019747D01*
X0197399Y0019925D01*
X0197643Y0020109D01*
X0197883Y0020299D01*
X0198118Y0020495D01*
X0198349Y0020697D01*
X0198574Y0020904D01*
X0198794Y0021117D01*
X0199009Y0021335D01*
X0199218Y0021558D01*
X0199422Y0021786D01*
X0199621Y0022019D01*
X0199813Y0022257D01*
X0200000Y0022500D01*
X0225000Y0047500D02*
X0224813Y0047257D01*
X0224621Y0047019D01*
X0224422Y0046786D01*
X0224218Y0046558D01*
X0224009Y0046335D01*
X0223794Y0046117D01*
X0223574Y0045904D01*
X0223349Y0045697D01*
X0223118Y0045495D01*
X0222883Y0045299D01*
X0222643Y0045109D01*
X0222399Y0044925D01*
X0222150Y0044747D01*
X0221896Y0044575D01*
X0221639Y0044409D01*
X0221378Y0044249D01*
X0221113Y0044096D01*
X0220844Y0043950D01*
X0220571Y0043810D01*
X0220296Y0043677D01*
X0220017Y0043551D01*
X0219735Y0043431D01*
X0219450Y0043319D01*
X0219163Y0043214D01*
X0218873Y0043115D01*
X0218581Y0043024D01*
X0218286Y0042940D01*
X0217990Y0042863D01*
X0217692Y0042793D01*
X0217392Y0042731D01*
X0217091Y0042676D01*
X0216789Y0042629D01*
X0216485Y0042589D01*
X0216181Y0042556D01*
X0215876Y0042531D01*
X0215570Y0042513D01*
X0215264Y0042503D01*
X0214958Y0042500D01*
X0214652Y0042505D01*
X0214346Y0042517D01*
X0214040Y0042537D01*
X0213736Y0042564D01*
X0213431Y0042599D01*
X0213128Y0042641D01*
X0212826Y0042690D01*
X0212525Y0042747D01*
X0212226Y0042812D01*
X0211928Y0042883D01*
X0211633Y0042962D01*
X0211339Y0043048D01*
X0211047Y0043141D01*
X0210758Y0043242D01*
X0210471Y0043349D01*
X0210187Y0043464D01*
X0209906Y0043585D01*
X0209628Y0043713D01*
X0209353Y0043848D01*
X0209082Y0043990D01*
X0208814Y0044138D01*
X0208550Y0044293D01*
X0208290Y0044454D01*
X0208034Y0044621D01*
X0207781Y0044795D01*
X0207534Y0044975D01*
X0207290Y0045161D01*
X0207052Y0045352D01*
X0206818Y0045550D01*
X0206589Y0045753D01*
X0206365Y0045962D01*
X0206146Y0046176D01*
X0205933Y0046396D01*
X0205725Y0046620D01*
X0205522Y0046850D01*
X0205326Y0047084D01*
X0205135Y0047324D01*
X0204950Y0047567D01*
X0204771Y0047816D01*
X0204598Y0048068D01*
X0204431Y0048325D01*
X0204271Y0048586D01*
X0204117Y0048851D01*
X0203970Y0049119D01*
X0203829Y0049391D01*
X0203695Y0049666D01*
X0203568Y0049945D01*
X0203447Y0050226D01*
X0203334Y0050511D01*
X0203228Y0050798D01*
X0203128Y0051087D01*
X0203036Y0051379D01*
X0202951Y0051673D01*
X0202873Y0051969D01*
X0202802Y0052267D01*
X0202739Y0052567D01*
X0202683Y0052868D01*
X0202635Y0053170D01*
X0202594Y0053473D01*
X0202560Y0053777D01*
X0202534Y0054082D01*
X0202515Y0054388D01*
X0202504Y0054694D01*
X0202500Y0055000D01*
X0202504Y0055306D01*
X0202515Y0055612D01*
X0202534Y0055918D01*
X0202560Y0056223D01*
X0202594Y0056527D01*
X0202635Y0056830D01*
X0202683Y0057132D01*
X0202739Y0057433D01*
X0202802Y0057733D01*
X0202873Y0058031D01*
X0202951Y0058327D01*
X0203036Y0058621D01*
X0203128Y0058913D01*
X0203228Y0059202D01*
X0203334Y0059489D01*
X0203447Y0059774D01*
X0203568Y0060055D01*
X0203695Y0060334D01*
X0203829Y0060609D01*
X0203970Y0060881D01*
X0204117Y0061149D01*
X0204271Y0061414D01*
X0204431Y0061675D01*
X0204598Y0061932D01*
X0204771Y0062184D01*
X0204950Y0062433D01*
X0205135Y0062676D01*
X0205326Y0062916D01*
X0205522Y0063150D01*
X0205725Y0063380D01*
X0205933Y0063604D01*
X0206146Y0063824D01*
X0206365Y0064038D01*
X0206589Y0064247D01*
X0206818Y0064450D01*
X0207052Y0064648D01*
X0207290Y0064839D01*
X0207534Y0065025D01*
X0207781Y0065205D01*
X0208034Y0065379D01*
X0208290Y0065546D01*
X0208550Y0065707D01*
X0208814Y0065862D01*
X0209082Y0066010D01*
X0209353Y0066152D01*
X0209628Y0066287D01*
X0209906Y0066415D01*
X0210187Y0066536D01*
X0210471Y0066651D01*
X0210758Y0066758D01*
X0211047Y0066859D01*
X0211339Y0066952D01*
X0211633Y0067038D01*
X0211928Y0067117D01*
X0212226Y0067188D01*
X0212525Y0067253D01*
X0212826Y0067310D01*
X0213128Y0067359D01*
X0213431Y0067401D01*
X0213736Y0067436D01*
X0214040Y0067463D01*
X0214346Y0067483D01*
X0214652Y0067495D01*
X0214958Y0067500D01*
X0215264Y0067497D01*
X0215570Y0067487D01*
X0215876Y0067469D01*
X0216181Y0067444D01*
X0216485Y0067411D01*
X0216789Y0067371D01*
X0217091Y0067324D01*
X0217392Y0067269D01*
X0217692Y0067207D01*
X0217990Y0067137D01*
X0218286Y0067060D01*
X0218581Y0066976D01*
X0218873Y0066885D01*
X0219163Y0066786D01*
X0219450Y0066681D01*
X0219735Y0066569D01*
X0220017Y0066449D01*
X0220296Y0066323D01*
X0220571Y0066190D01*
X0220844Y0066050D01*
X0221113Y0065904D01*
X0221378Y0065751D01*
X0221639Y0065591D01*
X0221896Y0065425D01*
X0222150Y0065253D01*
X0222399Y0065075D01*
X0222643Y0064891D01*
X0222883Y0064701D01*
X0223118Y0064505D01*
X0223349Y0064303D01*
X0223574Y0064096D01*
X0223794Y0063883D01*
X0224009Y0063665D01*
X0224218Y0063442D01*
X0224422Y0063214D01*
X0224621Y0062981D01*
X0224813Y0062743D01*
X0225000Y0062500D01*
X0200000Y0072500D02*
X0199813Y0072257D01*
X0199621Y0072019D01*
X0199422Y0071786D01*
X0199218Y0071558D01*
X0199009Y0071335D01*
X0198794Y0071117D01*
X0198574Y0070904D01*
X0198349Y0070697D01*
X0198118Y0070495D01*
X0197883Y0070299D01*
X0197643Y0070109D01*
X0197399Y0069925D01*
X0197150Y0069747D01*
X0196896Y0069575D01*
X0196639Y0069409D01*
X0196378Y0069249D01*
X0196113Y0069096D01*
X0195844Y0068950D01*
X0195571Y0068810D01*
X0195296Y0068677D01*
X0195017Y0068551D01*
X0194735Y0068431D01*
X0194450Y0068319D01*
X0194163Y0068214D01*
X0193873Y0068115D01*
X0193581Y0068024D01*
X0193286Y0067940D01*
X0192990Y0067863D01*
X0192692Y0067793D01*
X0192392Y0067731D01*
X0192091Y0067676D01*
X0191789Y0067629D01*
X0191485Y0067589D01*
X0191181Y0067556D01*
X0190876Y0067531D01*
X0190570Y0067513D01*
X0190264Y0067503D01*
X0189958Y0067500D01*
X0189652Y0067505D01*
X0189346Y0067517D01*
X0189040Y0067537D01*
X0188736Y0067564D01*
X0188431Y0067599D01*
X0188128Y0067641D01*
X0187826Y0067690D01*
X0187525Y0067747D01*
X0187226Y0067812D01*
X0186928Y0067883D01*
X0186633Y0067962D01*
X0186339Y0068048D01*
X0186047Y0068141D01*
X0185758Y0068242D01*
X0185471Y0068349D01*
X0185187Y0068464D01*
X0184906Y0068585D01*
X0184628Y0068713D01*
X0184353Y0068848D01*
X0184082Y0068990D01*
X0183814Y0069138D01*
X0183550Y0069293D01*
X0183290Y0069454D01*
X0183034Y0069621D01*
X0182781Y0069795D01*
X0182534Y0069975D01*
X0182290Y0070161D01*
X0182052Y0070352D01*
X0181818Y0070550D01*
X0181589Y0070753D01*
X0181365Y0070962D01*
X0181146Y0071176D01*
X0180933Y0071396D01*
X0180725Y0071620D01*
X0180522Y0071850D01*
X0180326Y0072084D01*
X0180135Y0072324D01*
X0179950Y0072567D01*
X0179771Y0072816D01*
X0179598Y0073068D01*
X0179431Y0073325D01*
X0179271Y0073586D01*
X0179117Y0073851D01*
X0178970Y0074119D01*
X0178829Y0074391D01*
X0178695Y0074666D01*
X0178568Y0074945D01*
X0178447Y0075226D01*
X0178334Y0075511D01*
X0178228Y0075798D01*
X0178128Y0076087D01*
X0178036Y0076379D01*
X0177951Y0076673D01*
X0177873Y0076969D01*
X0177802Y0077267D01*
X0177739Y0077567D01*
X0177683Y0077868D01*
X0177635Y0078170D01*
X0177594Y0078473D01*
X0177560Y0078777D01*
X0177534Y0079082D01*
X0177515Y0079388D01*
X0177504Y0079694D01*
X0177500Y0080000D01*
X0177504Y0080306D01*
X0177515Y0080612D01*
X0177534Y0080918D01*
X0177560Y0081223D01*
X0177594Y0081527D01*
X0177635Y0081830D01*
X0177683Y0082132D01*
X0177739Y0082433D01*
X0177802Y0082733D01*
X0177873Y0083031D01*
X0177951Y0083327D01*
X0178036Y0083621D01*
X0178128Y0083913D01*
X0178228Y0084202D01*
X0178334Y0084489D01*
X0178447Y0084774D01*
X0178568Y0085055D01*
X0178695Y0085334D01*
X0178829Y0085609D01*
X0178970Y0085881D01*
X0179117Y0086149D01*
X0179271Y0086414D01*
X0179431Y0086675D01*
X0179598Y0086932D01*
X0179771Y0087184D01*
X0179950Y0087433D01*
X0180135Y0087676D01*
X0180326Y0087916D01*
X0180522Y0088150D01*
X0180725Y0088380D01*
X0180933Y0088604D01*
X0181146Y0088824D01*
X0181365Y0089038D01*
X0181589Y0089247D01*
X0181818Y0089450D01*
X0182052Y0089648D01*
X0182290Y0089839D01*
X0182534Y0090025D01*
X0182781Y0090205D01*
X0183034Y0090379D01*
X0183290Y0090546D01*
X0183550Y0090707D01*
X0183814Y0090862D01*
X0184082Y0091010D01*
X0184353Y0091152D01*
X0184628Y0091287D01*
X0184906Y0091415D01*
X0185187Y0091536D01*
X0185471Y0091651D01*
X0185758Y0091758D01*
X0186047Y0091859D01*
X0186339Y0091952D01*
X0186633Y0092038D01*
X0186928Y0092117D01*
X0187226Y0092188D01*
X0187525Y0092253D01*
X0187826Y0092310D01*
X0188128Y0092359D01*
X0188431Y0092401D01*
X0188736Y0092436D01*
X0189040Y0092463D01*
X0189346Y0092483D01*
X0189652Y0092495D01*
X0189958Y0092500D01*
X0190264Y0092497D01*
X0190570Y0092487D01*
X0190876Y0092469D01*
X0191181Y0092444D01*
X0191485Y0092411D01*
X0191789Y0092371D01*
X0192091Y0092324D01*
X0192392Y0092269D01*
X0192692Y0092207D01*
X0192990Y0092137D01*
X0193286Y0092060D01*
X0193581Y0091976D01*
X0193873Y0091885D01*
X0194163Y0091786D01*
X0194450Y0091681D01*
X0194735Y0091569D01*
X0195017Y0091449D01*
X0195296Y0091323D01*
X0195571Y0091190D01*
X0195844Y0091050D01*
X0196113Y0090904D01*
X0196378Y0090751D01*
X0196639Y0090591D01*
X0196896Y0090425D01*
X0197150Y0090253D01*
X0197399Y0090075D01*
X0197643Y0089891D01*
X0197883Y0089701D01*
X0198118Y0089505D01*
X0198349Y0089303D01*
X0198574Y0089096D01*
X0198794Y0088883D01*
X0199009Y0088665D01*
X0199218Y0088442D01*
X0199422Y0088214D01*
X0199621Y0087981D01*
X0199813Y0087743D01*
X0200000Y0087500D01*
D13*
X0180000Y0080000D02*
X0180003Y0080245D01*
X0180012Y0080491D01*
X0180027Y0080736D01*
X0180048Y0080980D01*
X0180075Y0081224D01*
X0180108Y0081467D01*
X0180147Y0081710D01*
X0180192Y0081951D01*
X0180243Y0082191D01*
X0180300Y0082430D01*
X0180362Y0082667D01*
X0180431Y0082903D01*
X0180505Y0083137D01*
X0180585Y0083369D01*
X0180670Y0083599D01*
X0180761Y0083827D01*
X0180858Y0084052D01*
X0180960Y0084276D01*
X0181068Y0084496D01*
X0181181Y0084714D01*
X0181299Y0084929D01*
X0181423Y0085141D01*
X0181551Y0085350D01*
X0181685Y0085556D01*
X0181824Y0085758D01*
X0181968Y0085957D01*
X0182117Y0086152D01*
X0182270Y0086344D01*
X0182428Y0086532D01*
X0182590Y0086716D01*
X0182758Y0086895D01*
X0182929Y0087071D01*
X0183105Y0087242D01*
X0183284Y0087410D01*
X0183468Y0087572D01*
X0183656Y0087730D01*
X0183848Y0087883D01*
X0184043Y0088032D01*
X0184242Y0088176D01*
X0184444Y0088315D01*
X0184650Y0088449D01*
X0184859Y0088577D01*
X0185071Y0088701D01*
X0185286Y0088819D01*
X0185504Y0088932D01*
X0185724Y0089040D01*
X0185948Y0089142D01*
X0186173Y0089239D01*
X0186401Y0089330D01*
X0186631Y0089415D01*
X0186863Y0089495D01*
X0187097Y0089569D01*
X0187333Y0089638D01*
X0187570Y0089700D01*
X0187809Y0089757D01*
X0188049Y0089808D01*
X0188290Y0089853D01*
X0188533Y0089892D01*
X0188776Y0089925D01*
X0189020Y0089952D01*
X0189264Y0089973D01*
X0189509Y0089988D01*
X0189755Y0089997D01*
X0190000Y0090000D01*
X0190245Y0089997D01*
X0190491Y0089988D01*
X0190736Y0089973D01*
X0190980Y0089952D01*
X0191224Y0089925D01*
X0191467Y0089892D01*
X0191710Y0089853D01*
X0191951Y0089808D01*
X0192191Y0089757D01*
X0192430Y0089700D01*
X0192667Y0089638D01*
X0192903Y0089569D01*
X0193137Y0089495D01*
X0193369Y0089415D01*
X0193599Y0089330D01*
X0193827Y0089239D01*
X0194052Y0089142D01*
X0194276Y0089040D01*
X0194496Y0088932D01*
X0194714Y0088819D01*
X0194929Y0088701D01*
X0195141Y0088577D01*
X0195350Y0088449D01*
X0195556Y0088315D01*
X0195758Y0088176D01*
X0195957Y0088032D01*
X0196152Y0087883D01*
X0196344Y0087730D01*
X0196532Y0087572D01*
X0196716Y0087410D01*
X0196895Y0087242D01*
X0197071Y0087071D01*
X0197242Y0086895D01*
X0197410Y0086716D01*
X0197572Y0086532D01*
X0197730Y0086344D01*
X0197883Y0086152D01*
X0198032Y0085957D01*
X0198176Y0085758D01*
X0198315Y0085556D01*
X0198449Y0085350D01*
X0198577Y0085141D01*
X0198701Y0084929D01*
X0198819Y0084714D01*
X0198932Y0084496D01*
X0199040Y0084276D01*
X0199142Y0084052D01*
X0199239Y0083827D01*
X0199330Y0083599D01*
X0199415Y0083369D01*
X0199495Y0083137D01*
X0199569Y0082903D01*
X0199638Y0082667D01*
X0199700Y0082430D01*
X0199757Y0082191D01*
X0199808Y0081951D01*
X0199853Y0081710D01*
X0199892Y0081467D01*
X0199925Y0081224D01*
X0199952Y0080980D01*
X0199973Y0080736D01*
X0199988Y0080491D01*
X0199997Y0080245D01*
X0200000Y0080000D01*
X0199997Y0079755D01*
X0199988Y0079509D01*
X0199973Y0079264D01*
X0199952Y0079020D01*
X0199925Y0078776D01*
X0199892Y0078533D01*
X0199853Y0078290D01*
X0199808Y0078049D01*
X0199757Y0077809D01*
X0199700Y0077570D01*
X0199638Y0077333D01*
X0199569Y0077097D01*
X0199495Y0076863D01*
X0199415Y0076631D01*
X0199330Y0076401D01*
X0199239Y0076173D01*
X0199142Y0075948D01*
X0199040Y0075724D01*
X0198932Y0075504D01*
X0198819Y0075286D01*
X0198701Y0075071D01*
X0198577Y0074859D01*
X0198449Y0074650D01*
X0198315Y0074444D01*
X0198176Y0074242D01*
X0198032Y0074043D01*
X0197883Y0073848D01*
X0197730Y0073656D01*
X0197572Y0073468D01*
X0197410Y0073284D01*
X0197242Y0073105D01*
X0197071Y0072929D01*
X0196895Y0072758D01*
X0196716Y0072590D01*
X0196532Y0072428D01*
X0196344Y0072270D01*
X0196152Y0072117D01*
X0195957Y0071968D01*
X0195758Y0071824D01*
X0195556Y0071685D01*
X0195350Y0071551D01*
X0195141Y0071423D01*
X0194929Y0071299D01*
X0194714Y0071181D01*
X0194496Y0071068D01*
X0194276Y0070960D01*
X0194052Y0070858D01*
X0193827Y0070761D01*
X0193599Y0070670D01*
X0193369Y0070585D01*
X0193137Y0070505D01*
X0192903Y0070431D01*
X0192667Y0070362D01*
X0192430Y0070300D01*
X0192191Y0070243D01*
X0191951Y0070192D01*
X0191710Y0070147D01*
X0191467Y0070108D01*
X0191224Y0070075D01*
X0190980Y0070048D01*
X0190736Y0070027D01*
X0190491Y0070012D01*
X0190245Y0070003D01*
X0190000Y0070000D01*
X0189755Y0070003D01*
X0189509Y0070012D01*
X0189264Y0070027D01*
X0189020Y0070048D01*
X0188776Y0070075D01*
X0188533Y0070108D01*
X0188290Y0070147D01*
X0188049Y0070192D01*
X0187809Y0070243D01*
X0187570Y0070300D01*
X0187333Y0070362D01*
X0187097Y0070431D01*
X0186863Y0070505D01*
X0186631Y0070585D01*
X0186401Y0070670D01*
X0186173Y0070761D01*
X0185948Y0070858D01*
X0185724Y0070960D01*
X0185504Y0071068D01*
X0185286Y0071181D01*
X0185071Y0071299D01*
X0184859Y0071423D01*
X0184650Y0071551D01*
X0184444Y0071685D01*
X0184242Y0071824D01*
X0184043Y0071968D01*
X0183848Y0072117D01*
X0183656Y0072270D01*
X0183468Y0072428D01*
X0183284Y0072590D01*
X0183105Y0072758D01*
X0182929Y0072929D01*
X0182758Y0073105D01*
X0182590Y0073284D01*
X0182428Y0073468D01*
X0182270Y0073656D01*
X0182117Y0073848D01*
X0181968Y0074043D01*
X0181824Y0074242D01*
X0181685Y0074444D01*
X0181551Y0074650D01*
X0181423Y0074859D01*
X0181299Y0075071D01*
X0181181Y0075286D01*
X0181068Y0075504D01*
X0180960Y0075724D01*
X0180858Y0075948D01*
X0180761Y0076173D01*
X0180670Y0076401D01*
X0180585Y0076631D01*
X0180505Y0076863D01*
X0180431Y0077097D01*
X0180362Y0077333D01*
X0180300Y0077570D01*
X0180243Y0077809D01*
X0180192Y0078049D01*
X0180147Y0078290D01*
X0180108Y0078533D01*
X0180075Y0078776D01*
X0180048Y0079020D01*
X0180027Y0079264D01*
X0180012Y0079509D01*
X0180003Y0079755D01*
X0180000Y0080000D01*
X0155000Y0055000D02*
X0155003Y0055245D01*
X0155012Y0055491D01*
X0155027Y0055736D01*
X0155048Y0055980D01*
X0155075Y0056224D01*
X0155108Y0056467D01*
X0155147Y0056710D01*
X0155192Y0056951D01*
X0155243Y0057191D01*
X0155300Y0057430D01*
X0155362Y0057667D01*
X0155431Y0057903D01*
X0155505Y0058137D01*
X0155585Y0058369D01*
X0155670Y0058599D01*
X0155761Y0058827D01*
X0155858Y0059052D01*
X0155960Y0059276D01*
X0156068Y0059496D01*
X0156181Y0059714D01*
X0156299Y0059929D01*
X0156423Y0060141D01*
X0156551Y0060350D01*
X0156685Y0060556D01*
X0156824Y0060758D01*
X0156968Y0060957D01*
X0157117Y0061152D01*
X0157270Y0061344D01*
X0157428Y0061532D01*
X0157590Y0061716D01*
X0157758Y0061895D01*
X0157929Y0062071D01*
X0158105Y0062242D01*
X0158284Y0062410D01*
X0158468Y0062572D01*
X0158656Y0062730D01*
X0158848Y0062883D01*
X0159043Y0063032D01*
X0159242Y0063176D01*
X0159444Y0063315D01*
X0159650Y0063449D01*
X0159859Y0063577D01*
X0160071Y0063701D01*
X0160286Y0063819D01*
X0160504Y0063932D01*
X0160724Y0064040D01*
X0160948Y0064142D01*
X0161173Y0064239D01*
X0161401Y0064330D01*
X0161631Y0064415D01*
X0161863Y0064495D01*
X0162097Y0064569D01*
X0162333Y0064638D01*
X0162570Y0064700D01*
X0162809Y0064757D01*
X0163049Y0064808D01*
X0163290Y0064853D01*
X0163533Y0064892D01*
X0163776Y0064925D01*
X0164020Y0064952D01*
X0164264Y0064973D01*
X0164509Y0064988D01*
X0164755Y0064997D01*
X0165000Y0065000D01*
X0165245Y0064997D01*
X0165491Y0064988D01*
X0165736Y0064973D01*
X0165980Y0064952D01*
X0166224Y0064925D01*
X0166467Y0064892D01*
X0166710Y0064853D01*
X0166951Y0064808D01*
X0167191Y0064757D01*
X0167430Y0064700D01*
X0167667Y0064638D01*
X0167903Y0064569D01*
X0168137Y0064495D01*
X0168369Y0064415D01*
X0168599Y0064330D01*
X0168827Y0064239D01*
X0169052Y0064142D01*
X0169276Y0064040D01*
X0169496Y0063932D01*
X0169714Y0063819D01*
X0169929Y0063701D01*
X0170141Y0063577D01*
X0170350Y0063449D01*
X0170556Y0063315D01*
X0170758Y0063176D01*
X0170957Y0063032D01*
X0171152Y0062883D01*
X0171344Y0062730D01*
X0171532Y0062572D01*
X0171716Y0062410D01*
X0171895Y0062242D01*
X0172071Y0062071D01*
X0172242Y0061895D01*
X0172410Y0061716D01*
X0172572Y0061532D01*
X0172730Y0061344D01*
X0172883Y0061152D01*
X0173032Y0060957D01*
X0173176Y0060758D01*
X0173315Y0060556D01*
X0173449Y0060350D01*
X0173577Y0060141D01*
X0173701Y0059929D01*
X0173819Y0059714D01*
X0173932Y0059496D01*
X0174040Y0059276D01*
X0174142Y0059052D01*
X0174239Y0058827D01*
X0174330Y0058599D01*
X0174415Y0058369D01*
X0174495Y0058137D01*
X0174569Y0057903D01*
X0174638Y0057667D01*
X0174700Y0057430D01*
X0174757Y0057191D01*
X0174808Y0056951D01*
X0174853Y0056710D01*
X0174892Y0056467D01*
X0174925Y0056224D01*
X0174952Y0055980D01*
X0174973Y0055736D01*
X0174988Y0055491D01*
X0174997Y0055245D01*
X0175000Y0055000D01*
X0174997Y0054755D01*
X0174988Y0054509D01*
X0174973Y0054264D01*
X0174952Y0054020D01*
X0174925Y0053776D01*
X0174892Y0053533D01*
X0174853Y0053290D01*
X0174808Y0053049D01*
X0174757Y0052809D01*
X0174700Y0052570D01*
X0174638Y0052333D01*
X0174569Y0052097D01*
X0174495Y0051863D01*
X0174415Y0051631D01*
X0174330Y0051401D01*
X0174239Y0051173D01*
X0174142Y0050948D01*
X0174040Y0050724D01*
X0173932Y0050504D01*
X0173819Y0050286D01*
X0173701Y0050071D01*
X0173577Y0049859D01*
X0173449Y0049650D01*
X0173315Y0049444D01*
X0173176Y0049242D01*
X0173032Y0049043D01*
X0172883Y0048848D01*
X0172730Y0048656D01*
X0172572Y0048468D01*
X0172410Y0048284D01*
X0172242Y0048105D01*
X0172071Y0047929D01*
X0171895Y0047758D01*
X0171716Y0047590D01*
X0171532Y0047428D01*
X0171344Y0047270D01*
X0171152Y0047117D01*
X0170957Y0046968D01*
X0170758Y0046824D01*
X0170556Y0046685D01*
X0170350Y0046551D01*
X0170141Y0046423D01*
X0169929Y0046299D01*
X0169714Y0046181D01*
X0169496Y0046068D01*
X0169276Y0045960D01*
X0169052Y0045858D01*
X0168827Y0045761D01*
X0168599Y0045670D01*
X0168369Y0045585D01*
X0168137Y0045505D01*
X0167903Y0045431D01*
X0167667Y0045362D01*
X0167430Y0045300D01*
X0167191Y0045243D01*
X0166951Y0045192D01*
X0166710Y0045147D01*
X0166467Y0045108D01*
X0166224Y0045075D01*
X0165980Y0045048D01*
X0165736Y0045027D01*
X0165491Y0045012D01*
X0165245Y0045003D01*
X0165000Y0045000D01*
X0164755Y0045003D01*
X0164509Y0045012D01*
X0164264Y0045027D01*
X0164020Y0045048D01*
X0163776Y0045075D01*
X0163533Y0045108D01*
X0163290Y0045147D01*
X0163049Y0045192D01*
X0162809Y0045243D01*
X0162570Y0045300D01*
X0162333Y0045362D01*
X0162097Y0045431D01*
X0161863Y0045505D01*
X0161631Y0045585D01*
X0161401Y0045670D01*
X0161173Y0045761D01*
X0160948Y0045858D01*
X0160724Y0045960D01*
X0160504Y0046068D01*
X0160286Y0046181D01*
X0160071Y0046299D01*
X0159859Y0046423D01*
X0159650Y0046551D01*
X0159444Y0046685D01*
X0159242Y0046824D01*
X0159043Y0046968D01*
X0158848Y0047117D01*
X0158656Y0047270D01*
X0158468Y0047428D01*
X0158284Y0047590D01*
X0158105Y0047758D01*
X0157929Y0047929D01*
X0157758Y0048105D01*
X0157590Y0048284D01*
X0157428Y0048468D01*
X0157270Y0048656D01*
X0157117Y0048848D01*
X0156968Y0049043D01*
X0156824Y0049242D01*
X0156685Y0049444D01*
X0156551Y0049650D01*
X0156423Y0049859D01*
X0156299Y0050071D01*
X0156181Y0050286D01*
X0156068Y0050504D01*
X0155960Y0050724D01*
X0155858Y0050948D01*
X0155761Y0051173D01*
X0155670Y0051401D01*
X0155585Y0051631D01*
X0155505Y0051863D01*
X0155431Y0052097D01*
X0155362Y0052333D01*
X0155300Y0052570D01*
X0155243Y0052809D01*
X0155192Y0053049D01*
X0155147Y0053290D01*
X0155108Y0053533D01*
X0155075Y0053776D01*
X0155048Y0054020D01*
X0155027Y0054264D01*
X0155012Y0054509D01*
X0155003Y0054755D01*
X0155000Y0055000D01*
X0180000Y0030000D02*
X0180003Y0030245D01*
X0180012Y0030491D01*
X0180027Y0030736D01*
X0180048Y0030980D01*
X0180075Y0031224D01*
X0180108Y0031467D01*
X0180147Y0031710D01*
X0180192Y0031951D01*
X0180243Y0032191D01*
X0180300Y0032430D01*
X0180362Y0032667D01*
X0180431Y0032903D01*
X0180505Y0033137D01*
X0180585Y0033369D01*
X0180670Y0033599D01*
X0180761Y0033827D01*
X0180858Y0034052D01*
X0180960Y0034276D01*
X0181068Y0034496D01*
X0181181Y0034714D01*
X0181299Y0034929D01*
X0181423Y0035141D01*
X0181551Y0035350D01*
X0181685Y0035556D01*
X0181824Y0035758D01*
X0181968Y0035957D01*
X0182117Y0036152D01*
X0182270Y0036344D01*
X0182428Y0036532D01*
X0182590Y0036716D01*
X0182758Y0036895D01*
X0182929Y0037071D01*
X0183105Y0037242D01*
X0183284Y0037410D01*
X0183468Y0037572D01*
X0183656Y0037730D01*
X0183848Y0037883D01*
X0184043Y0038032D01*
X0184242Y0038176D01*
X0184444Y0038315D01*
X0184650Y0038449D01*
X0184859Y0038577D01*
X0185071Y0038701D01*
X0185286Y0038819D01*
X0185504Y0038932D01*
X0185724Y0039040D01*
X0185948Y0039142D01*
X0186173Y0039239D01*
X0186401Y0039330D01*
X0186631Y0039415D01*
X0186863Y0039495D01*
X0187097Y0039569D01*
X0187333Y0039638D01*
X0187570Y0039700D01*
X0187809Y0039757D01*
X0188049Y0039808D01*
X0188290Y0039853D01*
X0188533Y0039892D01*
X0188776Y0039925D01*
X0189020Y0039952D01*
X0189264Y0039973D01*
X0189509Y0039988D01*
X0189755Y0039997D01*
X0190000Y0040000D01*
X0190245Y0039997D01*
X0190491Y0039988D01*
X0190736Y0039973D01*
X0190980Y0039952D01*
X0191224Y0039925D01*
X0191467Y0039892D01*
X0191710Y0039853D01*
X0191951Y0039808D01*
X0192191Y0039757D01*
X0192430Y0039700D01*
X0192667Y0039638D01*
X0192903Y0039569D01*
X0193137Y0039495D01*
X0193369Y0039415D01*
X0193599Y0039330D01*
X0193827Y0039239D01*
X0194052Y0039142D01*
X0194276Y0039040D01*
X0194496Y0038932D01*
X0194714Y0038819D01*
X0194929Y0038701D01*
X0195141Y0038577D01*
X0195350Y0038449D01*
X0195556Y0038315D01*
X0195758Y0038176D01*
X0195957Y0038032D01*
X0196152Y0037883D01*
X0196344Y0037730D01*
X0196532Y0037572D01*
X0196716Y0037410D01*
X0196895Y0037242D01*
X0197071Y0037071D01*
X0197242Y0036895D01*
X0197410Y0036716D01*
X0197572Y0036532D01*
X0197730Y0036344D01*
X0197883Y0036152D01*
X0198032Y0035957D01*
X0198176Y0035758D01*
X0198315Y0035556D01*
X0198449Y0035350D01*
X0198577Y0035141D01*
X0198701Y0034929D01*
X0198819Y0034714D01*
X0198932Y0034496D01*
X0199040Y0034276D01*
X0199142Y0034052D01*
X0199239Y0033827D01*
X0199330Y0033599D01*
X0199415Y0033369D01*
X0199495Y0033137D01*
X0199569Y0032903D01*
X0199638Y0032667D01*
X0199700Y0032430D01*
X0199757Y0032191D01*
X0199808Y0031951D01*
X0199853Y0031710D01*
X0199892Y0031467D01*
X0199925Y0031224D01*
X0199952Y0030980D01*
X0199973Y0030736D01*
X0199988Y0030491D01*
X0199997Y0030245D01*
X0200000Y0030000D01*
X0199997Y0029755D01*
X0199988Y0029509D01*
X0199973Y0029264D01*
X0199952Y0029020D01*
X0199925Y0028776D01*
X0199892Y0028533D01*
X0199853Y0028290D01*
X0199808Y0028049D01*
X0199757Y0027809D01*
X0199700Y0027570D01*
X0199638Y0027333D01*
X0199569Y0027097D01*
X0199495Y0026863D01*
X0199415Y0026631D01*
X0199330Y0026401D01*
X0199239Y0026173D01*
X0199142Y0025948D01*
X0199040Y0025724D01*
X0198932Y0025504D01*
X0198819Y0025286D01*
X0198701Y0025071D01*
X0198577Y0024859D01*
X0198449Y0024650D01*
X0198315Y0024444D01*
X0198176Y0024242D01*
X0198032Y0024043D01*
X0197883Y0023848D01*
X0197730Y0023656D01*
X0197572Y0023468D01*
X0197410Y0023284D01*
X0197242Y0023105D01*
X0197071Y0022929D01*
X0196895Y0022758D01*
X0196716Y0022590D01*
X0196532Y0022428D01*
X0196344Y0022270D01*
X0196152Y0022117D01*
X0195957Y0021968D01*
X0195758Y0021824D01*
X0195556Y0021685D01*
X0195350Y0021551D01*
X0195141Y0021423D01*
X0194929Y0021299D01*
X0194714Y0021181D01*
X0194496Y0021068D01*
X0194276Y0020960D01*
X0194052Y0020858D01*
X0193827Y0020761D01*
X0193599Y0020670D01*
X0193369Y0020585D01*
X0193137Y0020505D01*
X0192903Y0020431D01*
X0192667Y0020362D01*
X0192430Y0020300D01*
X0192191Y0020243D01*
X0191951Y0020192D01*
X0191710Y0020147D01*
X0191467Y0020108D01*
X0191224Y0020075D01*
X0190980Y0020048D01*
X0190736Y0020027D01*
X0190491Y0020012D01*
X0190245Y0020003D01*
X0190000Y0020000D01*
X0189755Y0020003D01*
X0189509Y0020012D01*
X0189264Y0020027D01*
X0189020Y0020048D01*
X0188776Y0020075D01*
X0188533Y0020108D01*
X0188290Y0020147D01*
X0188049Y0020192D01*
X0187809Y0020243D01*
X0187570Y0020300D01*
X0187333Y0020362D01*
X0187097Y0020431D01*
X0186863Y0020505D01*
X0186631Y0020585D01*
X0186401Y0020670D01*
X0186173Y0020761D01*
X0185948Y0020858D01*
X0185724Y0020960D01*
X0185504Y0021068D01*
X0185286Y0021181D01*
X0185071Y0021299D01*
X0184859Y0021423D01*
X0184650Y0021551D01*
X0184444Y0021685D01*
X0184242Y0021824D01*
X0184043Y0021968D01*
X0183848Y0022117D01*
X0183656Y0022270D01*
X0183468Y0022428D01*
X0183284Y0022590D01*
X0183105Y0022758D01*
X0182929Y0022929D01*
X0182758Y0023105D01*
X0182590Y0023284D01*
X0182428Y0023468D01*
X0182270Y0023656D01*
X0182117Y0023848D01*
X0181968Y0024043D01*
X0181824Y0024242D01*
X0181685Y0024444D01*
X0181551Y0024650D01*
X0181423Y0024859D01*
X0181299Y0025071D01*
X0181181Y0025286D01*
X0181068Y0025504D01*
X0180960Y0025724D01*
X0180858Y0025948D01*
X0180761Y0026173D01*
X0180670Y0026401D01*
X0180585Y0026631D01*
X0180505Y0026863D01*
X0180431Y0027097D01*
X0180362Y0027333D01*
X0180300Y0027570D01*
X0180243Y0027809D01*
X0180192Y0028049D01*
X0180147Y0028290D01*
X0180108Y0028533D01*
X0180075Y0028776D01*
X0180048Y0029020D01*
X0180027Y0029264D01*
X0180012Y0029509D01*
X0180003Y0029755D01*
X0180000Y0030000D01*
X0205000Y0055000D02*
X0205003Y0055245D01*
X0205012Y0055491D01*
X0205027Y0055736D01*
X0205048Y0055980D01*
X0205075Y0056224D01*
X0205108Y0056467D01*
X0205147Y0056710D01*
X0205192Y0056951D01*
X0205243Y0057191D01*
X0205300Y0057430D01*
X0205362Y0057667D01*
X0205431Y0057903D01*
X0205505Y0058137D01*
X0205585Y0058369D01*
X0205670Y0058599D01*
X0205761Y0058827D01*
X0205858Y0059052D01*
X0205960Y0059276D01*
X0206068Y0059496D01*
X0206181Y0059714D01*
X0206299Y0059929D01*
X0206423Y0060141D01*
X0206551Y0060350D01*
X0206685Y0060556D01*
X0206824Y0060758D01*
X0206968Y0060957D01*
X0207117Y0061152D01*
X0207270Y0061344D01*
X0207428Y0061532D01*
X0207590Y0061716D01*
X0207758Y0061895D01*
X0207929Y0062071D01*
X0208105Y0062242D01*
X0208284Y0062410D01*
X0208468Y0062572D01*
X0208656Y0062730D01*
X0208848Y0062883D01*
X0209043Y0063032D01*
X0209242Y0063176D01*
X0209444Y0063315D01*
X0209650Y0063449D01*
X0209859Y0063577D01*
X0210071Y0063701D01*
X0210286Y0063819D01*
X0210504Y0063932D01*
X0210724Y0064040D01*
X0210948Y0064142D01*
X0211173Y0064239D01*
X0211401Y0064330D01*
X0211631Y0064415D01*
X0211863Y0064495D01*
X0212097Y0064569D01*
X0212333Y0064638D01*
X0212570Y0064700D01*
X0212809Y0064757D01*
X0213049Y0064808D01*
X0213290Y0064853D01*
X0213533Y0064892D01*
X0213776Y0064925D01*
X0214020Y0064952D01*
X0214264Y0064973D01*
X0214509Y0064988D01*
X0214755Y0064997D01*
X0215000Y0065000D01*
X0215245Y0064997D01*
X0215491Y0064988D01*
X0215736Y0064973D01*
X0215980Y0064952D01*
X0216224Y0064925D01*
X0216467Y0064892D01*
X0216710Y0064853D01*
X0216951Y0064808D01*
X0217191Y0064757D01*
X0217430Y0064700D01*
X0217667Y0064638D01*
X0217903Y0064569D01*
X0218137Y0064495D01*
X0218369Y0064415D01*
X0218599Y0064330D01*
X0218827Y0064239D01*
X0219052Y0064142D01*
X0219276Y0064040D01*
X0219496Y0063932D01*
X0219714Y0063819D01*
X0219929Y0063701D01*
X0220141Y0063577D01*
X0220350Y0063449D01*
X0220556Y0063315D01*
X0220758Y0063176D01*
X0220957Y0063032D01*
X0221152Y0062883D01*
X0221344Y0062730D01*
X0221532Y0062572D01*
X0221716Y0062410D01*
X0221895Y0062242D01*
X0222071Y0062071D01*
X0222242Y0061895D01*
X0222410Y0061716D01*
X0222572Y0061532D01*
X0222730Y0061344D01*
X0222883Y0061152D01*
X0223032Y0060957D01*
X0223176Y0060758D01*
X0223315Y0060556D01*
X0223449Y0060350D01*
X0223577Y0060141D01*
X0223701Y0059929D01*
X0223819Y0059714D01*
X0223932Y0059496D01*
X0224040Y0059276D01*
X0224142Y0059052D01*
X0224239Y0058827D01*
X0224330Y0058599D01*
X0224415Y0058369D01*
X0224495Y0058137D01*
X0224569Y0057903D01*
X0224638Y0057667D01*
X0224700Y0057430D01*
X0224757Y0057191D01*
X0224808Y0056951D01*
X0224853Y0056710D01*
X0224892Y0056467D01*
X0224925Y0056224D01*
X0224952Y0055980D01*
X0224973Y0055736D01*
X0224988Y0055491D01*
X0224997Y0055245D01*
X0225000Y0055000D01*
X0224997Y0054755D01*
X0224988Y0054509D01*
X0224973Y0054264D01*
X0224952Y0054020D01*
X0224925Y0053776D01*
X0224892Y0053533D01*
X0224853Y0053290D01*
X0224808Y0053049D01*
X0224757Y0052809D01*
X0224700Y0052570D01*
X0224638Y0052333D01*
X0224569Y0052097D01*
X0224495Y0051863D01*
X0224415Y0051631D01*
X0224330Y0051401D01*
X0224239Y0051173D01*
X0224142Y0050948D01*
X0224040Y0050724D01*
X0223932Y0050504D01*
X0223819Y0050286D01*
X0223701Y0050071D01*
X0223577Y0049859D01*
X0223449Y0049650D01*
X0223315Y0049444D01*
X0223176Y0049242D01*
X0223032Y0049043D01*
X0222883Y0048848D01*
X0222730Y0048656D01*
X0222572Y0048468D01*
X0222410Y0048284D01*
X0222242Y0048105D01*
X0222071Y0047929D01*
X0221895Y0047758D01*
X0221716Y0047590D01*
X0221532Y0047428D01*
X0221344Y0047270D01*
X0221152Y0047117D01*
X0220957Y0046968D01*
X0220758Y0046824D01*
X0220556Y0046685D01*
X0220350Y0046551D01*
X0220141Y0046423D01*
X0219929Y0046299D01*
X0219714Y0046181D01*
X0219496Y0046068D01*
X0219276Y0045960D01*
X0219052Y0045858D01*
X0218827Y0045761D01*
X0218599Y0045670D01*
X0218369Y0045585D01*
X0218137Y0045505D01*
X0217903Y0045431D01*
X0217667Y0045362D01*
X0217430Y0045300D01*
X0217191Y0045243D01*
X0216951Y0045192D01*
X0216710Y0045147D01*
X0216467Y0045108D01*
X0216224Y0045075D01*
X0215980Y0045048D01*
X0215736Y0045027D01*
X0215491Y0045012D01*
X0215245Y0045003D01*
X0215000Y0045000D01*
X0214755Y0045003D01*
X0214509Y0045012D01*
X0214264Y0045027D01*
X0214020Y0045048D01*
X0213776Y0045075D01*
X0213533Y0045108D01*
X0213290Y0045147D01*
X0213049Y0045192D01*
X0212809Y0045243D01*
X0212570Y0045300D01*
X0212333Y0045362D01*
X0212097Y0045431D01*
X0211863Y0045505D01*
X0211631Y0045585D01*
X0211401Y0045670D01*
X0211173Y0045761D01*
X0210948Y0045858D01*
X0210724Y0045960D01*
X0210504Y0046068D01*
X0210286Y0046181D01*
X0210071Y0046299D01*
X0209859Y0046423D01*
X0209650Y0046551D01*
X0209444Y0046685D01*
X0209242Y0046824D01*
X0209043Y0046968D01*
X0208848Y0047117D01*
X0208656Y0047270D01*
X0208468Y0047428D01*
X0208284Y0047590D01*
X0208105Y0047758D01*
X0207929Y0047929D01*
X0207758Y0048105D01*
X0207590Y0048284D01*
X0207428Y0048468D01*
X0207270Y0048656D01*
X0207117Y0048848D01*
X0206968Y0049043D01*
X0206824Y0049242D01*
X0206685Y0049444D01*
X0206551Y0049650D01*
X0206423Y0049859D01*
X0206299Y0050071D01*
X0206181Y0050286D01*
X0206068Y0050504D01*
X0205960Y0050724D01*
X0205858Y0050948D01*
X0205761Y0051173D01*
X0205670Y0051401D01*
X0205585Y0051631D01*
X0205505Y0051863D01*
X0205431Y0052097D01*
X0205362Y0052333D01*
X0205300Y0052570D01*
X0205243Y0052809D01*
X0205192Y0053049D01*
X0205147Y0053290D01*
X0205108Y0053533D01*
X0205075Y0053776D01*
X0205048Y0054020D01*
X0205027Y0054264D01*
X0205012Y0054509D01*
X0205003Y0054755D01*
X0205000Y0055000D01*
D14*
X0191690Y0059850D02*
X0190690Y0059850D01*
X0191690Y0059850D02*
X0191752Y0059852D01*
X0191813Y0059858D01*
X0191874Y0059867D01*
X0191934Y0059880D01*
X0191993Y0059897D01*
X0192051Y0059918D01*
X0192108Y0059942D01*
X0192163Y0059969D01*
X0192216Y0060000D01*
X0192268Y0060034D01*
X0192317Y0060071D01*
X0192364Y0060111D01*
X0192408Y0060154D01*
X0192449Y0060199D01*
X0192488Y0060247D01*
X0192524Y0060298D01*
X0192556Y0060350D01*
X0192585Y0060404D01*
X0192611Y0060460D01*
X0192633Y0060518D01*
X0192652Y0060576D01*
X0192667Y0060636D01*
X0192678Y0060697D01*
X0192686Y0060758D01*
X0192690Y0060819D01*
X0192690Y0060881D01*
X0192686Y0060942D01*
X0192678Y0061003D01*
X0192667Y0061064D01*
X0192652Y0061124D01*
X0192633Y0061182D01*
X0192611Y0061240D01*
X0192585Y0061296D01*
X0192556Y0061350D01*
X0192524Y0061402D01*
X0192488Y0061453D01*
X0192449Y0061501D01*
X0192408Y0061546D01*
X0192364Y0061589D01*
X0192317Y0061629D01*
X0192268Y0061666D01*
X0192216Y0061700D01*
X0192163Y0061731D01*
X0192108Y0061758D01*
X0192051Y0061782D01*
X0191993Y0061803D01*
X0191934Y0061820D01*
X0191874Y0061833D01*
X0191813Y0061842D01*
X0191752Y0061848D01*
X0191690Y0061850D01*
X0190190Y0061850D01*
X0188040Y0060600D02*
X0188040Y0058600D01*
X0188038Y0058532D01*
X0188033Y0058465D01*
X0188024Y0058398D01*
X0188011Y0058331D01*
X0187994Y0058266D01*
X0187975Y0058201D01*
X0187951Y0058137D01*
X0187924Y0058075D01*
X0187894Y0058014D01*
X0187861Y0057956D01*
X0187825Y0057899D01*
X0187785Y0057844D01*
X0187743Y0057791D01*
X0187697Y0057740D01*
X0187650Y0057693D01*
X0187599Y0057647D01*
X0187546Y0057605D01*
X0187491Y0057565D01*
X0187434Y0057529D01*
X0187376Y0057496D01*
X0187315Y0057466D01*
X0187253Y0057439D01*
X0187189Y0057415D01*
X0187124Y0057396D01*
X0187059Y0057379D01*
X0186992Y0057366D01*
X0186925Y0057357D01*
X0186858Y0057352D01*
X0186790Y0057350D01*
X0185540Y0057350D01*
X0185540Y0061850D01*
X0186790Y0061850D01*
X0186858Y0061848D01*
X0186925Y0061843D01*
X0186992Y0061834D01*
X0187059Y0061821D01*
X0187124Y0061804D01*
X0187189Y0061785D01*
X0187253Y0061761D01*
X0187315Y0061734D01*
X0187376Y0061704D01*
X0187434Y0061671D01*
X0187491Y0061635D01*
X0187546Y0061595D01*
X0187599Y0061553D01*
X0187650Y0061507D01*
X0187697Y0061460D01*
X0187743Y0061409D01*
X0187785Y0061356D01*
X0187825Y0061301D01*
X0187861Y0061244D01*
X0187894Y0061186D01*
X0187924Y0061125D01*
X0187951Y0061063D01*
X0187975Y0060999D01*
X0187994Y0060934D01*
X0188011Y0060869D01*
X0188024Y0060802D01*
X0188033Y0060735D01*
X0188038Y0060668D01*
X0188040Y0060600D01*
X0191440Y0059850D02*
X0191509Y0059848D01*
X0191578Y0059842D01*
X0191646Y0059833D01*
X0191713Y0059820D01*
X0191780Y0059803D01*
X0191846Y0059782D01*
X0191910Y0059758D01*
X0191973Y0059730D01*
X0192035Y0059699D01*
X0192095Y0059665D01*
X0192152Y0059627D01*
X0192208Y0059586D01*
X0192261Y0059543D01*
X0192312Y0059496D01*
X0192360Y0059447D01*
X0192405Y0059395D01*
X0192447Y0059340D01*
X0192486Y0059284D01*
X0192523Y0059225D01*
X0192555Y0059164D01*
X0192585Y0059102D01*
X0192611Y0059038D01*
X0192633Y0058973D01*
X0192652Y0058907D01*
X0192667Y0058840D01*
X0192678Y0058772D01*
X0192686Y0058703D01*
X0192690Y0058634D01*
X0192690Y0058566D01*
X0192686Y0058497D01*
X0192678Y0058428D01*
X0192667Y0058360D01*
X0192652Y0058293D01*
X0192633Y0058227D01*
X0192611Y0058162D01*
X0192585Y0058098D01*
X0192555Y0058036D01*
X0192523Y0057975D01*
X0192486Y0057916D01*
X0192447Y0057860D01*
X0192405Y0057805D01*
X0192360Y0057753D01*
X0192312Y0057704D01*
X0192261Y0057657D01*
X0192208Y0057614D01*
X0192152Y0057573D01*
X0192095Y0057535D01*
X0192035Y0057501D01*
X0191973Y0057470D01*
X0191910Y0057442D01*
X0191846Y0057418D01*
X0191780Y0057397D01*
X0191713Y0057380D01*
X0191646Y0057367D01*
X0191578Y0057358D01*
X0191509Y0057352D01*
X0191440Y0057350D01*
X0190190Y0057350D01*
X0183650Y0057350D02*
X0181650Y0057350D01*
X0181650Y0061850D01*
X0183650Y0061850D01*
X0183150Y0059850D02*
X0181650Y0059850D01*
X0179750Y0057350D02*
X0177750Y0057350D01*
X0177750Y0061850D01*
X0202750Y0082350D02*
X0204750Y0082350D01*
X0206650Y0082350D02*
X0206650Y0086850D01*
X0208650Y0086850D01*
X0210540Y0086850D02*
X0211790Y0086850D01*
X0211858Y0086848D01*
X0211925Y0086843D01*
X0211992Y0086834D01*
X0212059Y0086821D01*
X0212124Y0086804D01*
X0212189Y0086785D01*
X0212253Y0086761D01*
X0212315Y0086734D01*
X0212376Y0086704D01*
X0212434Y0086671D01*
X0212491Y0086635D01*
X0212546Y0086595D01*
X0212599Y0086553D01*
X0212650Y0086507D01*
X0212697Y0086460D01*
X0212743Y0086409D01*
X0212785Y0086356D01*
X0212825Y0086301D01*
X0212861Y0086244D01*
X0212894Y0086186D01*
X0212924Y0086125D01*
X0212951Y0086063D01*
X0212975Y0085999D01*
X0212994Y0085934D01*
X0213011Y0085869D01*
X0213024Y0085802D01*
X0213033Y0085735D01*
X0213038Y0085668D01*
X0213040Y0085600D01*
X0213040Y0083600D01*
X0213038Y0083532D01*
X0213033Y0083465D01*
X0213024Y0083398D01*
X0213011Y0083331D01*
X0212994Y0083266D01*
X0212975Y0083201D01*
X0212951Y0083137D01*
X0212924Y0083075D01*
X0212894Y0083014D01*
X0212861Y0082956D01*
X0212825Y0082899D01*
X0212785Y0082844D01*
X0212743Y0082791D01*
X0212697Y0082740D01*
X0212650Y0082693D01*
X0212599Y0082647D01*
X0212546Y0082605D01*
X0212491Y0082565D01*
X0212434Y0082529D01*
X0212376Y0082496D01*
X0212315Y0082466D01*
X0212253Y0082439D01*
X0212189Y0082415D01*
X0212124Y0082396D01*
X0212059Y0082379D01*
X0211992Y0082366D01*
X0211925Y0082357D01*
X0211858Y0082352D01*
X0211790Y0082350D01*
X0210540Y0082350D01*
X0210540Y0086850D01*
X0208150Y0084850D02*
X0206650Y0084850D01*
X0202750Y0086850D02*
X0202750Y0082350D01*
X0206650Y0082350D02*
X0208650Y0082350D01*
X0215190Y0082350D02*
X0217690Y0082350D01*
X0216440Y0082350D02*
X0216440Y0086850D01*
X0215190Y0085850D01*
X0232953Y0099331D02*
X0232953Y0119331D01*
X0032953Y0119331D01*
X0032953Y0109331D01*
X0042953Y0109331D01*
X0042953Y0099331D01*
X0232953Y0099331D01*
X0233650Y0061850D02*
X0231650Y0061850D01*
X0231650Y0057350D01*
X0233650Y0057350D01*
X0235540Y0057350D02*
X0236790Y0057350D01*
X0236858Y0057352D01*
X0236925Y0057357D01*
X0236992Y0057366D01*
X0237059Y0057379D01*
X0237124Y0057396D01*
X0237189Y0057415D01*
X0237253Y0057439D01*
X0237315Y0057466D01*
X0237376Y0057496D01*
X0237434Y0057529D01*
X0237491Y0057565D01*
X0237546Y0057605D01*
X0237599Y0057647D01*
X0237650Y0057693D01*
X0237697Y0057740D01*
X0237743Y0057791D01*
X0237785Y0057844D01*
X0237825Y0057899D01*
X0237861Y0057956D01*
X0237894Y0058014D01*
X0237924Y0058075D01*
X0237951Y0058137D01*
X0237975Y0058201D01*
X0237994Y0058266D01*
X0238011Y0058331D01*
X0238024Y0058398D01*
X0238033Y0058465D01*
X0238038Y0058532D01*
X0238040Y0058600D01*
X0238040Y0060600D01*
X0238038Y0060668D01*
X0238033Y0060735D01*
X0238024Y0060802D01*
X0238011Y0060869D01*
X0237994Y0060934D01*
X0237975Y0060999D01*
X0237951Y0061063D01*
X0237924Y0061125D01*
X0237894Y0061186D01*
X0237861Y0061244D01*
X0237825Y0061301D01*
X0237785Y0061356D01*
X0237743Y0061409D01*
X0237697Y0061460D01*
X0237650Y0061507D01*
X0237599Y0061553D01*
X0237546Y0061595D01*
X0237491Y0061635D01*
X0237434Y0061671D01*
X0237376Y0061704D01*
X0237315Y0061734D01*
X0237253Y0061761D01*
X0237189Y0061785D01*
X0237124Y0061804D01*
X0237059Y0061821D01*
X0236992Y0061834D01*
X0236925Y0061843D01*
X0236858Y0061848D01*
X0236790Y0061850D01*
X0235540Y0061850D01*
X0235540Y0057350D01*
X0233150Y0059850D02*
X0231650Y0059850D01*
X0229750Y0057350D02*
X0227750Y0057350D01*
X0227750Y0061850D01*
X0240190Y0057350D02*
X0242690Y0057350D01*
X0240190Y0057350D02*
X0242315Y0059850D01*
X0241565Y0061850D02*
X0241492Y0061848D01*
X0241420Y0061843D01*
X0241348Y0061834D01*
X0241276Y0061821D01*
X0241205Y0061805D01*
X0241135Y0061785D01*
X0241067Y0061761D01*
X0240999Y0061735D01*
X0240933Y0061704D01*
X0240868Y0061671D01*
X0240806Y0061634D01*
X0240745Y0061595D01*
X0240686Y0061552D01*
X0240629Y0061506D01*
X0240575Y0061458D01*
X0240524Y0061407D01*
X0240474Y0061353D01*
X0240428Y0061297D01*
X0240385Y0061239D01*
X0240344Y0061178D01*
X0240307Y0061116D01*
X0240273Y0061052D01*
X0240242Y0060986D01*
X0240214Y0060919D01*
X0240190Y0060850D01*
X0242315Y0059850D02*
X0242361Y0059896D01*
X0242405Y0059945D01*
X0242445Y0059996D01*
X0242483Y0060049D01*
X0242518Y0060104D01*
X0242550Y0060161D01*
X0242579Y0060219D01*
X0242605Y0060279D01*
X0242627Y0060341D01*
X0242646Y0060403D01*
X0242662Y0060466D01*
X0242674Y0060530D01*
X0242683Y0060595D01*
X0242688Y0060660D01*
X0242690Y0060725D01*
X0242688Y0060790D01*
X0242682Y0060856D01*
X0242673Y0060920D01*
X0242660Y0060984D01*
X0242643Y0061048D01*
X0242622Y0061110D01*
X0242598Y0061171D01*
X0242570Y0061230D01*
X0242539Y0061288D01*
X0242505Y0061343D01*
X0242467Y0061397D01*
X0242427Y0061448D01*
X0242383Y0061497D01*
X0242337Y0061543D01*
X0242288Y0061587D01*
X0242237Y0061627D01*
X0242183Y0061665D01*
X0242128Y0061699D01*
X0242070Y0061730D01*
X0242011Y0061758D01*
X0241950Y0061782D01*
X0241888Y0061803D01*
X0241824Y0061820D01*
X0241760Y0061833D01*
X0241696Y0061842D01*
X0241630Y0061848D01*
X0241565Y0061850D01*
X0216190Y0036850D02*
X0215190Y0033350D01*
X0217690Y0033350D01*
X0216940Y0034350D02*
X0216940Y0032350D01*
X0213040Y0033600D02*
X0213040Y0035600D01*
X0213038Y0035668D01*
X0213033Y0035735D01*
X0213024Y0035802D01*
X0213011Y0035869D01*
X0212994Y0035934D01*
X0212975Y0035999D01*
X0212951Y0036063D01*
X0212924Y0036125D01*
X0212894Y0036186D01*
X0212861Y0036244D01*
X0212825Y0036301D01*
X0212785Y0036356D01*
X0212743Y0036409D01*
X0212697Y0036460D01*
X0212650Y0036507D01*
X0212599Y0036553D01*
X0212546Y0036595D01*
X0212491Y0036635D01*
X0212434Y0036671D01*
X0212376Y0036704D01*
X0212315Y0036734D01*
X0212253Y0036761D01*
X0212189Y0036785D01*
X0212124Y0036804D01*
X0212059Y0036821D01*
X0211992Y0036834D01*
X0211925Y0036843D01*
X0211858Y0036848D01*
X0211790Y0036850D01*
X0210540Y0036850D01*
X0210540Y0032350D01*
X0211790Y0032350D01*
X0211858Y0032352D01*
X0211925Y0032357D01*
X0211992Y0032366D01*
X0212059Y0032379D01*
X0212124Y0032396D01*
X0212189Y0032415D01*
X0212253Y0032439D01*
X0212315Y0032466D01*
X0212376Y0032496D01*
X0212434Y0032529D01*
X0212491Y0032565D01*
X0212546Y0032605D01*
X0212599Y0032647D01*
X0212650Y0032693D01*
X0212697Y0032740D01*
X0212743Y0032791D01*
X0212785Y0032844D01*
X0212825Y0032899D01*
X0212861Y0032956D01*
X0212894Y0033014D01*
X0212924Y0033075D01*
X0212951Y0033137D01*
X0212975Y0033201D01*
X0212994Y0033266D01*
X0213011Y0033331D01*
X0213024Y0033398D01*
X0213033Y0033465D01*
X0213038Y0033532D01*
X0213040Y0033600D01*
X0208650Y0032350D02*
X0206650Y0032350D01*
X0206650Y0036850D01*
X0208650Y0036850D01*
X0208150Y0034850D02*
X0206650Y0034850D01*
X0204750Y0032350D02*
X0202750Y0032350D01*
X0202750Y0036850D01*
X0042953Y0099331D02*
X0039203Y0099331D01*
X0039203Y0098081D01*
X0036703Y0098081D01*
X0036703Y0099331D01*
X0039203Y0099331D01*
X0036703Y0099331D02*
X0032953Y0099331D01*
X0032953Y0109331D01*
D15*
X0037903Y0096881D02*
X0037903Y0093281D01*
X0036903Y0093281D02*
X0038903Y0093281D01*
X0036903Y0096081D02*
X0037903Y0096881D01*
X0043984Y0076406D02*
X0043984Y0073084D01*
X0043986Y0073014D01*
X0043992Y0072943D01*
X0044001Y0072874D01*
X0044015Y0072805D01*
X0044032Y0072736D01*
X0044053Y0072669D01*
X0044078Y0072603D01*
X0044106Y0072539D01*
X0044138Y0072476D01*
X0044173Y0072415D01*
X0044212Y0072356D01*
X0044253Y0072299D01*
X0044298Y0072245D01*
X0044346Y0072193D01*
X0044396Y0072144D01*
X0044450Y0072097D01*
X0044505Y0072054D01*
X0044563Y0072014D01*
X0044623Y0071977D01*
X0044685Y0071944D01*
X0044749Y0071914D01*
X0044814Y0071887D01*
X0044880Y0071864D01*
X0044948Y0071845D01*
X0045017Y0071830D01*
X0045086Y0071818D01*
X0045156Y0071810D01*
X0045227Y0071806D01*
X0045297Y0071806D01*
X0045368Y0071810D01*
X0045438Y0071818D01*
X0045507Y0071830D01*
X0045576Y0071845D01*
X0045644Y0071864D01*
X0045710Y0071887D01*
X0045775Y0071914D01*
X0045839Y0071944D01*
X0045901Y0071977D01*
X0045961Y0072014D01*
X0046019Y0072054D01*
X0046074Y0072097D01*
X0046128Y0072144D01*
X0046178Y0072193D01*
X0046226Y0072245D01*
X0046271Y0072299D01*
X0046312Y0072356D01*
X0046351Y0072415D01*
X0046386Y0072476D01*
X0046418Y0072539D01*
X0046446Y0072603D01*
X0046471Y0072669D01*
X0046492Y0072736D01*
X0046509Y0072805D01*
X0046523Y0072874D01*
X0046532Y0072943D01*
X0046538Y0073014D01*
X0046540Y0073084D01*
X0046539Y0073084D02*
X0046539Y0076406D01*
X0048634Y0075384D02*
X0049912Y0076406D01*
X0049912Y0071806D01*
X0051189Y0071806D02*
X0048634Y0071806D01*
X0070200Y0065993D02*
X0070202Y0066060D01*
X0070208Y0066127D01*
X0070217Y0066193D01*
X0070231Y0066258D01*
X0070248Y0066323D01*
X0070269Y0066386D01*
X0070294Y0066448D01*
X0070322Y0066509D01*
X0070354Y0066568D01*
X0070389Y0066625D01*
X0070428Y0066680D01*
X0070469Y0066732D01*
X0070514Y0066782D01*
X0070561Y0066829D01*
X0070611Y0066874D01*
X0070663Y0066915D01*
X0070718Y0066954D01*
X0070775Y0066989D01*
X0070834Y0067021D01*
X0070895Y0067049D01*
X0070957Y0067074D01*
X0071020Y0067095D01*
X0071085Y0067112D01*
X0071150Y0067126D01*
X0071216Y0067135D01*
X0071283Y0067141D01*
X0071350Y0067143D01*
X0072244Y0066760D02*
X0074800Y0064587D01*
X0074800Y0067143D01*
X0071222Y0064588D02*
X0071152Y0064613D01*
X0071083Y0064641D01*
X0071016Y0064672D01*
X0070950Y0064707D01*
X0070887Y0064745D01*
X0070825Y0064787D01*
X0070765Y0064831D01*
X0070708Y0064878D01*
X0070653Y0064928D01*
X0070601Y0064981D01*
X0070551Y0065037D01*
X0070505Y0065094D01*
X0070461Y0065155D01*
X0070420Y0065217D01*
X0070383Y0065281D01*
X0070349Y0065347D01*
X0070318Y0065415D01*
X0070291Y0065484D01*
X0070267Y0065554D01*
X0070246Y0065625D01*
X0070230Y0065698D01*
X0070217Y0065771D01*
X0070207Y0065845D01*
X0070202Y0065919D01*
X0070200Y0065993D01*
X0071350Y0067143D02*
X0071417Y0067141D01*
X0071483Y0067136D01*
X0071549Y0067127D01*
X0071615Y0067114D01*
X0071679Y0067098D01*
X0071743Y0067079D01*
X0071806Y0067056D01*
X0071867Y0067030D01*
X0071927Y0067000D01*
X0071985Y0066967D01*
X0072041Y0066932D01*
X0072095Y0066893D01*
X0072147Y0066851D01*
X0072197Y0066807D01*
X0072244Y0066760D01*
X0071478Y0062756D02*
X0073522Y0062756D01*
X0073778Y0062244D02*
X0074800Y0063267D01*
X0073522Y0062756D02*
X0073592Y0062754D01*
X0073663Y0062748D01*
X0073732Y0062739D01*
X0073801Y0062725D01*
X0073870Y0062708D01*
X0073937Y0062687D01*
X0074003Y0062662D01*
X0074067Y0062634D01*
X0074130Y0062602D01*
X0074191Y0062567D01*
X0074250Y0062528D01*
X0074307Y0062487D01*
X0074361Y0062442D01*
X0074413Y0062394D01*
X0074462Y0062344D01*
X0074509Y0062290D01*
X0074552Y0062235D01*
X0074592Y0062177D01*
X0074629Y0062117D01*
X0074662Y0062055D01*
X0074692Y0061991D01*
X0074719Y0061926D01*
X0074742Y0061860D01*
X0074761Y0061792D01*
X0074776Y0061723D01*
X0074788Y0061654D01*
X0074796Y0061584D01*
X0074800Y0061513D01*
X0074800Y0061443D01*
X0074796Y0061372D01*
X0074788Y0061302D01*
X0074776Y0061233D01*
X0074761Y0061164D01*
X0074742Y0061096D01*
X0074719Y0061030D01*
X0074692Y0060965D01*
X0074662Y0060901D01*
X0074629Y0060839D01*
X0074592Y0060779D01*
X0074552Y0060721D01*
X0074509Y0060666D01*
X0074462Y0060612D01*
X0074413Y0060562D01*
X0074361Y0060514D01*
X0074307Y0060469D01*
X0074250Y0060428D01*
X0074191Y0060389D01*
X0074130Y0060354D01*
X0074067Y0060322D01*
X0074003Y0060294D01*
X0073937Y0060269D01*
X0073870Y0060248D01*
X0073801Y0060231D01*
X0073732Y0060217D01*
X0073663Y0060208D01*
X0073592Y0060202D01*
X0073522Y0060200D01*
X0071478Y0060200D01*
X0071408Y0060202D01*
X0071337Y0060208D01*
X0071268Y0060217D01*
X0071199Y0060231D01*
X0071130Y0060248D01*
X0071063Y0060269D01*
X0070997Y0060294D01*
X0070933Y0060322D01*
X0070870Y0060354D01*
X0070809Y0060389D01*
X0070750Y0060428D01*
X0070693Y0060469D01*
X0070639Y0060514D01*
X0070587Y0060562D01*
X0070538Y0060612D01*
X0070491Y0060666D01*
X0070448Y0060721D01*
X0070408Y0060779D01*
X0070371Y0060839D01*
X0070338Y0060901D01*
X0070308Y0060965D01*
X0070281Y0061030D01*
X0070258Y0061096D01*
X0070239Y0061164D01*
X0070224Y0061233D01*
X0070212Y0061302D01*
X0070204Y0061372D01*
X0070200Y0061443D01*
X0070200Y0061513D01*
X0070204Y0061584D01*
X0070212Y0061654D01*
X0070224Y0061723D01*
X0070239Y0061792D01*
X0070258Y0061860D01*
X0070281Y0061926D01*
X0070308Y0061991D01*
X0070338Y0062055D01*
X0070371Y0062117D01*
X0070408Y0062177D01*
X0070448Y0062235D01*
X0070491Y0062290D01*
X0070538Y0062344D01*
X0070587Y0062394D01*
X0070639Y0062442D01*
X0070693Y0062487D01*
X0070750Y0062528D01*
X0070809Y0062567D01*
X0070870Y0062602D01*
X0070933Y0062634D01*
X0070997Y0062662D01*
X0071063Y0062687D01*
X0071130Y0062708D01*
X0071199Y0062725D01*
X0071268Y0062739D01*
X0071337Y0062748D01*
X0071408Y0062754D01*
X0071478Y0062756D01*
X0121529Y0083978D02*
X0121529Y0086022D01*
X0121528Y0086022D02*
X0121530Y0086092D01*
X0121536Y0086163D01*
X0121545Y0086232D01*
X0121559Y0086301D01*
X0121576Y0086370D01*
X0121597Y0086437D01*
X0121622Y0086503D01*
X0121650Y0086567D01*
X0121682Y0086630D01*
X0121717Y0086691D01*
X0121756Y0086750D01*
X0121797Y0086807D01*
X0121842Y0086861D01*
X0121890Y0086913D01*
X0121940Y0086962D01*
X0121994Y0087009D01*
X0122049Y0087052D01*
X0122107Y0087092D01*
X0122167Y0087129D01*
X0122229Y0087162D01*
X0122293Y0087192D01*
X0122358Y0087219D01*
X0122424Y0087242D01*
X0122492Y0087261D01*
X0122561Y0087276D01*
X0122630Y0087288D01*
X0122700Y0087296D01*
X0122771Y0087300D01*
X0122841Y0087300D01*
X0122912Y0087296D01*
X0122982Y0087288D01*
X0123051Y0087276D01*
X0123120Y0087261D01*
X0123188Y0087242D01*
X0123254Y0087219D01*
X0123319Y0087192D01*
X0123383Y0087162D01*
X0123445Y0087129D01*
X0123505Y0087092D01*
X0123563Y0087052D01*
X0123618Y0087009D01*
X0123672Y0086962D01*
X0123722Y0086913D01*
X0123770Y0086861D01*
X0123815Y0086807D01*
X0123856Y0086750D01*
X0123895Y0086691D01*
X0123930Y0086630D01*
X0123962Y0086567D01*
X0123990Y0086503D01*
X0124015Y0086437D01*
X0124036Y0086370D01*
X0124053Y0086301D01*
X0124067Y0086232D01*
X0124076Y0086163D01*
X0124082Y0086092D01*
X0124084Y0086022D01*
X0124084Y0083978D01*
X0123573Y0083722D02*
X0124595Y0082700D01*
X0125916Y0082700D02*
X0128471Y0082700D01*
X0127194Y0082700D02*
X0127194Y0087300D01*
X0125916Y0086278D01*
X0124084Y0083978D02*
X0124082Y0083908D01*
X0124076Y0083837D01*
X0124067Y0083768D01*
X0124053Y0083699D01*
X0124036Y0083630D01*
X0124015Y0083563D01*
X0123990Y0083497D01*
X0123962Y0083433D01*
X0123930Y0083370D01*
X0123895Y0083309D01*
X0123856Y0083250D01*
X0123815Y0083193D01*
X0123770Y0083139D01*
X0123722Y0083087D01*
X0123672Y0083038D01*
X0123618Y0082991D01*
X0123563Y0082948D01*
X0123505Y0082908D01*
X0123445Y0082871D01*
X0123383Y0082838D01*
X0123319Y0082808D01*
X0123254Y0082781D01*
X0123188Y0082758D01*
X0123120Y0082739D01*
X0123051Y0082724D01*
X0122982Y0082712D01*
X0122912Y0082704D01*
X0122841Y0082700D01*
X0122771Y0082700D01*
X0122700Y0082704D01*
X0122630Y0082712D01*
X0122561Y0082724D01*
X0122492Y0082739D01*
X0122424Y0082758D01*
X0122358Y0082781D01*
X0122293Y0082808D01*
X0122229Y0082838D01*
X0122167Y0082871D01*
X0122107Y0082908D01*
X0122049Y0082948D01*
X0121994Y0082991D01*
X0121940Y0083038D01*
X0121890Y0083087D01*
X0121842Y0083139D01*
X0121797Y0083193D01*
X0121756Y0083250D01*
X0121717Y0083309D01*
X0121682Y0083370D01*
X0121650Y0083433D01*
X0121622Y0083497D01*
X0121597Y0083563D01*
X0121576Y0083630D01*
X0121559Y0083699D01*
X0121545Y0083768D01*
X0121536Y0083837D01*
X0121530Y0083908D01*
X0121528Y0083978D01*
D16*
X0123622Y0079252D02*
X0123622Y0090748D01*
X0126378Y0090748D01*
X0126378Y0079252D01*
X0123622Y0079252D01*
X0122244Y0091102D02*
X0118307Y0091102D01*
D17*
X0090000Y0059600D03*
D18*
X0122000Y0059353D02*
X0123028Y0059353D01*
X0123234Y0059353D02*
X0124056Y0057709D01*
X0125578Y0057709D02*
X0126606Y0057709D01*
X0126669Y0057711D01*
X0126732Y0057717D01*
X0126795Y0057727D01*
X0126857Y0057740D01*
X0126918Y0057757D01*
X0126977Y0057778D01*
X0127036Y0057803D01*
X0127092Y0057831D01*
X0127147Y0057863D01*
X0127200Y0057898D01*
X0127250Y0057936D01*
X0127299Y0057977D01*
X0127344Y0058021D01*
X0127387Y0058068D01*
X0127426Y0058117D01*
X0127463Y0058169D01*
X0127496Y0058223D01*
X0127526Y0058279D01*
X0127553Y0058336D01*
X0127576Y0058395D01*
X0127595Y0058456D01*
X0127610Y0058517D01*
X0127622Y0058579D01*
X0127630Y0058642D01*
X0127634Y0058705D01*
X0127634Y0058769D01*
X0127630Y0058832D01*
X0127622Y0058895D01*
X0127610Y0058957D01*
X0127595Y0059018D01*
X0127576Y0059079D01*
X0127553Y0059138D01*
X0127526Y0059195D01*
X0127496Y0059251D01*
X0127463Y0059305D01*
X0127426Y0059357D01*
X0127387Y0059406D01*
X0127344Y0059453D01*
X0127299Y0059497D01*
X0127250Y0059538D01*
X0127200Y0059576D01*
X0127147Y0059611D01*
X0127092Y0059643D01*
X0127036Y0059671D01*
X0126977Y0059696D01*
X0126918Y0059717D01*
X0126857Y0059734D01*
X0126795Y0059747D01*
X0126732Y0059757D01*
X0126669Y0059763D01*
X0126606Y0059765D01*
X0126811Y0059765D02*
X0125989Y0059765D01*
X0126811Y0059765D02*
X0126867Y0059767D01*
X0126923Y0059773D01*
X0126978Y0059782D01*
X0127033Y0059795D01*
X0127086Y0059812D01*
X0127138Y0059833D01*
X0127189Y0059857D01*
X0127238Y0059885D01*
X0127285Y0059915D01*
X0127330Y0059949D01*
X0127372Y0059986D01*
X0127412Y0060026D01*
X0127449Y0060068D01*
X0127483Y0060113D01*
X0127513Y0060160D01*
X0127541Y0060209D01*
X0127565Y0060260D01*
X0127586Y0060312D01*
X0127603Y0060365D01*
X0127616Y0060420D01*
X0127625Y0060475D01*
X0127631Y0060531D01*
X0127633Y0060587D01*
X0127631Y0060643D01*
X0127625Y0060699D01*
X0127616Y0060754D01*
X0127603Y0060809D01*
X0127586Y0060862D01*
X0127565Y0060914D01*
X0127541Y0060965D01*
X0127513Y0061014D01*
X0127483Y0061061D01*
X0127449Y0061106D01*
X0127412Y0061148D01*
X0127372Y0061188D01*
X0127330Y0061225D01*
X0127285Y0061259D01*
X0127238Y0061289D01*
X0127189Y0061317D01*
X0127138Y0061341D01*
X0127086Y0061362D01*
X0127033Y0061379D01*
X0126978Y0061392D01*
X0126923Y0061401D01*
X0126867Y0061407D01*
X0126811Y0061409D01*
X0125578Y0061409D01*
X0123028Y0061409D02*
X0122000Y0061409D01*
X0122000Y0057709D01*
X0123028Y0059353D02*
X0123091Y0059355D01*
X0123154Y0059361D01*
X0123217Y0059371D01*
X0123279Y0059384D01*
X0123340Y0059401D01*
X0123399Y0059422D01*
X0123458Y0059447D01*
X0123514Y0059475D01*
X0123569Y0059507D01*
X0123622Y0059542D01*
X0123672Y0059580D01*
X0123721Y0059621D01*
X0123766Y0059665D01*
X0123809Y0059712D01*
X0123848Y0059761D01*
X0123885Y0059813D01*
X0123918Y0059867D01*
X0123948Y0059923D01*
X0123975Y0059980D01*
X0123998Y0060039D01*
X0124017Y0060100D01*
X0124032Y0060161D01*
X0124044Y0060223D01*
X0124052Y0060286D01*
X0124056Y0060349D01*
X0124056Y0060413D01*
X0124052Y0060476D01*
X0124044Y0060539D01*
X0124032Y0060601D01*
X0124017Y0060662D01*
X0123998Y0060723D01*
X0123975Y0060782D01*
X0123948Y0060839D01*
X0123918Y0060895D01*
X0123885Y0060949D01*
X0123848Y0061001D01*
X0123809Y0061050D01*
X0123766Y0061097D01*
X0123721Y0061141D01*
X0123672Y0061182D01*
X0123622Y0061220D01*
X0123569Y0061255D01*
X0123514Y0061287D01*
X0123458Y0061315D01*
X0123399Y0061340D01*
X0123340Y0061361D01*
X0123279Y0061378D01*
X0123217Y0061391D01*
X0123154Y0061401D01*
X0123091Y0061407D01*
X0123028Y0061409D01*
X0122000Y0072709D02*
X0122000Y0076409D01*
X0123028Y0076409D01*
X0123091Y0076407D01*
X0123154Y0076401D01*
X0123217Y0076391D01*
X0123279Y0076378D01*
X0123340Y0076361D01*
X0123399Y0076340D01*
X0123458Y0076315D01*
X0123514Y0076287D01*
X0123569Y0076255D01*
X0123622Y0076220D01*
X0123672Y0076182D01*
X0123721Y0076141D01*
X0123766Y0076097D01*
X0123809Y0076050D01*
X0123848Y0076001D01*
X0123885Y0075949D01*
X0123918Y0075895D01*
X0123948Y0075839D01*
X0123975Y0075782D01*
X0123998Y0075723D01*
X0124017Y0075662D01*
X0124032Y0075601D01*
X0124044Y0075539D01*
X0124052Y0075476D01*
X0124056Y0075413D01*
X0124056Y0075349D01*
X0124052Y0075286D01*
X0124044Y0075223D01*
X0124032Y0075161D01*
X0124017Y0075100D01*
X0123998Y0075039D01*
X0123975Y0074980D01*
X0123948Y0074923D01*
X0123918Y0074867D01*
X0123885Y0074813D01*
X0123848Y0074761D01*
X0123809Y0074712D01*
X0123766Y0074665D01*
X0123721Y0074621D01*
X0123672Y0074580D01*
X0123622Y0074542D01*
X0123569Y0074507D01*
X0123514Y0074475D01*
X0123458Y0074447D01*
X0123399Y0074422D01*
X0123340Y0074401D01*
X0123279Y0074384D01*
X0123217Y0074371D01*
X0123154Y0074361D01*
X0123091Y0074355D01*
X0123028Y0074353D01*
X0122000Y0074353D01*
X0123234Y0074353D02*
X0124056Y0072709D01*
X0125578Y0072709D02*
X0127633Y0072709D01*
X0125578Y0072709D02*
X0127325Y0074765D01*
X0126708Y0076409D02*
X0126640Y0076407D01*
X0126572Y0076401D01*
X0126505Y0076392D01*
X0126439Y0076378D01*
X0126373Y0076361D01*
X0126308Y0076340D01*
X0126245Y0076315D01*
X0126183Y0076287D01*
X0126123Y0076255D01*
X0126065Y0076220D01*
X0126009Y0076182D01*
X0125956Y0076140D01*
X0125904Y0076096D01*
X0125856Y0076048D01*
X0125810Y0075998D01*
X0125767Y0075946D01*
X0125727Y0075891D01*
X0125690Y0075834D01*
X0125657Y0075775D01*
X0125627Y0075714D01*
X0125601Y0075651D01*
X0125578Y0075587D01*
X0127326Y0074764D02*
X0127369Y0074808D01*
X0127410Y0074855D01*
X0127447Y0074904D01*
X0127482Y0074955D01*
X0127513Y0075009D01*
X0127541Y0075064D01*
X0127565Y0075121D01*
X0127586Y0075179D01*
X0127603Y0075239D01*
X0127617Y0075299D01*
X0127626Y0075360D01*
X0127632Y0075422D01*
X0127634Y0075484D01*
X0127633Y0075484D02*
X0127631Y0075542D01*
X0127626Y0075600D01*
X0127617Y0075657D01*
X0127604Y0075714D01*
X0127588Y0075770D01*
X0127568Y0075825D01*
X0127545Y0075878D01*
X0127519Y0075930D01*
X0127489Y0075980D01*
X0127456Y0076028D01*
X0127421Y0076074D01*
X0127382Y0076117D01*
X0127341Y0076158D01*
X0127298Y0076197D01*
X0127252Y0076232D01*
X0127204Y0076265D01*
X0127154Y0076295D01*
X0127102Y0076321D01*
X0127049Y0076344D01*
X0126994Y0076364D01*
X0126938Y0076380D01*
X0126881Y0076393D01*
X0126824Y0076402D01*
X0126766Y0076407D01*
X0126708Y0076409D01*
X0126400Y0046409D02*
X0125578Y0043531D01*
X0127633Y0043531D01*
X0127017Y0044353D02*
X0127017Y0042709D01*
X0124056Y0042709D02*
X0123234Y0044353D01*
X0123028Y0044353D02*
X0122000Y0044353D01*
X0123028Y0044353D02*
X0123091Y0044355D01*
X0123154Y0044361D01*
X0123217Y0044371D01*
X0123279Y0044384D01*
X0123340Y0044401D01*
X0123399Y0044422D01*
X0123458Y0044447D01*
X0123514Y0044475D01*
X0123569Y0044507D01*
X0123622Y0044542D01*
X0123672Y0044580D01*
X0123721Y0044621D01*
X0123766Y0044665D01*
X0123809Y0044712D01*
X0123848Y0044761D01*
X0123885Y0044813D01*
X0123918Y0044867D01*
X0123948Y0044923D01*
X0123975Y0044980D01*
X0123998Y0045039D01*
X0124017Y0045100D01*
X0124032Y0045161D01*
X0124044Y0045223D01*
X0124052Y0045286D01*
X0124056Y0045349D01*
X0124056Y0045413D01*
X0124052Y0045476D01*
X0124044Y0045539D01*
X0124032Y0045601D01*
X0124017Y0045662D01*
X0123998Y0045723D01*
X0123975Y0045782D01*
X0123948Y0045839D01*
X0123918Y0045895D01*
X0123885Y0045949D01*
X0123848Y0046001D01*
X0123809Y0046050D01*
X0123766Y0046097D01*
X0123721Y0046141D01*
X0123672Y0046182D01*
X0123622Y0046220D01*
X0123569Y0046255D01*
X0123514Y0046287D01*
X0123458Y0046315D01*
X0123399Y0046340D01*
X0123340Y0046361D01*
X0123279Y0046378D01*
X0123217Y0046391D01*
X0123154Y0046401D01*
X0123091Y0046407D01*
X0123028Y0046409D01*
X0122000Y0046409D01*
X0122000Y0042709D01*
X0122000Y0031409D02*
X0123028Y0031409D01*
X0122000Y0031409D02*
X0122000Y0027709D01*
X0122000Y0029353D02*
X0123028Y0029353D01*
X0123234Y0029353D02*
X0124056Y0027709D01*
X0125578Y0027709D02*
X0126811Y0027709D01*
X0126867Y0027711D01*
X0126923Y0027717D01*
X0126978Y0027726D01*
X0127033Y0027739D01*
X0127086Y0027756D01*
X0127138Y0027777D01*
X0127189Y0027801D01*
X0127238Y0027829D01*
X0127285Y0027859D01*
X0127330Y0027893D01*
X0127372Y0027930D01*
X0127412Y0027970D01*
X0127449Y0028012D01*
X0127483Y0028057D01*
X0127513Y0028104D01*
X0127541Y0028153D01*
X0127565Y0028204D01*
X0127586Y0028256D01*
X0127603Y0028309D01*
X0127616Y0028364D01*
X0127625Y0028419D01*
X0127631Y0028475D01*
X0127633Y0028531D01*
X0127633Y0028942D01*
X0127631Y0028998D01*
X0127625Y0029054D01*
X0127616Y0029109D01*
X0127603Y0029164D01*
X0127586Y0029217D01*
X0127565Y0029269D01*
X0127541Y0029320D01*
X0127513Y0029369D01*
X0127483Y0029416D01*
X0127449Y0029461D01*
X0127412Y0029503D01*
X0127372Y0029543D01*
X0127330Y0029580D01*
X0127285Y0029614D01*
X0127238Y0029644D01*
X0127189Y0029672D01*
X0127138Y0029696D01*
X0127086Y0029717D01*
X0127033Y0029734D01*
X0126978Y0029747D01*
X0126923Y0029756D01*
X0126867Y0029762D01*
X0126811Y0029764D01*
X0126811Y0029765D02*
X0125578Y0029765D01*
X0125578Y0031409D01*
X0127633Y0031409D01*
X0123028Y0031409D02*
X0123091Y0031407D01*
X0123154Y0031401D01*
X0123217Y0031391D01*
X0123279Y0031378D01*
X0123340Y0031361D01*
X0123399Y0031340D01*
X0123458Y0031315D01*
X0123514Y0031287D01*
X0123569Y0031255D01*
X0123622Y0031220D01*
X0123672Y0031182D01*
X0123721Y0031141D01*
X0123766Y0031097D01*
X0123809Y0031050D01*
X0123848Y0031001D01*
X0123885Y0030949D01*
X0123918Y0030895D01*
X0123948Y0030839D01*
X0123975Y0030782D01*
X0123998Y0030723D01*
X0124017Y0030662D01*
X0124032Y0030601D01*
X0124044Y0030539D01*
X0124052Y0030476D01*
X0124056Y0030413D01*
X0124056Y0030349D01*
X0124052Y0030286D01*
X0124044Y0030223D01*
X0124032Y0030161D01*
X0124017Y0030100D01*
X0123998Y0030039D01*
X0123975Y0029980D01*
X0123948Y0029923D01*
X0123918Y0029867D01*
X0123885Y0029813D01*
X0123848Y0029761D01*
X0123809Y0029712D01*
X0123766Y0029665D01*
X0123721Y0029621D01*
X0123672Y0029580D01*
X0123622Y0029542D01*
X0123569Y0029507D01*
X0123514Y0029475D01*
X0123458Y0029447D01*
X0123399Y0029422D01*
X0123340Y0029401D01*
X0123279Y0029384D01*
X0123217Y0029371D01*
X0123154Y0029361D01*
X0123091Y0029355D01*
X0123028Y0029353D01*
X0093000Y0028591D02*
X0090944Y0028591D01*
X0091972Y0028591D02*
X0091972Y0032291D01*
X0090944Y0031469D01*
X0088394Y0032291D02*
X0088457Y0032289D01*
X0088520Y0032283D01*
X0088583Y0032273D01*
X0088645Y0032260D01*
X0088706Y0032243D01*
X0088765Y0032222D01*
X0088824Y0032197D01*
X0088880Y0032169D01*
X0088935Y0032137D01*
X0088988Y0032102D01*
X0089038Y0032064D01*
X0089087Y0032023D01*
X0089132Y0031979D01*
X0089175Y0031932D01*
X0089214Y0031883D01*
X0089251Y0031831D01*
X0089284Y0031777D01*
X0089314Y0031721D01*
X0089341Y0031664D01*
X0089364Y0031605D01*
X0089383Y0031544D01*
X0089398Y0031483D01*
X0089410Y0031421D01*
X0089418Y0031358D01*
X0089422Y0031295D01*
X0089422Y0031231D01*
X0089418Y0031168D01*
X0089410Y0031105D01*
X0089398Y0031043D01*
X0089383Y0030982D01*
X0089364Y0030921D01*
X0089341Y0030862D01*
X0089314Y0030805D01*
X0089284Y0030749D01*
X0089251Y0030695D01*
X0089214Y0030643D01*
X0089175Y0030594D01*
X0089132Y0030547D01*
X0089087Y0030503D01*
X0089038Y0030462D01*
X0088988Y0030424D01*
X0088935Y0030389D01*
X0088880Y0030357D01*
X0088824Y0030329D01*
X0088765Y0030304D01*
X0088706Y0030283D01*
X0088645Y0030266D01*
X0088583Y0030253D01*
X0088520Y0030243D01*
X0088457Y0030237D01*
X0088394Y0030235D01*
X0087367Y0030235D01*
X0088600Y0030235D02*
X0089422Y0028591D01*
X0087367Y0028591D02*
X0087367Y0032291D01*
X0088394Y0032291D01*
M02*
