G75*
%MOIN*%
%OFA0B0*%
%FSLAX25Y25*%
%IPPOS*%
%LPD*%
%AMOC8*
5,1,8,0,0,1.08239X$1,22.5*
%
%ADD10C,0.00000*%
%ADD11OC8,0.06000*%
%ADD12R,0.07800X0.07800*%
%ADD13C,0.07800*%
%ADD14C,0.11627*%
%ADD15C,0.06383*%
%ADD16C,0.03778*%
D10*
X0016899Y0005000D02*
X0249166Y0005000D01*
X0249450Y0005003D01*
X0249734Y0005014D01*
X0250017Y0005031D01*
X0250301Y0005055D01*
X0250583Y0005086D01*
X0250864Y0005123D01*
X0251145Y0005168D01*
X0251424Y0005219D01*
X0251703Y0005277D01*
X0251979Y0005342D01*
X0252254Y0005413D01*
X0252527Y0005491D01*
X0252798Y0005575D01*
X0253068Y0005666D01*
X0253334Y0005764D01*
X0253599Y0005868D01*
X0253861Y0005978D01*
X0254120Y0006095D01*
X0254376Y0006218D01*
X0254629Y0006346D01*
X0254879Y0006482D01*
X0255125Y0006623D01*
X0255368Y0006770D01*
X0255608Y0006922D01*
X0255844Y0007081D01*
X0256075Y0007245D01*
X0256303Y0007415D01*
X0256527Y0007590D01*
X0256746Y0007770D01*
X0256961Y0007956D01*
X0257171Y0008147D01*
X0257377Y0008343D01*
X0257578Y0008544D01*
X0257774Y0008750D01*
X0257965Y0008960D01*
X0258151Y0009175D01*
X0258331Y0009394D01*
X0258506Y0009618D01*
X0258676Y0009846D01*
X0258840Y0010077D01*
X0258999Y0010313D01*
X0259151Y0010553D01*
X0259298Y0010796D01*
X0259439Y0011042D01*
X0259575Y0011292D01*
X0259703Y0011545D01*
X0259826Y0011801D01*
X0259943Y0012060D01*
X0260053Y0012322D01*
X0260157Y0012587D01*
X0260255Y0012853D01*
X0260346Y0013123D01*
X0260430Y0013394D01*
X0260508Y0013667D01*
X0260579Y0013942D01*
X0260644Y0014218D01*
X0260702Y0014497D01*
X0260753Y0014776D01*
X0260798Y0015057D01*
X0260835Y0015338D01*
X0260866Y0015620D01*
X0260890Y0015904D01*
X0260907Y0016187D01*
X0260918Y0016471D01*
X0260921Y0016755D01*
X0260921Y0111192D01*
X0260917Y0111482D01*
X0260907Y0111772D01*
X0260889Y0112062D01*
X0260865Y0112351D01*
X0260833Y0112640D01*
X0260795Y0112927D01*
X0260750Y0113214D01*
X0260697Y0113499D01*
X0260638Y0113783D01*
X0260572Y0114066D01*
X0260499Y0114347D01*
X0260420Y0114626D01*
X0260333Y0114903D01*
X0260240Y0115178D01*
X0260141Y0115450D01*
X0260034Y0115721D01*
X0259922Y0115988D01*
X0259803Y0116253D01*
X0259677Y0116514D01*
X0259545Y0116773D01*
X0259407Y0117028D01*
X0259263Y0117280D01*
X0259113Y0117528D01*
X0258957Y0117773D01*
X0258795Y0118014D01*
X0258627Y0118251D01*
X0258454Y0118483D01*
X0258275Y0118712D01*
X0258091Y0118936D01*
X0257901Y0119155D01*
X0257706Y0119370D01*
X0257506Y0119580D01*
X0257300Y0119786D01*
X0257090Y0119986D01*
X0256875Y0120181D01*
X0256656Y0120371D01*
X0256432Y0120555D01*
X0256203Y0120734D01*
X0255971Y0120907D01*
X0255734Y0121075D01*
X0255493Y0121237D01*
X0255248Y0121393D01*
X0255000Y0121543D01*
X0254748Y0121687D01*
X0254493Y0121825D01*
X0254234Y0121957D01*
X0253973Y0122083D01*
X0253708Y0122202D01*
X0253441Y0122314D01*
X0253170Y0122421D01*
X0252898Y0122520D01*
X0252623Y0122613D01*
X0252346Y0122700D01*
X0252067Y0122779D01*
X0251786Y0122852D01*
X0251503Y0122918D01*
X0251219Y0122977D01*
X0250934Y0123030D01*
X0250647Y0123075D01*
X0250360Y0123113D01*
X0250071Y0123145D01*
X0249782Y0123169D01*
X0249492Y0123187D01*
X0249202Y0123197D01*
X0248912Y0123201D01*
X0017261Y0123201D01*
X0016965Y0123197D01*
X0016669Y0123187D01*
X0016373Y0123169D01*
X0016078Y0123144D01*
X0015783Y0123112D01*
X0015489Y0123072D01*
X0015197Y0123026D01*
X0014905Y0122973D01*
X0014615Y0122912D01*
X0014327Y0122845D01*
X0014040Y0122770D01*
X0013755Y0122689D01*
X0013472Y0122601D01*
X0013191Y0122506D01*
X0012913Y0122404D01*
X0012637Y0122296D01*
X0012364Y0122181D01*
X0012094Y0122059D01*
X0011827Y0121931D01*
X0011563Y0121797D01*
X0011302Y0121656D01*
X0011045Y0121509D01*
X0010792Y0121355D01*
X0010542Y0121196D01*
X0010296Y0121031D01*
X0010054Y0120859D01*
X0009817Y0120682D01*
X0009583Y0120500D01*
X0009355Y0120311D01*
X0009130Y0120117D01*
X0008911Y0119918D01*
X0008697Y0119714D01*
X0008487Y0119504D01*
X0008283Y0119290D01*
X0008084Y0119071D01*
X0007890Y0118846D01*
X0007701Y0118618D01*
X0007519Y0118384D01*
X0007342Y0118147D01*
X0007170Y0117905D01*
X0007005Y0117659D01*
X0006846Y0117409D01*
X0006692Y0117156D01*
X0006545Y0116899D01*
X0006404Y0116638D01*
X0006270Y0116374D01*
X0006142Y0116107D01*
X0006020Y0115837D01*
X0005905Y0115564D01*
X0005797Y0115288D01*
X0005695Y0115010D01*
X0005600Y0114729D01*
X0005512Y0114446D01*
X0005431Y0114161D01*
X0005356Y0113874D01*
X0005289Y0113586D01*
X0005228Y0113296D01*
X0005175Y0113004D01*
X0005129Y0112712D01*
X0005089Y0112418D01*
X0005057Y0112123D01*
X0005032Y0111828D01*
X0005014Y0111532D01*
X0005004Y0111236D01*
X0005000Y0110940D01*
X0005000Y0016899D01*
X0005003Y0016611D01*
X0005014Y0016324D01*
X0005031Y0016037D01*
X0005056Y0015751D01*
X0005087Y0015465D01*
X0005125Y0015180D01*
X0005170Y0014896D01*
X0005222Y0014613D01*
X0005280Y0014331D01*
X0005346Y0014051D01*
X0005418Y0013773D01*
X0005497Y0013497D01*
X0005582Y0013222D01*
X0005675Y0012950D01*
X0005773Y0012680D01*
X0005878Y0012412D01*
X0005990Y0012147D01*
X0006108Y0011885D01*
X0006232Y0011625D01*
X0006363Y0011369D01*
X0006500Y0011116D01*
X0006642Y0010867D01*
X0006791Y0010621D01*
X0006946Y0010378D01*
X0007106Y0010140D01*
X0007273Y0009905D01*
X0007444Y0009674D01*
X0007622Y0009448D01*
X0007804Y0009226D01*
X0007992Y0009009D01*
X0008186Y0008796D01*
X0008384Y0008587D01*
X0008587Y0008384D01*
X0008796Y0008186D01*
X0009009Y0007992D01*
X0009226Y0007804D01*
X0009448Y0007622D01*
X0009674Y0007444D01*
X0009905Y0007273D01*
X0010140Y0007106D01*
X0010378Y0006946D01*
X0010621Y0006791D01*
X0010867Y0006642D01*
X0011116Y0006500D01*
X0011369Y0006363D01*
X0011625Y0006232D01*
X0011885Y0006108D01*
X0012147Y0005990D01*
X0012412Y0005878D01*
X0012680Y0005773D01*
X0012950Y0005675D01*
X0013222Y0005582D01*
X0013497Y0005497D01*
X0013773Y0005418D01*
X0014051Y0005346D01*
X0014331Y0005280D01*
X0014613Y0005222D01*
X0014896Y0005170D01*
X0015180Y0005125D01*
X0015465Y0005087D01*
X0015751Y0005056D01*
X0016037Y0005031D01*
X0016324Y0005014D01*
X0016611Y0005003D01*
X0016899Y0005000D01*
X0013367Y0018780D02*
X0013369Y0018927D01*
X0013375Y0019073D01*
X0013385Y0019219D01*
X0013399Y0019365D01*
X0013417Y0019511D01*
X0013438Y0019656D01*
X0013464Y0019800D01*
X0013494Y0019944D01*
X0013527Y0020086D01*
X0013564Y0020228D01*
X0013605Y0020369D01*
X0013650Y0020508D01*
X0013699Y0020647D01*
X0013751Y0020784D01*
X0013808Y0020919D01*
X0013867Y0021053D01*
X0013931Y0021185D01*
X0013998Y0021315D01*
X0014068Y0021444D01*
X0014142Y0021571D01*
X0014219Y0021695D01*
X0014300Y0021818D01*
X0014384Y0021938D01*
X0014471Y0022056D01*
X0014561Y0022171D01*
X0014654Y0022284D01*
X0014751Y0022395D01*
X0014850Y0022503D01*
X0014952Y0022608D01*
X0015057Y0022710D01*
X0015165Y0022809D01*
X0015276Y0022906D01*
X0015389Y0022999D01*
X0015504Y0023089D01*
X0015622Y0023176D01*
X0015742Y0023260D01*
X0015865Y0023341D01*
X0015989Y0023418D01*
X0016116Y0023492D01*
X0016245Y0023562D01*
X0016375Y0023629D01*
X0016507Y0023693D01*
X0016641Y0023752D01*
X0016776Y0023809D01*
X0016913Y0023861D01*
X0017052Y0023910D01*
X0017191Y0023955D01*
X0017332Y0023996D01*
X0017474Y0024033D01*
X0017616Y0024066D01*
X0017760Y0024096D01*
X0017904Y0024122D01*
X0018049Y0024143D01*
X0018195Y0024161D01*
X0018341Y0024175D01*
X0018487Y0024185D01*
X0018633Y0024191D01*
X0018780Y0024193D01*
X0018927Y0024191D01*
X0019073Y0024185D01*
X0019219Y0024175D01*
X0019365Y0024161D01*
X0019511Y0024143D01*
X0019656Y0024122D01*
X0019800Y0024096D01*
X0019944Y0024066D01*
X0020086Y0024033D01*
X0020228Y0023996D01*
X0020369Y0023955D01*
X0020508Y0023910D01*
X0020647Y0023861D01*
X0020784Y0023809D01*
X0020919Y0023752D01*
X0021053Y0023693D01*
X0021185Y0023629D01*
X0021315Y0023562D01*
X0021444Y0023492D01*
X0021571Y0023418D01*
X0021695Y0023341D01*
X0021818Y0023260D01*
X0021938Y0023176D01*
X0022056Y0023089D01*
X0022171Y0022999D01*
X0022284Y0022906D01*
X0022395Y0022809D01*
X0022503Y0022710D01*
X0022608Y0022608D01*
X0022710Y0022503D01*
X0022809Y0022395D01*
X0022906Y0022284D01*
X0022999Y0022171D01*
X0023089Y0022056D01*
X0023176Y0021938D01*
X0023260Y0021818D01*
X0023341Y0021695D01*
X0023418Y0021571D01*
X0023492Y0021444D01*
X0023562Y0021315D01*
X0023629Y0021185D01*
X0023693Y0021053D01*
X0023752Y0020919D01*
X0023809Y0020784D01*
X0023861Y0020647D01*
X0023910Y0020508D01*
X0023955Y0020369D01*
X0023996Y0020228D01*
X0024033Y0020086D01*
X0024066Y0019944D01*
X0024096Y0019800D01*
X0024122Y0019656D01*
X0024143Y0019511D01*
X0024161Y0019365D01*
X0024175Y0019219D01*
X0024185Y0019073D01*
X0024191Y0018927D01*
X0024193Y0018780D01*
X0024191Y0018633D01*
X0024185Y0018487D01*
X0024175Y0018341D01*
X0024161Y0018195D01*
X0024143Y0018049D01*
X0024122Y0017904D01*
X0024096Y0017760D01*
X0024066Y0017616D01*
X0024033Y0017474D01*
X0023996Y0017332D01*
X0023955Y0017191D01*
X0023910Y0017052D01*
X0023861Y0016913D01*
X0023809Y0016776D01*
X0023752Y0016641D01*
X0023693Y0016507D01*
X0023629Y0016375D01*
X0023562Y0016245D01*
X0023492Y0016116D01*
X0023418Y0015989D01*
X0023341Y0015865D01*
X0023260Y0015742D01*
X0023176Y0015622D01*
X0023089Y0015504D01*
X0022999Y0015389D01*
X0022906Y0015276D01*
X0022809Y0015165D01*
X0022710Y0015057D01*
X0022608Y0014952D01*
X0022503Y0014850D01*
X0022395Y0014751D01*
X0022284Y0014654D01*
X0022171Y0014561D01*
X0022056Y0014471D01*
X0021938Y0014384D01*
X0021818Y0014300D01*
X0021695Y0014219D01*
X0021571Y0014142D01*
X0021444Y0014068D01*
X0021315Y0013998D01*
X0021185Y0013931D01*
X0021053Y0013867D01*
X0020919Y0013808D01*
X0020784Y0013751D01*
X0020647Y0013699D01*
X0020508Y0013650D01*
X0020369Y0013605D01*
X0020228Y0013564D01*
X0020086Y0013527D01*
X0019944Y0013494D01*
X0019800Y0013464D01*
X0019656Y0013438D01*
X0019511Y0013417D01*
X0019365Y0013399D01*
X0019219Y0013385D01*
X0019073Y0013375D01*
X0018927Y0013369D01*
X0018780Y0013367D01*
X0018633Y0013369D01*
X0018487Y0013375D01*
X0018341Y0013385D01*
X0018195Y0013399D01*
X0018049Y0013417D01*
X0017904Y0013438D01*
X0017760Y0013464D01*
X0017616Y0013494D01*
X0017474Y0013527D01*
X0017332Y0013564D01*
X0017191Y0013605D01*
X0017052Y0013650D01*
X0016913Y0013699D01*
X0016776Y0013751D01*
X0016641Y0013808D01*
X0016507Y0013867D01*
X0016375Y0013931D01*
X0016245Y0013998D01*
X0016116Y0014068D01*
X0015989Y0014142D01*
X0015865Y0014219D01*
X0015742Y0014300D01*
X0015622Y0014384D01*
X0015504Y0014471D01*
X0015389Y0014561D01*
X0015276Y0014654D01*
X0015165Y0014751D01*
X0015057Y0014850D01*
X0014952Y0014952D01*
X0014850Y0015057D01*
X0014751Y0015165D01*
X0014654Y0015276D01*
X0014561Y0015389D01*
X0014471Y0015504D01*
X0014384Y0015622D01*
X0014300Y0015742D01*
X0014219Y0015865D01*
X0014142Y0015989D01*
X0014068Y0016116D01*
X0013998Y0016245D01*
X0013931Y0016375D01*
X0013867Y0016507D01*
X0013808Y0016641D01*
X0013751Y0016776D01*
X0013699Y0016913D01*
X0013650Y0017052D01*
X0013605Y0017191D01*
X0013564Y0017332D01*
X0013527Y0017474D01*
X0013494Y0017616D01*
X0013464Y0017760D01*
X0013438Y0017904D01*
X0013417Y0018049D01*
X0013399Y0018195D01*
X0013385Y0018341D01*
X0013375Y0018487D01*
X0013369Y0018633D01*
X0013367Y0018780D01*
X0013367Y0109331D02*
X0013369Y0109478D01*
X0013375Y0109624D01*
X0013385Y0109770D01*
X0013399Y0109916D01*
X0013417Y0110062D01*
X0013438Y0110207D01*
X0013464Y0110351D01*
X0013494Y0110495D01*
X0013527Y0110637D01*
X0013564Y0110779D01*
X0013605Y0110920D01*
X0013650Y0111059D01*
X0013699Y0111198D01*
X0013751Y0111335D01*
X0013808Y0111470D01*
X0013867Y0111604D01*
X0013931Y0111736D01*
X0013998Y0111866D01*
X0014068Y0111995D01*
X0014142Y0112122D01*
X0014219Y0112246D01*
X0014300Y0112369D01*
X0014384Y0112489D01*
X0014471Y0112607D01*
X0014561Y0112722D01*
X0014654Y0112835D01*
X0014751Y0112946D01*
X0014850Y0113054D01*
X0014952Y0113159D01*
X0015057Y0113261D01*
X0015165Y0113360D01*
X0015276Y0113457D01*
X0015389Y0113550D01*
X0015504Y0113640D01*
X0015622Y0113727D01*
X0015742Y0113811D01*
X0015865Y0113892D01*
X0015989Y0113969D01*
X0016116Y0114043D01*
X0016245Y0114113D01*
X0016375Y0114180D01*
X0016507Y0114244D01*
X0016641Y0114303D01*
X0016776Y0114360D01*
X0016913Y0114412D01*
X0017052Y0114461D01*
X0017191Y0114506D01*
X0017332Y0114547D01*
X0017474Y0114584D01*
X0017616Y0114617D01*
X0017760Y0114647D01*
X0017904Y0114673D01*
X0018049Y0114694D01*
X0018195Y0114712D01*
X0018341Y0114726D01*
X0018487Y0114736D01*
X0018633Y0114742D01*
X0018780Y0114744D01*
X0018927Y0114742D01*
X0019073Y0114736D01*
X0019219Y0114726D01*
X0019365Y0114712D01*
X0019511Y0114694D01*
X0019656Y0114673D01*
X0019800Y0114647D01*
X0019944Y0114617D01*
X0020086Y0114584D01*
X0020228Y0114547D01*
X0020369Y0114506D01*
X0020508Y0114461D01*
X0020647Y0114412D01*
X0020784Y0114360D01*
X0020919Y0114303D01*
X0021053Y0114244D01*
X0021185Y0114180D01*
X0021315Y0114113D01*
X0021444Y0114043D01*
X0021571Y0113969D01*
X0021695Y0113892D01*
X0021818Y0113811D01*
X0021938Y0113727D01*
X0022056Y0113640D01*
X0022171Y0113550D01*
X0022284Y0113457D01*
X0022395Y0113360D01*
X0022503Y0113261D01*
X0022608Y0113159D01*
X0022710Y0113054D01*
X0022809Y0112946D01*
X0022906Y0112835D01*
X0022999Y0112722D01*
X0023089Y0112607D01*
X0023176Y0112489D01*
X0023260Y0112369D01*
X0023341Y0112246D01*
X0023418Y0112122D01*
X0023492Y0111995D01*
X0023562Y0111866D01*
X0023629Y0111736D01*
X0023693Y0111604D01*
X0023752Y0111470D01*
X0023809Y0111335D01*
X0023861Y0111198D01*
X0023910Y0111059D01*
X0023955Y0110920D01*
X0023996Y0110779D01*
X0024033Y0110637D01*
X0024066Y0110495D01*
X0024096Y0110351D01*
X0024122Y0110207D01*
X0024143Y0110062D01*
X0024161Y0109916D01*
X0024175Y0109770D01*
X0024185Y0109624D01*
X0024191Y0109478D01*
X0024193Y0109331D01*
X0024191Y0109184D01*
X0024185Y0109038D01*
X0024175Y0108892D01*
X0024161Y0108746D01*
X0024143Y0108600D01*
X0024122Y0108455D01*
X0024096Y0108311D01*
X0024066Y0108167D01*
X0024033Y0108025D01*
X0023996Y0107883D01*
X0023955Y0107742D01*
X0023910Y0107603D01*
X0023861Y0107464D01*
X0023809Y0107327D01*
X0023752Y0107192D01*
X0023693Y0107058D01*
X0023629Y0106926D01*
X0023562Y0106796D01*
X0023492Y0106667D01*
X0023418Y0106540D01*
X0023341Y0106416D01*
X0023260Y0106293D01*
X0023176Y0106173D01*
X0023089Y0106055D01*
X0022999Y0105940D01*
X0022906Y0105827D01*
X0022809Y0105716D01*
X0022710Y0105608D01*
X0022608Y0105503D01*
X0022503Y0105401D01*
X0022395Y0105302D01*
X0022284Y0105205D01*
X0022171Y0105112D01*
X0022056Y0105022D01*
X0021938Y0104935D01*
X0021818Y0104851D01*
X0021695Y0104770D01*
X0021571Y0104693D01*
X0021444Y0104619D01*
X0021315Y0104549D01*
X0021185Y0104482D01*
X0021053Y0104418D01*
X0020919Y0104359D01*
X0020784Y0104302D01*
X0020647Y0104250D01*
X0020508Y0104201D01*
X0020369Y0104156D01*
X0020228Y0104115D01*
X0020086Y0104078D01*
X0019944Y0104045D01*
X0019800Y0104015D01*
X0019656Y0103989D01*
X0019511Y0103968D01*
X0019365Y0103950D01*
X0019219Y0103936D01*
X0019073Y0103926D01*
X0018927Y0103920D01*
X0018780Y0103918D01*
X0018633Y0103920D01*
X0018487Y0103926D01*
X0018341Y0103936D01*
X0018195Y0103950D01*
X0018049Y0103968D01*
X0017904Y0103989D01*
X0017760Y0104015D01*
X0017616Y0104045D01*
X0017474Y0104078D01*
X0017332Y0104115D01*
X0017191Y0104156D01*
X0017052Y0104201D01*
X0016913Y0104250D01*
X0016776Y0104302D01*
X0016641Y0104359D01*
X0016507Y0104418D01*
X0016375Y0104482D01*
X0016245Y0104549D01*
X0016116Y0104619D01*
X0015989Y0104693D01*
X0015865Y0104770D01*
X0015742Y0104851D01*
X0015622Y0104935D01*
X0015504Y0105022D01*
X0015389Y0105112D01*
X0015276Y0105205D01*
X0015165Y0105302D01*
X0015057Y0105401D01*
X0014952Y0105503D01*
X0014850Y0105608D01*
X0014751Y0105716D01*
X0014654Y0105827D01*
X0014561Y0105940D01*
X0014471Y0106055D01*
X0014384Y0106173D01*
X0014300Y0106293D01*
X0014219Y0106416D01*
X0014142Y0106540D01*
X0014068Y0106667D01*
X0013998Y0106796D01*
X0013931Y0106926D01*
X0013867Y0107058D01*
X0013808Y0107192D01*
X0013751Y0107327D01*
X0013699Y0107464D01*
X0013650Y0107603D01*
X0013605Y0107742D01*
X0013564Y0107883D01*
X0013527Y0108025D01*
X0013494Y0108167D01*
X0013464Y0108311D01*
X0013438Y0108455D01*
X0013417Y0108600D01*
X0013399Y0108746D01*
X0013385Y0108892D01*
X0013375Y0109038D01*
X0013369Y0109184D01*
X0013367Y0109331D01*
X0241713Y0109331D02*
X0241715Y0109478D01*
X0241721Y0109624D01*
X0241731Y0109770D01*
X0241745Y0109916D01*
X0241763Y0110062D01*
X0241784Y0110207D01*
X0241810Y0110351D01*
X0241840Y0110495D01*
X0241873Y0110637D01*
X0241910Y0110779D01*
X0241951Y0110920D01*
X0241996Y0111059D01*
X0242045Y0111198D01*
X0242097Y0111335D01*
X0242154Y0111470D01*
X0242213Y0111604D01*
X0242277Y0111736D01*
X0242344Y0111866D01*
X0242414Y0111995D01*
X0242488Y0112122D01*
X0242565Y0112246D01*
X0242646Y0112369D01*
X0242730Y0112489D01*
X0242817Y0112607D01*
X0242907Y0112722D01*
X0243000Y0112835D01*
X0243097Y0112946D01*
X0243196Y0113054D01*
X0243298Y0113159D01*
X0243403Y0113261D01*
X0243511Y0113360D01*
X0243622Y0113457D01*
X0243735Y0113550D01*
X0243850Y0113640D01*
X0243968Y0113727D01*
X0244088Y0113811D01*
X0244211Y0113892D01*
X0244335Y0113969D01*
X0244462Y0114043D01*
X0244591Y0114113D01*
X0244721Y0114180D01*
X0244853Y0114244D01*
X0244987Y0114303D01*
X0245122Y0114360D01*
X0245259Y0114412D01*
X0245398Y0114461D01*
X0245537Y0114506D01*
X0245678Y0114547D01*
X0245820Y0114584D01*
X0245962Y0114617D01*
X0246106Y0114647D01*
X0246250Y0114673D01*
X0246395Y0114694D01*
X0246541Y0114712D01*
X0246687Y0114726D01*
X0246833Y0114736D01*
X0246979Y0114742D01*
X0247126Y0114744D01*
X0247273Y0114742D01*
X0247419Y0114736D01*
X0247565Y0114726D01*
X0247711Y0114712D01*
X0247857Y0114694D01*
X0248002Y0114673D01*
X0248146Y0114647D01*
X0248290Y0114617D01*
X0248432Y0114584D01*
X0248574Y0114547D01*
X0248715Y0114506D01*
X0248854Y0114461D01*
X0248993Y0114412D01*
X0249130Y0114360D01*
X0249265Y0114303D01*
X0249399Y0114244D01*
X0249531Y0114180D01*
X0249661Y0114113D01*
X0249790Y0114043D01*
X0249917Y0113969D01*
X0250041Y0113892D01*
X0250164Y0113811D01*
X0250284Y0113727D01*
X0250402Y0113640D01*
X0250517Y0113550D01*
X0250630Y0113457D01*
X0250741Y0113360D01*
X0250849Y0113261D01*
X0250954Y0113159D01*
X0251056Y0113054D01*
X0251155Y0112946D01*
X0251252Y0112835D01*
X0251345Y0112722D01*
X0251435Y0112607D01*
X0251522Y0112489D01*
X0251606Y0112369D01*
X0251687Y0112246D01*
X0251764Y0112122D01*
X0251838Y0111995D01*
X0251908Y0111866D01*
X0251975Y0111736D01*
X0252039Y0111604D01*
X0252098Y0111470D01*
X0252155Y0111335D01*
X0252207Y0111198D01*
X0252256Y0111059D01*
X0252301Y0110920D01*
X0252342Y0110779D01*
X0252379Y0110637D01*
X0252412Y0110495D01*
X0252442Y0110351D01*
X0252468Y0110207D01*
X0252489Y0110062D01*
X0252507Y0109916D01*
X0252521Y0109770D01*
X0252531Y0109624D01*
X0252537Y0109478D01*
X0252539Y0109331D01*
X0252537Y0109184D01*
X0252531Y0109038D01*
X0252521Y0108892D01*
X0252507Y0108746D01*
X0252489Y0108600D01*
X0252468Y0108455D01*
X0252442Y0108311D01*
X0252412Y0108167D01*
X0252379Y0108025D01*
X0252342Y0107883D01*
X0252301Y0107742D01*
X0252256Y0107603D01*
X0252207Y0107464D01*
X0252155Y0107327D01*
X0252098Y0107192D01*
X0252039Y0107058D01*
X0251975Y0106926D01*
X0251908Y0106796D01*
X0251838Y0106667D01*
X0251764Y0106540D01*
X0251687Y0106416D01*
X0251606Y0106293D01*
X0251522Y0106173D01*
X0251435Y0106055D01*
X0251345Y0105940D01*
X0251252Y0105827D01*
X0251155Y0105716D01*
X0251056Y0105608D01*
X0250954Y0105503D01*
X0250849Y0105401D01*
X0250741Y0105302D01*
X0250630Y0105205D01*
X0250517Y0105112D01*
X0250402Y0105022D01*
X0250284Y0104935D01*
X0250164Y0104851D01*
X0250041Y0104770D01*
X0249917Y0104693D01*
X0249790Y0104619D01*
X0249661Y0104549D01*
X0249531Y0104482D01*
X0249399Y0104418D01*
X0249265Y0104359D01*
X0249130Y0104302D01*
X0248993Y0104250D01*
X0248854Y0104201D01*
X0248715Y0104156D01*
X0248574Y0104115D01*
X0248432Y0104078D01*
X0248290Y0104045D01*
X0248146Y0104015D01*
X0248002Y0103989D01*
X0247857Y0103968D01*
X0247711Y0103950D01*
X0247565Y0103936D01*
X0247419Y0103926D01*
X0247273Y0103920D01*
X0247126Y0103918D01*
X0246979Y0103920D01*
X0246833Y0103926D01*
X0246687Y0103936D01*
X0246541Y0103950D01*
X0246395Y0103968D01*
X0246250Y0103989D01*
X0246106Y0104015D01*
X0245962Y0104045D01*
X0245820Y0104078D01*
X0245678Y0104115D01*
X0245537Y0104156D01*
X0245398Y0104201D01*
X0245259Y0104250D01*
X0245122Y0104302D01*
X0244987Y0104359D01*
X0244853Y0104418D01*
X0244721Y0104482D01*
X0244591Y0104549D01*
X0244462Y0104619D01*
X0244335Y0104693D01*
X0244211Y0104770D01*
X0244088Y0104851D01*
X0243968Y0104935D01*
X0243850Y0105022D01*
X0243735Y0105112D01*
X0243622Y0105205D01*
X0243511Y0105302D01*
X0243403Y0105401D01*
X0243298Y0105503D01*
X0243196Y0105608D01*
X0243097Y0105716D01*
X0243000Y0105827D01*
X0242907Y0105940D01*
X0242817Y0106055D01*
X0242730Y0106173D01*
X0242646Y0106293D01*
X0242565Y0106416D01*
X0242488Y0106540D01*
X0242414Y0106667D01*
X0242344Y0106796D01*
X0242277Y0106926D01*
X0242213Y0107058D01*
X0242154Y0107192D01*
X0242097Y0107327D01*
X0242045Y0107464D01*
X0241996Y0107603D01*
X0241951Y0107742D01*
X0241910Y0107883D01*
X0241873Y0108025D01*
X0241840Y0108167D01*
X0241810Y0108311D01*
X0241784Y0108455D01*
X0241763Y0108600D01*
X0241745Y0108746D01*
X0241731Y0108892D01*
X0241721Y0109038D01*
X0241715Y0109184D01*
X0241713Y0109331D01*
X0241713Y0018780D02*
X0241715Y0018927D01*
X0241721Y0019073D01*
X0241731Y0019219D01*
X0241745Y0019365D01*
X0241763Y0019511D01*
X0241784Y0019656D01*
X0241810Y0019800D01*
X0241840Y0019944D01*
X0241873Y0020086D01*
X0241910Y0020228D01*
X0241951Y0020369D01*
X0241996Y0020508D01*
X0242045Y0020647D01*
X0242097Y0020784D01*
X0242154Y0020919D01*
X0242213Y0021053D01*
X0242277Y0021185D01*
X0242344Y0021315D01*
X0242414Y0021444D01*
X0242488Y0021571D01*
X0242565Y0021695D01*
X0242646Y0021818D01*
X0242730Y0021938D01*
X0242817Y0022056D01*
X0242907Y0022171D01*
X0243000Y0022284D01*
X0243097Y0022395D01*
X0243196Y0022503D01*
X0243298Y0022608D01*
X0243403Y0022710D01*
X0243511Y0022809D01*
X0243622Y0022906D01*
X0243735Y0022999D01*
X0243850Y0023089D01*
X0243968Y0023176D01*
X0244088Y0023260D01*
X0244211Y0023341D01*
X0244335Y0023418D01*
X0244462Y0023492D01*
X0244591Y0023562D01*
X0244721Y0023629D01*
X0244853Y0023693D01*
X0244987Y0023752D01*
X0245122Y0023809D01*
X0245259Y0023861D01*
X0245398Y0023910D01*
X0245537Y0023955D01*
X0245678Y0023996D01*
X0245820Y0024033D01*
X0245962Y0024066D01*
X0246106Y0024096D01*
X0246250Y0024122D01*
X0246395Y0024143D01*
X0246541Y0024161D01*
X0246687Y0024175D01*
X0246833Y0024185D01*
X0246979Y0024191D01*
X0247126Y0024193D01*
X0247273Y0024191D01*
X0247419Y0024185D01*
X0247565Y0024175D01*
X0247711Y0024161D01*
X0247857Y0024143D01*
X0248002Y0024122D01*
X0248146Y0024096D01*
X0248290Y0024066D01*
X0248432Y0024033D01*
X0248574Y0023996D01*
X0248715Y0023955D01*
X0248854Y0023910D01*
X0248993Y0023861D01*
X0249130Y0023809D01*
X0249265Y0023752D01*
X0249399Y0023693D01*
X0249531Y0023629D01*
X0249661Y0023562D01*
X0249790Y0023492D01*
X0249917Y0023418D01*
X0250041Y0023341D01*
X0250164Y0023260D01*
X0250284Y0023176D01*
X0250402Y0023089D01*
X0250517Y0022999D01*
X0250630Y0022906D01*
X0250741Y0022809D01*
X0250849Y0022710D01*
X0250954Y0022608D01*
X0251056Y0022503D01*
X0251155Y0022395D01*
X0251252Y0022284D01*
X0251345Y0022171D01*
X0251435Y0022056D01*
X0251522Y0021938D01*
X0251606Y0021818D01*
X0251687Y0021695D01*
X0251764Y0021571D01*
X0251838Y0021444D01*
X0251908Y0021315D01*
X0251975Y0021185D01*
X0252039Y0021053D01*
X0252098Y0020919D01*
X0252155Y0020784D01*
X0252207Y0020647D01*
X0252256Y0020508D01*
X0252301Y0020369D01*
X0252342Y0020228D01*
X0252379Y0020086D01*
X0252412Y0019944D01*
X0252442Y0019800D01*
X0252468Y0019656D01*
X0252489Y0019511D01*
X0252507Y0019365D01*
X0252521Y0019219D01*
X0252531Y0019073D01*
X0252537Y0018927D01*
X0252539Y0018780D01*
X0252537Y0018633D01*
X0252531Y0018487D01*
X0252521Y0018341D01*
X0252507Y0018195D01*
X0252489Y0018049D01*
X0252468Y0017904D01*
X0252442Y0017760D01*
X0252412Y0017616D01*
X0252379Y0017474D01*
X0252342Y0017332D01*
X0252301Y0017191D01*
X0252256Y0017052D01*
X0252207Y0016913D01*
X0252155Y0016776D01*
X0252098Y0016641D01*
X0252039Y0016507D01*
X0251975Y0016375D01*
X0251908Y0016245D01*
X0251838Y0016116D01*
X0251764Y0015989D01*
X0251687Y0015865D01*
X0251606Y0015742D01*
X0251522Y0015622D01*
X0251435Y0015504D01*
X0251345Y0015389D01*
X0251252Y0015276D01*
X0251155Y0015165D01*
X0251056Y0015057D01*
X0250954Y0014952D01*
X0250849Y0014850D01*
X0250741Y0014751D01*
X0250630Y0014654D01*
X0250517Y0014561D01*
X0250402Y0014471D01*
X0250284Y0014384D01*
X0250164Y0014300D01*
X0250041Y0014219D01*
X0249917Y0014142D01*
X0249790Y0014068D01*
X0249661Y0013998D01*
X0249531Y0013931D01*
X0249399Y0013867D01*
X0249265Y0013808D01*
X0249130Y0013751D01*
X0248993Y0013699D01*
X0248854Y0013650D01*
X0248715Y0013605D01*
X0248574Y0013564D01*
X0248432Y0013527D01*
X0248290Y0013494D01*
X0248146Y0013464D01*
X0248002Y0013438D01*
X0247857Y0013417D01*
X0247711Y0013399D01*
X0247565Y0013385D01*
X0247419Y0013375D01*
X0247273Y0013369D01*
X0247126Y0013367D01*
X0246979Y0013369D01*
X0246833Y0013375D01*
X0246687Y0013385D01*
X0246541Y0013399D01*
X0246395Y0013417D01*
X0246250Y0013438D01*
X0246106Y0013464D01*
X0245962Y0013494D01*
X0245820Y0013527D01*
X0245678Y0013564D01*
X0245537Y0013605D01*
X0245398Y0013650D01*
X0245259Y0013699D01*
X0245122Y0013751D01*
X0244987Y0013808D01*
X0244853Y0013867D01*
X0244721Y0013931D01*
X0244591Y0013998D01*
X0244462Y0014068D01*
X0244335Y0014142D01*
X0244211Y0014219D01*
X0244088Y0014300D01*
X0243968Y0014384D01*
X0243850Y0014471D01*
X0243735Y0014561D01*
X0243622Y0014654D01*
X0243511Y0014751D01*
X0243403Y0014850D01*
X0243298Y0014952D01*
X0243196Y0015057D01*
X0243097Y0015165D01*
X0243000Y0015276D01*
X0242907Y0015389D01*
X0242817Y0015504D01*
X0242730Y0015622D01*
X0242646Y0015742D01*
X0242565Y0015865D01*
X0242488Y0015989D01*
X0242414Y0016116D01*
X0242344Y0016245D01*
X0242277Y0016375D01*
X0242213Y0016507D01*
X0242154Y0016641D01*
X0242097Y0016776D01*
X0242045Y0016913D01*
X0241996Y0017052D01*
X0241951Y0017191D01*
X0241910Y0017332D01*
X0241873Y0017474D01*
X0241840Y0017616D01*
X0241810Y0017760D01*
X0241784Y0017904D01*
X0241763Y0018049D01*
X0241745Y0018195D01*
X0241731Y0018341D01*
X0241721Y0018487D01*
X0241715Y0018633D01*
X0241713Y0018780D01*
D11*
X0195000Y0030000D03*
X0185000Y0030000D03*
X0170000Y0055000D03*
X0160000Y0055000D03*
X0185000Y0080000D03*
X0195000Y0080000D03*
X0210000Y0055000D03*
X0220000Y0055000D03*
D12*
X0037953Y0104331D03*
D13*
X0047953Y0104331D03*
X0057953Y0104331D03*
X0067953Y0104331D03*
X0077953Y0104331D03*
X0087953Y0104331D03*
X0097953Y0104331D03*
X0107953Y0104331D03*
X0117953Y0104331D03*
X0127953Y0104331D03*
X0137953Y0104331D03*
X0147953Y0104331D03*
X0157953Y0104331D03*
X0167953Y0104331D03*
X0177953Y0104331D03*
X0187953Y0104331D03*
X0197953Y0104331D03*
X0207953Y0104331D03*
X0217953Y0104331D03*
X0227953Y0104331D03*
X0227953Y0114331D03*
X0217953Y0114331D03*
X0207953Y0114331D03*
X0197953Y0114331D03*
X0187953Y0114331D03*
X0177953Y0114331D03*
X0167953Y0114331D03*
X0157953Y0114331D03*
X0147953Y0114331D03*
X0137953Y0114331D03*
X0127953Y0114331D03*
X0117953Y0114331D03*
X0107953Y0114331D03*
X0097953Y0114331D03*
X0087953Y0114331D03*
X0077953Y0114331D03*
X0067953Y0114331D03*
X0057953Y0114331D03*
X0047953Y0114331D03*
X0037953Y0114331D03*
D14*
X0018780Y0109331D03*
X0018780Y0018780D03*
X0247126Y0018780D03*
X0247126Y0109331D03*
D15*
X0060000Y0073937D03*
X0050000Y0073937D03*
X0040000Y0073937D03*
D16*
X0065000Y0060000D03*
X0140000Y0085000D03*
X0145000Y0080000D03*
M02*
