G75*
%MOIN*%
%OFA0B0*%
%FSLAX25Y25*%
%IPPOS*%
%LPD*%
%AMOC8*
5,1,8,0,0,1.08239X$1,22.5*
%
%ADD10C,0.00000*%
%ADD11OC8,0.05200*%
%ADD12R,0.07000X0.07000*%
%ADD13C,0.07000*%
%ADD14C,0.05583*%
%ADD15C,0.02978*%
%ADD16C,0.03200*%
%ADD17C,0.02400*%
%ADD18C,0.00600*%
D10*
X0016899Y0005000D02*
X0249166Y0005000D01*
X0249450Y0005003D01*
X0249734Y0005014D01*
X0250017Y0005031D01*
X0250301Y0005055D01*
X0250583Y0005086D01*
X0250864Y0005123D01*
X0251145Y0005168D01*
X0251424Y0005219D01*
X0251703Y0005277D01*
X0251979Y0005342D01*
X0252254Y0005413D01*
X0252527Y0005491D01*
X0252798Y0005575D01*
X0253068Y0005666D01*
X0253334Y0005764D01*
X0253599Y0005868D01*
X0253861Y0005978D01*
X0254120Y0006095D01*
X0254376Y0006218D01*
X0254629Y0006346D01*
X0254879Y0006482D01*
X0255125Y0006623D01*
X0255368Y0006770D01*
X0255608Y0006922D01*
X0255844Y0007081D01*
X0256075Y0007245D01*
X0256303Y0007415D01*
X0256527Y0007590D01*
X0256746Y0007770D01*
X0256961Y0007956D01*
X0257171Y0008147D01*
X0257377Y0008343D01*
X0257578Y0008544D01*
X0257774Y0008750D01*
X0257965Y0008960D01*
X0258151Y0009175D01*
X0258331Y0009394D01*
X0258506Y0009618D01*
X0258676Y0009846D01*
X0258840Y0010077D01*
X0258999Y0010313D01*
X0259151Y0010553D01*
X0259298Y0010796D01*
X0259439Y0011042D01*
X0259575Y0011292D01*
X0259703Y0011545D01*
X0259826Y0011801D01*
X0259943Y0012060D01*
X0260053Y0012322D01*
X0260157Y0012587D01*
X0260255Y0012853D01*
X0260346Y0013123D01*
X0260430Y0013394D01*
X0260508Y0013667D01*
X0260579Y0013942D01*
X0260644Y0014218D01*
X0260702Y0014497D01*
X0260753Y0014776D01*
X0260798Y0015057D01*
X0260835Y0015338D01*
X0260866Y0015620D01*
X0260890Y0015904D01*
X0260907Y0016187D01*
X0260918Y0016471D01*
X0260921Y0016755D01*
X0260921Y0111192D01*
X0260917Y0111482D01*
X0260907Y0111772D01*
X0260889Y0112062D01*
X0260865Y0112351D01*
X0260833Y0112640D01*
X0260795Y0112927D01*
X0260750Y0113214D01*
X0260697Y0113499D01*
X0260638Y0113783D01*
X0260572Y0114066D01*
X0260499Y0114347D01*
X0260420Y0114626D01*
X0260333Y0114903D01*
X0260240Y0115178D01*
X0260141Y0115450D01*
X0260034Y0115721D01*
X0259922Y0115988D01*
X0259803Y0116253D01*
X0259677Y0116514D01*
X0259545Y0116773D01*
X0259407Y0117028D01*
X0259263Y0117280D01*
X0259113Y0117528D01*
X0258957Y0117773D01*
X0258795Y0118014D01*
X0258627Y0118251D01*
X0258454Y0118483D01*
X0258275Y0118712D01*
X0258091Y0118936D01*
X0257901Y0119155D01*
X0257706Y0119370D01*
X0257506Y0119580D01*
X0257300Y0119786D01*
X0257090Y0119986D01*
X0256875Y0120181D01*
X0256656Y0120371D01*
X0256432Y0120555D01*
X0256203Y0120734D01*
X0255971Y0120907D01*
X0255734Y0121075D01*
X0255493Y0121237D01*
X0255248Y0121393D01*
X0255000Y0121543D01*
X0254748Y0121687D01*
X0254493Y0121825D01*
X0254234Y0121957D01*
X0253973Y0122083D01*
X0253708Y0122202D01*
X0253441Y0122314D01*
X0253170Y0122421D01*
X0252898Y0122520D01*
X0252623Y0122613D01*
X0252346Y0122700D01*
X0252067Y0122779D01*
X0251786Y0122852D01*
X0251503Y0122918D01*
X0251219Y0122977D01*
X0250934Y0123030D01*
X0250647Y0123075D01*
X0250360Y0123113D01*
X0250071Y0123145D01*
X0249782Y0123169D01*
X0249492Y0123187D01*
X0249202Y0123197D01*
X0248912Y0123201D01*
X0017261Y0123201D01*
X0016965Y0123197D01*
X0016669Y0123187D01*
X0016373Y0123169D01*
X0016078Y0123144D01*
X0015783Y0123112D01*
X0015489Y0123072D01*
X0015197Y0123026D01*
X0014905Y0122973D01*
X0014615Y0122912D01*
X0014327Y0122845D01*
X0014040Y0122770D01*
X0013755Y0122689D01*
X0013472Y0122601D01*
X0013191Y0122506D01*
X0012913Y0122404D01*
X0012637Y0122296D01*
X0012364Y0122181D01*
X0012094Y0122059D01*
X0011827Y0121931D01*
X0011563Y0121797D01*
X0011302Y0121656D01*
X0011045Y0121509D01*
X0010792Y0121355D01*
X0010542Y0121196D01*
X0010296Y0121031D01*
X0010054Y0120859D01*
X0009817Y0120682D01*
X0009583Y0120500D01*
X0009355Y0120311D01*
X0009130Y0120117D01*
X0008911Y0119918D01*
X0008697Y0119714D01*
X0008487Y0119504D01*
X0008283Y0119290D01*
X0008084Y0119071D01*
X0007890Y0118846D01*
X0007701Y0118618D01*
X0007519Y0118384D01*
X0007342Y0118147D01*
X0007170Y0117905D01*
X0007005Y0117659D01*
X0006846Y0117409D01*
X0006692Y0117156D01*
X0006545Y0116899D01*
X0006404Y0116638D01*
X0006270Y0116374D01*
X0006142Y0116107D01*
X0006020Y0115837D01*
X0005905Y0115564D01*
X0005797Y0115288D01*
X0005695Y0115010D01*
X0005600Y0114729D01*
X0005512Y0114446D01*
X0005431Y0114161D01*
X0005356Y0113874D01*
X0005289Y0113586D01*
X0005228Y0113296D01*
X0005175Y0113004D01*
X0005129Y0112712D01*
X0005089Y0112418D01*
X0005057Y0112123D01*
X0005032Y0111828D01*
X0005014Y0111532D01*
X0005004Y0111236D01*
X0005000Y0110940D01*
X0005000Y0016899D01*
X0005003Y0016611D01*
X0005014Y0016324D01*
X0005031Y0016037D01*
X0005056Y0015751D01*
X0005087Y0015465D01*
X0005125Y0015180D01*
X0005170Y0014896D01*
X0005222Y0014613D01*
X0005280Y0014331D01*
X0005346Y0014051D01*
X0005418Y0013773D01*
X0005497Y0013497D01*
X0005582Y0013222D01*
X0005675Y0012950D01*
X0005773Y0012680D01*
X0005878Y0012412D01*
X0005990Y0012147D01*
X0006108Y0011885D01*
X0006232Y0011625D01*
X0006363Y0011369D01*
X0006500Y0011116D01*
X0006642Y0010867D01*
X0006791Y0010621D01*
X0006946Y0010378D01*
X0007106Y0010140D01*
X0007273Y0009905D01*
X0007444Y0009674D01*
X0007622Y0009448D01*
X0007804Y0009226D01*
X0007992Y0009009D01*
X0008186Y0008796D01*
X0008384Y0008587D01*
X0008587Y0008384D01*
X0008796Y0008186D01*
X0009009Y0007992D01*
X0009226Y0007804D01*
X0009448Y0007622D01*
X0009674Y0007444D01*
X0009905Y0007273D01*
X0010140Y0007106D01*
X0010378Y0006946D01*
X0010621Y0006791D01*
X0010867Y0006642D01*
X0011116Y0006500D01*
X0011369Y0006363D01*
X0011625Y0006232D01*
X0011885Y0006108D01*
X0012147Y0005990D01*
X0012412Y0005878D01*
X0012680Y0005773D01*
X0012950Y0005675D01*
X0013222Y0005582D01*
X0013497Y0005497D01*
X0013773Y0005418D01*
X0014051Y0005346D01*
X0014331Y0005280D01*
X0014613Y0005222D01*
X0014896Y0005170D01*
X0015180Y0005125D01*
X0015465Y0005087D01*
X0015751Y0005056D01*
X0016037Y0005031D01*
X0016324Y0005014D01*
X0016611Y0005003D01*
X0016899Y0005000D01*
X0013367Y0018780D02*
X0013369Y0018927D01*
X0013375Y0019073D01*
X0013385Y0019219D01*
X0013399Y0019365D01*
X0013417Y0019511D01*
X0013438Y0019656D01*
X0013464Y0019800D01*
X0013494Y0019944D01*
X0013527Y0020086D01*
X0013564Y0020228D01*
X0013605Y0020369D01*
X0013650Y0020508D01*
X0013699Y0020647D01*
X0013751Y0020784D01*
X0013808Y0020919D01*
X0013867Y0021053D01*
X0013931Y0021185D01*
X0013998Y0021315D01*
X0014068Y0021444D01*
X0014142Y0021571D01*
X0014219Y0021695D01*
X0014300Y0021818D01*
X0014384Y0021938D01*
X0014471Y0022056D01*
X0014561Y0022171D01*
X0014654Y0022284D01*
X0014751Y0022395D01*
X0014850Y0022503D01*
X0014952Y0022608D01*
X0015057Y0022710D01*
X0015165Y0022809D01*
X0015276Y0022906D01*
X0015389Y0022999D01*
X0015504Y0023089D01*
X0015622Y0023176D01*
X0015742Y0023260D01*
X0015865Y0023341D01*
X0015989Y0023418D01*
X0016116Y0023492D01*
X0016245Y0023562D01*
X0016375Y0023629D01*
X0016507Y0023693D01*
X0016641Y0023752D01*
X0016776Y0023809D01*
X0016913Y0023861D01*
X0017052Y0023910D01*
X0017191Y0023955D01*
X0017332Y0023996D01*
X0017474Y0024033D01*
X0017616Y0024066D01*
X0017760Y0024096D01*
X0017904Y0024122D01*
X0018049Y0024143D01*
X0018195Y0024161D01*
X0018341Y0024175D01*
X0018487Y0024185D01*
X0018633Y0024191D01*
X0018780Y0024193D01*
X0018927Y0024191D01*
X0019073Y0024185D01*
X0019219Y0024175D01*
X0019365Y0024161D01*
X0019511Y0024143D01*
X0019656Y0024122D01*
X0019800Y0024096D01*
X0019944Y0024066D01*
X0020086Y0024033D01*
X0020228Y0023996D01*
X0020369Y0023955D01*
X0020508Y0023910D01*
X0020647Y0023861D01*
X0020784Y0023809D01*
X0020919Y0023752D01*
X0021053Y0023693D01*
X0021185Y0023629D01*
X0021315Y0023562D01*
X0021444Y0023492D01*
X0021571Y0023418D01*
X0021695Y0023341D01*
X0021818Y0023260D01*
X0021938Y0023176D01*
X0022056Y0023089D01*
X0022171Y0022999D01*
X0022284Y0022906D01*
X0022395Y0022809D01*
X0022503Y0022710D01*
X0022608Y0022608D01*
X0022710Y0022503D01*
X0022809Y0022395D01*
X0022906Y0022284D01*
X0022999Y0022171D01*
X0023089Y0022056D01*
X0023176Y0021938D01*
X0023260Y0021818D01*
X0023341Y0021695D01*
X0023418Y0021571D01*
X0023492Y0021444D01*
X0023562Y0021315D01*
X0023629Y0021185D01*
X0023693Y0021053D01*
X0023752Y0020919D01*
X0023809Y0020784D01*
X0023861Y0020647D01*
X0023910Y0020508D01*
X0023955Y0020369D01*
X0023996Y0020228D01*
X0024033Y0020086D01*
X0024066Y0019944D01*
X0024096Y0019800D01*
X0024122Y0019656D01*
X0024143Y0019511D01*
X0024161Y0019365D01*
X0024175Y0019219D01*
X0024185Y0019073D01*
X0024191Y0018927D01*
X0024193Y0018780D01*
X0024191Y0018633D01*
X0024185Y0018487D01*
X0024175Y0018341D01*
X0024161Y0018195D01*
X0024143Y0018049D01*
X0024122Y0017904D01*
X0024096Y0017760D01*
X0024066Y0017616D01*
X0024033Y0017474D01*
X0023996Y0017332D01*
X0023955Y0017191D01*
X0023910Y0017052D01*
X0023861Y0016913D01*
X0023809Y0016776D01*
X0023752Y0016641D01*
X0023693Y0016507D01*
X0023629Y0016375D01*
X0023562Y0016245D01*
X0023492Y0016116D01*
X0023418Y0015989D01*
X0023341Y0015865D01*
X0023260Y0015742D01*
X0023176Y0015622D01*
X0023089Y0015504D01*
X0022999Y0015389D01*
X0022906Y0015276D01*
X0022809Y0015165D01*
X0022710Y0015057D01*
X0022608Y0014952D01*
X0022503Y0014850D01*
X0022395Y0014751D01*
X0022284Y0014654D01*
X0022171Y0014561D01*
X0022056Y0014471D01*
X0021938Y0014384D01*
X0021818Y0014300D01*
X0021695Y0014219D01*
X0021571Y0014142D01*
X0021444Y0014068D01*
X0021315Y0013998D01*
X0021185Y0013931D01*
X0021053Y0013867D01*
X0020919Y0013808D01*
X0020784Y0013751D01*
X0020647Y0013699D01*
X0020508Y0013650D01*
X0020369Y0013605D01*
X0020228Y0013564D01*
X0020086Y0013527D01*
X0019944Y0013494D01*
X0019800Y0013464D01*
X0019656Y0013438D01*
X0019511Y0013417D01*
X0019365Y0013399D01*
X0019219Y0013385D01*
X0019073Y0013375D01*
X0018927Y0013369D01*
X0018780Y0013367D01*
X0018633Y0013369D01*
X0018487Y0013375D01*
X0018341Y0013385D01*
X0018195Y0013399D01*
X0018049Y0013417D01*
X0017904Y0013438D01*
X0017760Y0013464D01*
X0017616Y0013494D01*
X0017474Y0013527D01*
X0017332Y0013564D01*
X0017191Y0013605D01*
X0017052Y0013650D01*
X0016913Y0013699D01*
X0016776Y0013751D01*
X0016641Y0013808D01*
X0016507Y0013867D01*
X0016375Y0013931D01*
X0016245Y0013998D01*
X0016116Y0014068D01*
X0015989Y0014142D01*
X0015865Y0014219D01*
X0015742Y0014300D01*
X0015622Y0014384D01*
X0015504Y0014471D01*
X0015389Y0014561D01*
X0015276Y0014654D01*
X0015165Y0014751D01*
X0015057Y0014850D01*
X0014952Y0014952D01*
X0014850Y0015057D01*
X0014751Y0015165D01*
X0014654Y0015276D01*
X0014561Y0015389D01*
X0014471Y0015504D01*
X0014384Y0015622D01*
X0014300Y0015742D01*
X0014219Y0015865D01*
X0014142Y0015989D01*
X0014068Y0016116D01*
X0013998Y0016245D01*
X0013931Y0016375D01*
X0013867Y0016507D01*
X0013808Y0016641D01*
X0013751Y0016776D01*
X0013699Y0016913D01*
X0013650Y0017052D01*
X0013605Y0017191D01*
X0013564Y0017332D01*
X0013527Y0017474D01*
X0013494Y0017616D01*
X0013464Y0017760D01*
X0013438Y0017904D01*
X0013417Y0018049D01*
X0013399Y0018195D01*
X0013385Y0018341D01*
X0013375Y0018487D01*
X0013369Y0018633D01*
X0013367Y0018780D01*
X0013367Y0109331D02*
X0013369Y0109478D01*
X0013375Y0109624D01*
X0013385Y0109770D01*
X0013399Y0109916D01*
X0013417Y0110062D01*
X0013438Y0110207D01*
X0013464Y0110351D01*
X0013494Y0110495D01*
X0013527Y0110637D01*
X0013564Y0110779D01*
X0013605Y0110920D01*
X0013650Y0111059D01*
X0013699Y0111198D01*
X0013751Y0111335D01*
X0013808Y0111470D01*
X0013867Y0111604D01*
X0013931Y0111736D01*
X0013998Y0111866D01*
X0014068Y0111995D01*
X0014142Y0112122D01*
X0014219Y0112246D01*
X0014300Y0112369D01*
X0014384Y0112489D01*
X0014471Y0112607D01*
X0014561Y0112722D01*
X0014654Y0112835D01*
X0014751Y0112946D01*
X0014850Y0113054D01*
X0014952Y0113159D01*
X0015057Y0113261D01*
X0015165Y0113360D01*
X0015276Y0113457D01*
X0015389Y0113550D01*
X0015504Y0113640D01*
X0015622Y0113727D01*
X0015742Y0113811D01*
X0015865Y0113892D01*
X0015989Y0113969D01*
X0016116Y0114043D01*
X0016245Y0114113D01*
X0016375Y0114180D01*
X0016507Y0114244D01*
X0016641Y0114303D01*
X0016776Y0114360D01*
X0016913Y0114412D01*
X0017052Y0114461D01*
X0017191Y0114506D01*
X0017332Y0114547D01*
X0017474Y0114584D01*
X0017616Y0114617D01*
X0017760Y0114647D01*
X0017904Y0114673D01*
X0018049Y0114694D01*
X0018195Y0114712D01*
X0018341Y0114726D01*
X0018487Y0114736D01*
X0018633Y0114742D01*
X0018780Y0114744D01*
X0018927Y0114742D01*
X0019073Y0114736D01*
X0019219Y0114726D01*
X0019365Y0114712D01*
X0019511Y0114694D01*
X0019656Y0114673D01*
X0019800Y0114647D01*
X0019944Y0114617D01*
X0020086Y0114584D01*
X0020228Y0114547D01*
X0020369Y0114506D01*
X0020508Y0114461D01*
X0020647Y0114412D01*
X0020784Y0114360D01*
X0020919Y0114303D01*
X0021053Y0114244D01*
X0021185Y0114180D01*
X0021315Y0114113D01*
X0021444Y0114043D01*
X0021571Y0113969D01*
X0021695Y0113892D01*
X0021818Y0113811D01*
X0021938Y0113727D01*
X0022056Y0113640D01*
X0022171Y0113550D01*
X0022284Y0113457D01*
X0022395Y0113360D01*
X0022503Y0113261D01*
X0022608Y0113159D01*
X0022710Y0113054D01*
X0022809Y0112946D01*
X0022906Y0112835D01*
X0022999Y0112722D01*
X0023089Y0112607D01*
X0023176Y0112489D01*
X0023260Y0112369D01*
X0023341Y0112246D01*
X0023418Y0112122D01*
X0023492Y0111995D01*
X0023562Y0111866D01*
X0023629Y0111736D01*
X0023693Y0111604D01*
X0023752Y0111470D01*
X0023809Y0111335D01*
X0023861Y0111198D01*
X0023910Y0111059D01*
X0023955Y0110920D01*
X0023996Y0110779D01*
X0024033Y0110637D01*
X0024066Y0110495D01*
X0024096Y0110351D01*
X0024122Y0110207D01*
X0024143Y0110062D01*
X0024161Y0109916D01*
X0024175Y0109770D01*
X0024185Y0109624D01*
X0024191Y0109478D01*
X0024193Y0109331D01*
X0024191Y0109184D01*
X0024185Y0109038D01*
X0024175Y0108892D01*
X0024161Y0108746D01*
X0024143Y0108600D01*
X0024122Y0108455D01*
X0024096Y0108311D01*
X0024066Y0108167D01*
X0024033Y0108025D01*
X0023996Y0107883D01*
X0023955Y0107742D01*
X0023910Y0107603D01*
X0023861Y0107464D01*
X0023809Y0107327D01*
X0023752Y0107192D01*
X0023693Y0107058D01*
X0023629Y0106926D01*
X0023562Y0106796D01*
X0023492Y0106667D01*
X0023418Y0106540D01*
X0023341Y0106416D01*
X0023260Y0106293D01*
X0023176Y0106173D01*
X0023089Y0106055D01*
X0022999Y0105940D01*
X0022906Y0105827D01*
X0022809Y0105716D01*
X0022710Y0105608D01*
X0022608Y0105503D01*
X0022503Y0105401D01*
X0022395Y0105302D01*
X0022284Y0105205D01*
X0022171Y0105112D01*
X0022056Y0105022D01*
X0021938Y0104935D01*
X0021818Y0104851D01*
X0021695Y0104770D01*
X0021571Y0104693D01*
X0021444Y0104619D01*
X0021315Y0104549D01*
X0021185Y0104482D01*
X0021053Y0104418D01*
X0020919Y0104359D01*
X0020784Y0104302D01*
X0020647Y0104250D01*
X0020508Y0104201D01*
X0020369Y0104156D01*
X0020228Y0104115D01*
X0020086Y0104078D01*
X0019944Y0104045D01*
X0019800Y0104015D01*
X0019656Y0103989D01*
X0019511Y0103968D01*
X0019365Y0103950D01*
X0019219Y0103936D01*
X0019073Y0103926D01*
X0018927Y0103920D01*
X0018780Y0103918D01*
X0018633Y0103920D01*
X0018487Y0103926D01*
X0018341Y0103936D01*
X0018195Y0103950D01*
X0018049Y0103968D01*
X0017904Y0103989D01*
X0017760Y0104015D01*
X0017616Y0104045D01*
X0017474Y0104078D01*
X0017332Y0104115D01*
X0017191Y0104156D01*
X0017052Y0104201D01*
X0016913Y0104250D01*
X0016776Y0104302D01*
X0016641Y0104359D01*
X0016507Y0104418D01*
X0016375Y0104482D01*
X0016245Y0104549D01*
X0016116Y0104619D01*
X0015989Y0104693D01*
X0015865Y0104770D01*
X0015742Y0104851D01*
X0015622Y0104935D01*
X0015504Y0105022D01*
X0015389Y0105112D01*
X0015276Y0105205D01*
X0015165Y0105302D01*
X0015057Y0105401D01*
X0014952Y0105503D01*
X0014850Y0105608D01*
X0014751Y0105716D01*
X0014654Y0105827D01*
X0014561Y0105940D01*
X0014471Y0106055D01*
X0014384Y0106173D01*
X0014300Y0106293D01*
X0014219Y0106416D01*
X0014142Y0106540D01*
X0014068Y0106667D01*
X0013998Y0106796D01*
X0013931Y0106926D01*
X0013867Y0107058D01*
X0013808Y0107192D01*
X0013751Y0107327D01*
X0013699Y0107464D01*
X0013650Y0107603D01*
X0013605Y0107742D01*
X0013564Y0107883D01*
X0013527Y0108025D01*
X0013494Y0108167D01*
X0013464Y0108311D01*
X0013438Y0108455D01*
X0013417Y0108600D01*
X0013399Y0108746D01*
X0013385Y0108892D01*
X0013375Y0109038D01*
X0013369Y0109184D01*
X0013367Y0109331D01*
X0241713Y0109331D02*
X0241715Y0109478D01*
X0241721Y0109624D01*
X0241731Y0109770D01*
X0241745Y0109916D01*
X0241763Y0110062D01*
X0241784Y0110207D01*
X0241810Y0110351D01*
X0241840Y0110495D01*
X0241873Y0110637D01*
X0241910Y0110779D01*
X0241951Y0110920D01*
X0241996Y0111059D01*
X0242045Y0111198D01*
X0242097Y0111335D01*
X0242154Y0111470D01*
X0242213Y0111604D01*
X0242277Y0111736D01*
X0242344Y0111866D01*
X0242414Y0111995D01*
X0242488Y0112122D01*
X0242565Y0112246D01*
X0242646Y0112369D01*
X0242730Y0112489D01*
X0242817Y0112607D01*
X0242907Y0112722D01*
X0243000Y0112835D01*
X0243097Y0112946D01*
X0243196Y0113054D01*
X0243298Y0113159D01*
X0243403Y0113261D01*
X0243511Y0113360D01*
X0243622Y0113457D01*
X0243735Y0113550D01*
X0243850Y0113640D01*
X0243968Y0113727D01*
X0244088Y0113811D01*
X0244211Y0113892D01*
X0244335Y0113969D01*
X0244462Y0114043D01*
X0244591Y0114113D01*
X0244721Y0114180D01*
X0244853Y0114244D01*
X0244987Y0114303D01*
X0245122Y0114360D01*
X0245259Y0114412D01*
X0245398Y0114461D01*
X0245537Y0114506D01*
X0245678Y0114547D01*
X0245820Y0114584D01*
X0245962Y0114617D01*
X0246106Y0114647D01*
X0246250Y0114673D01*
X0246395Y0114694D01*
X0246541Y0114712D01*
X0246687Y0114726D01*
X0246833Y0114736D01*
X0246979Y0114742D01*
X0247126Y0114744D01*
X0247273Y0114742D01*
X0247419Y0114736D01*
X0247565Y0114726D01*
X0247711Y0114712D01*
X0247857Y0114694D01*
X0248002Y0114673D01*
X0248146Y0114647D01*
X0248290Y0114617D01*
X0248432Y0114584D01*
X0248574Y0114547D01*
X0248715Y0114506D01*
X0248854Y0114461D01*
X0248993Y0114412D01*
X0249130Y0114360D01*
X0249265Y0114303D01*
X0249399Y0114244D01*
X0249531Y0114180D01*
X0249661Y0114113D01*
X0249790Y0114043D01*
X0249917Y0113969D01*
X0250041Y0113892D01*
X0250164Y0113811D01*
X0250284Y0113727D01*
X0250402Y0113640D01*
X0250517Y0113550D01*
X0250630Y0113457D01*
X0250741Y0113360D01*
X0250849Y0113261D01*
X0250954Y0113159D01*
X0251056Y0113054D01*
X0251155Y0112946D01*
X0251252Y0112835D01*
X0251345Y0112722D01*
X0251435Y0112607D01*
X0251522Y0112489D01*
X0251606Y0112369D01*
X0251687Y0112246D01*
X0251764Y0112122D01*
X0251838Y0111995D01*
X0251908Y0111866D01*
X0251975Y0111736D01*
X0252039Y0111604D01*
X0252098Y0111470D01*
X0252155Y0111335D01*
X0252207Y0111198D01*
X0252256Y0111059D01*
X0252301Y0110920D01*
X0252342Y0110779D01*
X0252379Y0110637D01*
X0252412Y0110495D01*
X0252442Y0110351D01*
X0252468Y0110207D01*
X0252489Y0110062D01*
X0252507Y0109916D01*
X0252521Y0109770D01*
X0252531Y0109624D01*
X0252537Y0109478D01*
X0252539Y0109331D01*
X0252537Y0109184D01*
X0252531Y0109038D01*
X0252521Y0108892D01*
X0252507Y0108746D01*
X0252489Y0108600D01*
X0252468Y0108455D01*
X0252442Y0108311D01*
X0252412Y0108167D01*
X0252379Y0108025D01*
X0252342Y0107883D01*
X0252301Y0107742D01*
X0252256Y0107603D01*
X0252207Y0107464D01*
X0252155Y0107327D01*
X0252098Y0107192D01*
X0252039Y0107058D01*
X0251975Y0106926D01*
X0251908Y0106796D01*
X0251838Y0106667D01*
X0251764Y0106540D01*
X0251687Y0106416D01*
X0251606Y0106293D01*
X0251522Y0106173D01*
X0251435Y0106055D01*
X0251345Y0105940D01*
X0251252Y0105827D01*
X0251155Y0105716D01*
X0251056Y0105608D01*
X0250954Y0105503D01*
X0250849Y0105401D01*
X0250741Y0105302D01*
X0250630Y0105205D01*
X0250517Y0105112D01*
X0250402Y0105022D01*
X0250284Y0104935D01*
X0250164Y0104851D01*
X0250041Y0104770D01*
X0249917Y0104693D01*
X0249790Y0104619D01*
X0249661Y0104549D01*
X0249531Y0104482D01*
X0249399Y0104418D01*
X0249265Y0104359D01*
X0249130Y0104302D01*
X0248993Y0104250D01*
X0248854Y0104201D01*
X0248715Y0104156D01*
X0248574Y0104115D01*
X0248432Y0104078D01*
X0248290Y0104045D01*
X0248146Y0104015D01*
X0248002Y0103989D01*
X0247857Y0103968D01*
X0247711Y0103950D01*
X0247565Y0103936D01*
X0247419Y0103926D01*
X0247273Y0103920D01*
X0247126Y0103918D01*
X0246979Y0103920D01*
X0246833Y0103926D01*
X0246687Y0103936D01*
X0246541Y0103950D01*
X0246395Y0103968D01*
X0246250Y0103989D01*
X0246106Y0104015D01*
X0245962Y0104045D01*
X0245820Y0104078D01*
X0245678Y0104115D01*
X0245537Y0104156D01*
X0245398Y0104201D01*
X0245259Y0104250D01*
X0245122Y0104302D01*
X0244987Y0104359D01*
X0244853Y0104418D01*
X0244721Y0104482D01*
X0244591Y0104549D01*
X0244462Y0104619D01*
X0244335Y0104693D01*
X0244211Y0104770D01*
X0244088Y0104851D01*
X0243968Y0104935D01*
X0243850Y0105022D01*
X0243735Y0105112D01*
X0243622Y0105205D01*
X0243511Y0105302D01*
X0243403Y0105401D01*
X0243298Y0105503D01*
X0243196Y0105608D01*
X0243097Y0105716D01*
X0243000Y0105827D01*
X0242907Y0105940D01*
X0242817Y0106055D01*
X0242730Y0106173D01*
X0242646Y0106293D01*
X0242565Y0106416D01*
X0242488Y0106540D01*
X0242414Y0106667D01*
X0242344Y0106796D01*
X0242277Y0106926D01*
X0242213Y0107058D01*
X0242154Y0107192D01*
X0242097Y0107327D01*
X0242045Y0107464D01*
X0241996Y0107603D01*
X0241951Y0107742D01*
X0241910Y0107883D01*
X0241873Y0108025D01*
X0241840Y0108167D01*
X0241810Y0108311D01*
X0241784Y0108455D01*
X0241763Y0108600D01*
X0241745Y0108746D01*
X0241731Y0108892D01*
X0241721Y0109038D01*
X0241715Y0109184D01*
X0241713Y0109331D01*
X0241713Y0018780D02*
X0241715Y0018927D01*
X0241721Y0019073D01*
X0241731Y0019219D01*
X0241745Y0019365D01*
X0241763Y0019511D01*
X0241784Y0019656D01*
X0241810Y0019800D01*
X0241840Y0019944D01*
X0241873Y0020086D01*
X0241910Y0020228D01*
X0241951Y0020369D01*
X0241996Y0020508D01*
X0242045Y0020647D01*
X0242097Y0020784D01*
X0242154Y0020919D01*
X0242213Y0021053D01*
X0242277Y0021185D01*
X0242344Y0021315D01*
X0242414Y0021444D01*
X0242488Y0021571D01*
X0242565Y0021695D01*
X0242646Y0021818D01*
X0242730Y0021938D01*
X0242817Y0022056D01*
X0242907Y0022171D01*
X0243000Y0022284D01*
X0243097Y0022395D01*
X0243196Y0022503D01*
X0243298Y0022608D01*
X0243403Y0022710D01*
X0243511Y0022809D01*
X0243622Y0022906D01*
X0243735Y0022999D01*
X0243850Y0023089D01*
X0243968Y0023176D01*
X0244088Y0023260D01*
X0244211Y0023341D01*
X0244335Y0023418D01*
X0244462Y0023492D01*
X0244591Y0023562D01*
X0244721Y0023629D01*
X0244853Y0023693D01*
X0244987Y0023752D01*
X0245122Y0023809D01*
X0245259Y0023861D01*
X0245398Y0023910D01*
X0245537Y0023955D01*
X0245678Y0023996D01*
X0245820Y0024033D01*
X0245962Y0024066D01*
X0246106Y0024096D01*
X0246250Y0024122D01*
X0246395Y0024143D01*
X0246541Y0024161D01*
X0246687Y0024175D01*
X0246833Y0024185D01*
X0246979Y0024191D01*
X0247126Y0024193D01*
X0247273Y0024191D01*
X0247419Y0024185D01*
X0247565Y0024175D01*
X0247711Y0024161D01*
X0247857Y0024143D01*
X0248002Y0024122D01*
X0248146Y0024096D01*
X0248290Y0024066D01*
X0248432Y0024033D01*
X0248574Y0023996D01*
X0248715Y0023955D01*
X0248854Y0023910D01*
X0248993Y0023861D01*
X0249130Y0023809D01*
X0249265Y0023752D01*
X0249399Y0023693D01*
X0249531Y0023629D01*
X0249661Y0023562D01*
X0249790Y0023492D01*
X0249917Y0023418D01*
X0250041Y0023341D01*
X0250164Y0023260D01*
X0250284Y0023176D01*
X0250402Y0023089D01*
X0250517Y0022999D01*
X0250630Y0022906D01*
X0250741Y0022809D01*
X0250849Y0022710D01*
X0250954Y0022608D01*
X0251056Y0022503D01*
X0251155Y0022395D01*
X0251252Y0022284D01*
X0251345Y0022171D01*
X0251435Y0022056D01*
X0251522Y0021938D01*
X0251606Y0021818D01*
X0251687Y0021695D01*
X0251764Y0021571D01*
X0251838Y0021444D01*
X0251908Y0021315D01*
X0251975Y0021185D01*
X0252039Y0021053D01*
X0252098Y0020919D01*
X0252155Y0020784D01*
X0252207Y0020647D01*
X0252256Y0020508D01*
X0252301Y0020369D01*
X0252342Y0020228D01*
X0252379Y0020086D01*
X0252412Y0019944D01*
X0252442Y0019800D01*
X0252468Y0019656D01*
X0252489Y0019511D01*
X0252507Y0019365D01*
X0252521Y0019219D01*
X0252531Y0019073D01*
X0252537Y0018927D01*
X0252539Y0018780D01*
X0252537Y0018633D01*
X0252531Y0018487D01*
X0252521Y0018341D01*
X0252507Y0018195D01*
X0252489Y0018049D01*
X0252468Y0017904D01*
X0252442Y0017760D01*
X0252412Y0017616D01*
X0252379Y0017474D01*
X0252342Y0017332D01*
X0252301Y0017191D01*
X0252256Y0017052D01*
X0252207Y0016913D01*
X0252155Y0016776D01*
X0252098Y0016641D01*
X0252039Y0016507D01*
X0251975Y0016375D01*
X0251908Y0016245D01*
X0251838Y0016116D01*
X0251764Y0015989D01*
X0251687Y0015865D01*
X0251606Y0015742D01*
X0251522Y0015622D01*
X0251435Y0015504D01*
X0251345Y0015389D01*
X0251252Y0015276D01*
X0251155Y0015165D01*
X0251056Y0015057D01*
X0250954Y0014952D01*
X0250849Y0014850D01*
X0250741Y0014751D01*
X0250630Y0014654D01*
X0250517Y0014561D01*
X0250402Y0014471D01*
X0250284Y0014384D01*
X0250164Y0014300D01*
X0250041Y0014219D01*
X0249917Y0014142D01*
X0249790Y0014068D01*
X0249661Y0013998D01*
X0249531Y0013931D01*
X0249399Y0013867D01*
X0249265Y0013808D01*
X0249130Y0013751D01*
X0248993Y0013699D01*
X0248854Y0013650D01*
X0248715Y0013605D01*
X0248574Y0013564D01*
X0248432Y0013527D01*
X0248290Y0013494D01*
X0248146Y0013464D01*
X0248002Y0013438D01*
X0247857Y0013417D01*
X0247711Y0013399D01*
X0247565Y0013385D01*
X0247419Y0013375D01*
X0247273Y0013369D01*
X0247126Y0013367D01*
X0246979Y0013369D01*
X0246833Y0013375D01*
X0246687Y0013385D01*
X0246541Y0013399D01*
X0246395Y0013417D01*
X0246250Y0013438D01*
X0246106Y0013464D01*
X0245962Y0013494D01*
X0245820Y0013527D01*
X0245678Y0013564D01*
X0245537Y0013605D01*
X0245398Y0013650D01*
X0245259Y0013699D01*
X0245122Y0013751D01*
X0244987Y0013808D01*
X0244853Y0013867D01*
X0244721Y0013931D01*
X0244591Y0013998D01*
X0244462Y0014068D01*
X0244335Y0014142D01*
X0244211Y0014219D01*
X0244088Y0014300D01*
X0243968Y0014384D01*
X0243850Y0014471D01*
X0243735Y0014561D01*
X0243622Y0014654D01*
X0243511Y0014751D01*
X0243403Y0014850D01*
X0243298Y0014952D01*
X0243196Y0015057D01*
X0243097Y0015165D01*
X0243000Y0015276D01*
X0242907Y0015389D01*
X0242817Y0015504D01*
X0242730Y0015622D01*
X0242646Y0015742D01*
X0242565Y0015865D01*
X0242488Y0015989D01*
X0242414Y0016116D01*
X0242344Y0016245D01*
X0242277Y0016375D01*
X0242213Y0016507D01*
X0242154Y0016641D01*
X0242097Y0016776D01*
X0242045Y0016913D01*
X0241996Y0017052D01*
X0241951Y0017191D01*
X0241910Y0017332D01*
X0241873Y0017474D01*
X0241840Y0017616D01*
X0241810Y0017760D01*
X0241784Y0017904D01*
X0241763Y0018049D01*
X0241745Y0018195D01*
X0241731Y0018341D01*
X0241721Y0018487D01*
X0241715Y0018633D01*
X0241713Y0018780D01*
D11*
X0195000Y0030000D03*
X0185000Y0030000D03*
X0170000Y0055000D03*
X0160000Y0055000D03*
X0185000Y0080000D03*
X0195000Y0080000D03*
X0210000Y0055000D03*
X0220000Y0055000D03*
D12*
X0037953Y0104331D03*
D13*
X0047953Y0104331D03*
X0057953Y0104331D03*
X0067953Y0104331D03*
X0077953Y0104331D03*
X0087953Y0104331D03*
X0097953Y0104331D03*
X0107953Y0104331D03*
X0117953Y0104331D03*
X0127953Y0104331D03*
X0137953Y0104331D03*
X0147953Y0104331D03*
X0157953Y0104331D03*
X0167953Y0104331D03*
X0177953Y0104331D03*
X0187953Y0104331D03*
X0197953Y0104331D03*
X0207953Y0104331D03*
X0217953Y0104331D03*
X0227953Y0104331D03*
X0227953Y0114331D03*
X0217953Y0114331D03*
X0207953Y0114331D03*
X0197953Y0114331D03*
X0187953Y0114331D03*
X0177953Y0114331D03*
X0167953Y0114331D03*
X0157953Y0114331D03*
X0147953Y0114331D03*
X0137953Y0114331D03*
X0127953Y0114331D03*
X0117953Y0114331D03*
X0107953Y0114331D03*
X0097953Y0114331D03*
X0087953Y0114331D03*
X0077953Y0114331D03*
X0067953Y0114331D03*
X0057953Y0114331D03*
X0047953Y0114331D03*
X0037953Y0114331D03*
D14*
X0040000Y0073937D03*
X0050000Y0073937D03*
X0060000Y0073937D03*
D15*
X0065000Y0060000D03*
X0140000Y0085000D03*
X0145000Y0080000D03*
D16*
X0140000Y0085000D02*
X0130000Y0075000D01*
X0080000Y0075000D01*
X0065000Y0060000D01*
D17*
X0145000Y0080000D02*
X0170000Y0055000D01*
X0190000Y0055000D01*
D18*
X0204700Y0055275D02*
X0165300Y0055275D01*
X0165300Y0055873D02*
X0204700Y0055873D01*
X0204700Y0056472D02*
X0165300Y0056472D01*
X0165300Y0057070D02*
X0204700Y0057070D01*
X0204700Y0057195D02*
X0204700Y0052805D01*
X0207805Y0049700D01*
X0212195Y0049700D01*
X0215000Y0052505D01*
X0217805Y0049700D01*
X0222195Y0049700D01*
X0225300Y0052805D01*
X0225300Y0057195D01*
X0222195Y0060300D01*
X0217805Y0060300D01*
X0215000Y0057495D01*
X0212195Y0060300D01*
X0207805Y0060300D01*
X0204700Y0057195D01*
X0205174Y0057669D02*
X0164826Y0057669D01*
X0165300Y0057195D02*
X0162195Y0060300D01*
X0157805Y0060300D01*
X0154700Y0057195D01*
X0154700Y0052805D01*
X0157805Y0049700D01*
X0162195Y0049700D01*
X0165300Y0052805D01*
X0165300Y0057195D01*
X0164228Y0058268D02*
X0205772Y0058268D01*
X0206371Y0058866D02*
X0163629Y0058866D01*
X0163031Y0059465D02*
X0206969Y0059465D01*
X0207568Y0060063D02*
X0162432Y0060063D01*
X0157568Y0060063D02*
X0071144Y0060063D01*
X0070546Y0059465D02*
X0156969Y0059465D01*
X0156371Y0058866D02*
X0069947Y0058866D01*
X0069349Y0058268D02*
X0155772Y0058268D01*
X0155174Y0057669D02*
X0068750Y0057669D01*
X0068152Y0057070D02*
X0154700Y0057070D01*
X0154700Y0056472D02*
X0067553Y0056472D01*
X0067436Y0056355D02*
X0065855Y0055700D01*
X0064145Y0055700D01*
X0062564Y0056355D01*
X0061355Y0057564D01*
X0060700Y0059145D01*
X0060700Y0060855D01*
X0061355Y0062436D01*
X0076355Y0077436D01*
X0077564Y0078645D01*
X0079145Y0079300D01*
X0128219Y0079300D01*
X0137564Y0088645D01*
X0139145Y0089300D01*
X0140855Y0089300D01*
X0142436Y0088645D01*
X0143645Y0087436D01*
X0144300Y0085855D01*
X0144300Y0084145D01*
X0143645Y0082564D01*
X0133645Y0072564D01*
X0132436Y0071355D01*
X0130855Y0070700D01*
X0081781Y0070700D01*
X0067436Y0056355D01*
X0066274Y0055873D02*
X0154700Y0055873D01*
X0154700Y0055275D02*
X0010000Y0055275D01*
X0010000Y0055873D02*
X0063726Y0055873D01*
X0062447Y0056472D02*
X0010000Y0056472D01*
X0010000Y0057070D02*
X0061848Y0057070D01*
X0061311Y0057669D02*
X0010000Y0057669D01*
X0010000Y0058268D02*
X0061063Y0058268D01*
X0060815Y0058866D02*
X0010000Y0058866D01*
X0010000Y0059465D02*
X0060700Y0059465D01*
X0060700Y0060063D02*
X0010000Y0060063D01*
X0010000Y0060662D02*
X0060700Y0060662D01*
X0060868Y0061260D02*
X0010000Y0061260D01*
X0010000Y0061859D02*
X0061116Y0061859D01*
X0061376Y0062457D02*
X0010000Y0062457D01*
X0010000Y0063056D02*
X0061974Y0063056D01*
X0062573Y0063654D02*
X0010000Y0063654D01*
X0010000Y0064253D02*
X0063172Y0064253D01*
X0063770Y0064851D02*
X0010000Y0064851D01*
X0010000Y0065450D02*
X0064369Y0065450D01*
X0064967Y0066048D02*
X0010000Y0066048D01*
X0010000Y0066647D02*
X0065566Y0066647D01*
X0066164Y0067245D02*
X0010000Y0067245D01*
X0010000Y0067844D02*
X0066763Y0067844D01*
X0067361Y0068442D02*
X0010000Y0068442D01*
X0010000Y0069041D02*
X0037471Y0069041D01*
X0036889Y0069282D02*
X0038908Y0068446D01*
X0041092Y0068446D01*
X0043111Y0069282D01*
X0044655Y0070826D01*
X0045000Y0071659D01*
X0045345Y0070826D01*
X0046889Y0069282D01*
X0048908Y0068446D01*
X0051092Y0068446D01*
X0053111Y0069282D01*
X0054655Y0070826D01*
X0055000Y0071659D01*
X0055345Y0070826D01*
X0056889Y0069282D01*
X0058908Y0068446D01*
X0061092Y0068446D01*
X0063111Y0069282D01*
X0064655Y0070826D01*
X0065491Y0072845D01*
X0065491Y0075029D01*
X0064655Y0077048D01*
X0063111Y0078592D01*
X0061092Y0079428D01*
X0058908Y0079428D01*
X0056889Y0078592D01*
X0055345Y0077048D01*
X0055000Y0076215D01*
X0054655Y0077048D01*
X0053111Y0078592D01*
X0051092Y0079428D01*
X0048908Y0079428D01*
X0046889Y0078592D01*
X0045345Y0077048D01*
X0045000Y0076215D01*
X0044655Y0077048D01*
X0043111Y0078592D01*
X0041092Y0079428D01*
X0038908Y0079428D01*
X0036889Y0078592D01*
X0035345Y0077048D01*
X0034509Y0075029D01*
X0034509Y0072845D01*
X0035345Y0070826D01*
X0036889Y0069282D01*
X0036532Y0069639D02*
X0010000Y0069639D01*
X0010000Y0070238D02*
X0035933Y0070238D01*
X0035341Y0070836D02*
X0010000Y0070836D01*
X0010000Y0071435D02*
X0035093Y0071435D01*
X0034845Y0072033D02*
X0010000Y0072033D01*
X0010000Y0072632D02*
X0034597Y0072632D01*
X0034509Y0073230D02*
X0010000Y0073230D01*
X0010000Y0073829D02*
X0034509Y0073829D01*
X0034509Y0074427D02*
X0010000Y0074427D01*
X0010000Y0075026D02*
X0034509Y0075026D01*
X0034755Y0075624D02*
X0010000Y0075624D01*
X0010000Y0076223D02*
X0035003Y0076223D01*
X0035251Y0076821D02*
X0010000Y0076821D01*
X0010000Y0077420D02*
X0035717Y0077420D01*
X0036315Y0078018D02*
X0010000Y0078018D01*
X0010000Y0078617D02*
X0036949Y0078617D01*
X0038394Y0079215D02*
X0010000Y0079215D01*
X0010000Y0079814D02*
X0128733Y0079814D01*
X0129331Y0080412D02*
X0010000Y0080412D01*
X0010000Y0081011D02*
X0129930Y0081011D01*
X0130528Y0081609D02*
X0010000Y0081609D01*
X0010000Y0082208D02*
X0131127Y0082208D01*
X0131725Y0082806D02*
X0010000Y0082806D01*
X0010000Y0083405D02*
X0132324Y0083405D01*
X0132922Y0084003D02*
X0010000Y0084003D01*
X0010000Y0084602D02*
X0133521Y0084602D01*
X0134119Y0085201D02*
X0010000Y0085201D01*
X0010000Y0085799D02*
X0134718Y0085799D01*
X0135316Y0086398D02*
X0010000Y0086398D01*
X0010000Y0086996D02*
X0135915Y0086996D01*
X0136513Y0087595D02*
X0010000Y0087595D01*
X0010000Y0088193D02*
X0137112Y0088193D01*
X0137917Y0088792D02*
X0010000Y0088792D01*
X0010000Y0089390D02*
X0255000Y0089390D01*
X0255000Y0088792D02*
X0142083Y0088792D01*
X0142888Y0088193D02*
X0255000Y0088193D01*
X0255000Y0087595D02*
X0143487Y0087595D01*
X0143827Y0086996D02*
X0255000Y0086996D01*
X0255000Y0086398D02*
X0144075Y0086398D01*
X0144300Y0085799D02*
X0255000Y0085799D01*
X0255000Y0085201D02*
X0187295Y0085201D01*
X0187195Y0085300D02*
X0182805Y0085300D01*
X0179700Y0082195D01*
X0179700Y0077805D01*
X0182805Y0074700D01*
X0187195Y0074700D01*
X0190300Y0077805D01*
X0190300Y0082195D01*
X0187195Y0085300D01*
X0187893Y0084602D02*
X0255000Y0084602D01*
X0255000Y0084003D02*
X0188492Y0084003D01*
X0189090Y0083405D02*
X0255000Y0083405D01*
X0255000Y0082806D02*
X0189689Y0082806D01*
X0190287Y0082208D02*
X0255000Y0082208D01*
X0255000Y0081609D02*
X0190300Y0081609D01*
X0190300Y0081011D02*
X0255000Y0081011D01*
X0255000Y0080412D02*
X0190300Y0080412D01*
X0190300Y0079814D02*
X0255000Y0079814D01*
X0255000Y0079215D02*
X0190300Y0079215D01*
X0190300Y0078617D02*
X0255000Y0078617D01*
X0255000Y0078018D02*
X0190300Y0078018D01*
X0189915Y0077420D02*
X0255000Y0077420D01*
X0255000Y0076821D02*
X0189317Y0076821D01*
X0188718Y0076223D02*
X0255000Y0076223D01*
X0255000Y0075624D02*
X0188120Y0075624D01*
X0187521Y0075026D02*
X0255000Y0075026D01*
X0255000Y0074427D02*
X0135508Y0074427D01*
X0134910Y0073829D02*
X0255000Y0073829D01*
X0255000Y0073230D02*
X0134311Y0073230D01*
X0133713Y0072632D02*
X0255000Y0072632D01*
X0255000Y0072033D02*
X0133114Y0072033D01*
X0132516Y0071435D02*
X0255000Y0071435D01*
X0255000Y0070836D02*
X0131184Y0070836D01*
X0136107Y0075026D02*
X0182479Y0075026D01*
X0181880Y0075624D02*
X0136705Y0075624D01*
X0137304Y0076223D02*
X0181282Y0076223D01*
X0180683Y0076821D02*
X0137902Y0076821D01*
X0138501Y0077420D02*
X0180085Y0077420D01*
X0179700Y0078018D02*
X0139099Y0078018D01*
X0139698Y0078617D02*
X0179700Y0078617D01*
X0179700Y0079215D02*
X0140297Y0079215D01*
X0140895Y0079814D02*
X0179700Y0079814D01*
X0179700Y0080412D02*
X0141494Y0080412D01*
X0142092Y0081011D02*
X0179700Y0081011D01*
X0179700Y0081609D02*
X0142691Y0081609D01*
X0143289Y0082208D02*
X0179713Y0082208D01*
X0180311Y0082806D02*
X0143746Y0082806D01*
X0143994Y0083405D02*
X0180910Y0083405D01*
X0181508Y0084003D02*
X0144241Y0084003D01*
X0144300Y0084602D02*
X0182107Y0084602D01*
X0182705Y0085201D02*
X0144300Y0085201D01*
X0146719Y0098131D02*
X0149186Y0098131D01*
X0151465Y0099075D01*
X0152953Y0100563D01*
X0154441Y0099075D01*
X0156719Y0098131D01*
X0159186Y0098131D01*
X0161465Y0099075D01*
X0162953Y0100563D01*
X0164441Y0099075D01*
X0166719Y0098131D01*
X0169186Y0098131D01*
X0171465Y0099075D01*
X0172953Y0100563D01*
X0174441Y0099075D01*
X0176719Y0098131D01*
X0179186Y0098131D01*
X0181465Y0099075D01*
X0182953Y0100563D01*
X0184441Y0099075D01*
X0186719Y0098131D01*
X0189186Y0098131D01*
X0191465Y0099075D01*
X0192953Y0100563D01*
X0194441Y0099075D01*
X0196719Y0098131D01*
X0199186Y0098131D01*
X0201465Y0099075D01*
X0202953Y0100563D01*
X0204441Y0099075D01*
X0206719Y0098131D01*
X0209186Y0098131D01*
X0211465Y0099075D01*
X0212953Y0100563D01*
X0214441Y0099075D01*
X0216719Y0098131D01*
X0219186Y0098131D01*
X0221465Y0099075D01*
X0222953Y0100563D01*
X0224441Y0099075D01*
X0226719Y0098131D01*
X0229186Y0098131D01*
X0231465Y0099075D01*
X0233209Y0100819D01*
X0234153Y0103097D01*
X0234153Y0105564D01*
X0233209Y0107843D01*
X0231721Y0109331D01*
X0233209Y0110819D01*
X0234153Y0113097D01*
X0234153Y0115564D01*
X0233209Y0117843D01*
X0232151Y0118901D01*
X0244848Y0118901D01*
X0241624Y0117565D01*
X0238891Y0114833D01*
X0237413Y0111263D01*
X0237413Y0107399D01*
X0238891Y0103829D01*
X0241624Y0101096D01*
X0245194Y0099617D01*
X0249058Y0099617D01*
X0252628Y0101096D01*
X0255000Y0103468D01*
X0255000Y0024642D01*
X0252628Y0027014D01*
X0249058Y0028493D01*
X0245194Y0028493D01*
X0241624Y0027014D01*
X0238891Y0024282D01*
X0237413Y0020712D01*
X0237413Y0016847D01*
X0238891Y0013277D01*
X0241624Y0010545D01*
X0242939Y0010000D01*
X0022966Y0010000D01*
X0024282Y0010545D01*
X0027014Y0013277D01*
X0028493Y0016847D01*
X0028493Y0020712D01*
X0027014Y0024282D01*
X0024282Y0027014D01*
X0020712Y0028493D01*
X0016847Y0028493D01*
X0013277Y0027014D01*
X0010545Y0024282D01*
X0010000Y0022966D01*
X0010000Y0105144D01*
X0010545Y0103829D01*
X0013277Y0101096D01*
X0016847Y0099617D01*
X0020712Y0099617D01*
X0024282Y0101096D01*
X0027014Y0103829D01*
X0028493Y0107399D01*
X0028493Y0111263D01*
X0027014Y0114833D01*
X0024282Y0117565D01*
X0021058Y0118901D01*
X0033755Y0118901D01*
X0032697Y0117843D01*
X0031753Y0115564D01*
X0031753Y0113097D01*
X0032697Y0110819D01*
X0033257Y0110258D01*
X0032923Y0110120D01*
X0032164Y0109360D01*
X0031753Y0108368D01*
X0031753Y0100294D01*
X0032164Y0099301D01*
X0032923Y0098542D01*
X0033916Y0098131D01*
X0041990Y0098131D01*
X0042982Y0098542D01*
X0043742Y0099301D01*
X0043880Y0099635D01*
X0044441Y0099075D01*
X0046719Y0098131D01*
X0049186Y0098131D01*
X0051465Y0099075D01*
X0052953Y0100563D01*
X0054441Y0099075D01*
X0056719Y0098131D01*
X0059186Y0098131D01*
X0061465Y0099075D01*
X0062953Y0100563D01*
X0064441Y0099075D01*
X0066719Y0098131D01*
X0069186Y0098131D01*
X0071465Y0099075D01*
X0072953Y0100563D01*
X0074441Y0099075D01*
X0076719Y0098131D01*
X0079186Y0098131D01*
X0081465Y0099075D01*
X0082953Y0100563D01*
X0084441Y0099075D01*
X0086719Y0098131D01*
X0089186Y0098131D01*
X0091465Y0099075D01*
X0092953Y0100563D01*
X0094441Y0099075D01*
X0096719Y0098131D01*
X0099186Y0098131D01*
X0101465Y0099075D01*
X0102953Y0100563D01*
X0104441Y0099075D01*
X0106719Y0098131D01*
X0109186Y0098131D01*
X0111465Y0099075D01*
X0112953Y0100563D01*
X0114441Y0099075D01*
X0116719Y0098131D01*
X0119186Y0098131D01*
X0121465Y0099075D01*
X0122953Y0100563D01*
X0124441Y0099075D01*
X0126719Y0098131D01*
X0129186Y0098131D01*
X0131465Y0099075D01*
X0132953Y0100563D01*
X0134441Y0099075D01*
X0136719Y0098131D01*
X0139186Y0098131D01*
X0141465Y0099075D01*
X0142953Y0100563D01*
X0144441Y0099075D01*
X0146719Y0098131D01*
X0146147Y0098368D02*
X0139758Y0098368D01*
X0141203Y0098966D02*
X0144702Y0098966D01*
X0143951Y0099565D02*
X0141955Y0099565D01*
X0142553Y0100163D02*
X0143352Y0100163D01*
X0149758Y0098368D02*
X0156147Y0098368D01*
X0154702Y0098966D02*
X0151203Y0098966D01*
X0151955Y0099565D02*
X0153951Y0099565D01*
X0153352Y0100163D02*
X0152553Y0100163D01*
X0159758Y0098368D02*
X0166147Y0098368D01*
X0164702Y0098966D02*
X0161203Y0098966D01*
X0161955Y0099565D02*
X0163951Y0099565D01*
X0163352Y0100163D02*
X0162553Y0100163D01*
X0169758Y0098368D02*
X0176147Y0098368D01*
X0174702Y0098966D02*
X0171203Y0098966D01*
X0171955Y0099565D02*
X0173951Y0099565D01*
X0173352Y0100163D02*
X0172553Y0100163D01*
X0179758Y0098368D02*
X0186147Y0098368D01*
X0184702Y0098966D02*
X0181203Y0098966D01*
X0181955Y0099565D02*
X0183951Y0099565D01*
X0183352Y0100163D02*
X0182553Y0100163D01*
X0189758Y0098368D02*
X0196147Y0098368D01*
X0194702Y0098966D02*
X0191203Y0098966D01*
X0191955Y0099565D02*
X0193951Y0099565D01*
X0193352Y0100163D02*
X0192553Y0100163D01*
X0199758Y0098368D02*
X0206147Y0098368D01*
X0204702Y0098966D02*
X0201203Y0098966D01*
X0201955Y0099565D02*
X0203951Y0099565D01*
X0203352Y0100163D02*
X0202553Y0100163D01*
X0209758Y0098368D02*
X0216147Y0098368D01*
X0214702Y0098966D02*
X0211203Y0098966D01*
X0211955Y0099565D02*
X0213951Y0099565D01*
X0213352Y0100163D02*
X0212553Y0100163D01*
X0219758Y0098368D02*
X0226147Y0098368D01*
X0224702Y0098966D02*
X0221203Y0098966D01*
X0221955Y0099565D02*
X0223951Y0099565D01*
X0223352Y0100163D02*
X0222553Y0100163D01*
X0229758Y0098368D02*
X0255000Y0098368D01*
X0255000Y0098966D02*
X0231203Y0098966D01*
X0231955Y0099565D02*
X0255000Y0099565D01*
X0255000Y0100163D02*
X0250376Y0100163D01*
X0251821Y0100762D02*
X0255000Y0100762D01*
X0255000Y0101360D02*
X0252892Y0101360D01*
X0253491Y0101959D02*
X0255000Y0101959D01*
X0255000Y0102557D02*
X0254089Y0102557D01*
X0254688Y0103156D02*
X0255000Y0103156D01*
X0255000Y0097769D02*
X0010000Y0097769D01*
X0010000Y0097171D02*
X0255000Y0097171D01*
X0255000Y0096572D02*
X0010000Y0096572D01*
X0010000Y0095974D02*
X0255000Y0095974D01*
X0255000Y0095375D02*
X0010000Y0095375D01*
X0010000Y0094777D02*
X0255000Y0094777D01*
X0255000Y0094178D02*
X0010000Y0094178D01*
X0010000Y0093580D02*
X0255000Y0093580D01*
X0255000Y0092981D02*
X0010000Y0092981D01*
X0010000Y0092383D02*
X0255000Y0092383D01*
X0255000Y0091784D02*
X0010000Y0091784D01*
X0010000Y0091186D02*
X0255000Y0091186D01*
X0255000Y0090587D02*
X0010000Y0090587D01*
X0010000Y0089989D02*
X0255000Y0089989D01*
X0243876Y0100163D02*
X0232553Y0100163D01*
X0233152Y0100762D02*
X0242431Y0100762D01*
X0241360Y0101360D02*
X0233433Y0101360D01*
X0233681Y0101959D02*
X0240761Y0101959D01*
X0240163Y0102557D02*
X0233929Y0102557D01*
X0234153Y0103156D02*
X0239564Y0103156D01*
X0238966Y0103754D02*
X0234153Y0103754D01*
X0234153Y0104353D02*
X0238674Y0104353D01*
X0238426Y0104951D02*
X0234153Y0104951D01*
X0234153Y0105550D02*
X0238178Y0105550D01*
X0237930Y0106148D02*
X0233911Y0106148D01*
X0233663Y0106747D02*
X0237683Y0106747D01*
X0237435Y0107345D02*
X0233415Y0107345D01*
X0233108Y0107944D02*
X0237413Y0107944D01*
X0237413Y0108542D02*
X0232509Y0108542D01*
X0231911Y0109141D02*
X0237413Y0109141D01*
X0237413Y0109739D02*
X0232130Y0109739D01*
X0232728Y0110338D02*
X0237413Y0110338D01*
X0237413Y0110937D02*
X0233258Y0110937D01*
X0233506Y0111535D02*
X0237525Y0111535D01*
X0237773Y0112134D02*
X0233753Y0112134D01*
X0234001Y0112732D02*
X0238021Y0112732D01*
X0238269Y0113331D02*
X0234153Y0113331D01*
X0234153Y0113929D02*
X0238517Y0113929D01*
X0238765Y0114528D02*
X0234153Y0114528D01*
X0234153Y0115126D02*
X0239185Y0115126D01*
X0239783Y0115725D02*
X0234086Y0115725D01*
X0233838Y0116323D02*
X0240382Y0116323D01*
X0240980Y0116922D02*
X0233590Y0116922D01*
X0233342Y0117520D02*
X0241579Y0117520D01*
X0242960Y0118119D02*
X0232933Y0118119D01*
X0232334Y0118717D02*
X0244405Y0118717D01*
X0255000Y0070238D02*
X0081319Y0070238D01*
X0080720Y0069639D02*
X0255000Y0069639D01*
X0255000Y0069041D02*
X0080122Y0069041D01*
X0079523Y0068442D02*
X0255000Y0068442D01*
X0255000Y0067844D02*
X0078925Y0067844D01*
X0078326Y0067245D02*
X0255000Y0067245D01*
X0255000Y0066647D02*
X0077728Y0066647D01*
X0077129Y0066048D02*
X0255000Y0066048D01*
X0255000Y0065450D02*
X0076531Y0065450D01*
X0075932Y0064851D02*
X0255000Y0064851D01*
X0255000Y0064253D02*
X0075334Y0064253D01*
X0074735Y0063654D02*
X0255000Y0063654D01*
X0255000Y0063056D02*
X0074137Y0063056D01*
X0073538Y0062457D02*
X0255000Y0062457D01*
X0255000Y0061859D02*
X0072940Y0061859D01*
X0072341Y0061260D02*
X0255000Y0061260D01*
X0255000Y0060662D02*
X0071743Y0060662D01*
X0067960Y0069041D02*
X0062529Y0069041D01*
X0063468Y0069639D02*
X0068558Y0069639D01*
X0069157Y0070238D02*
X0064067Y0070238D01*
X0064659Y0070836D02*
X0069755Y0070836D01*
X0070354Y0071435D02*
X0064907Y0071435D01*
X0065155Y0072033D02*
X0070952Y0072033D01*
X0071551Y0072632D02*
X0065403Y0072632D01*
X0065491Y0073230D02*
X0072149Y0073230D01*
X0072748Y0073829D02*
X0065491Y0073829D01*
X0065491Y0074427D02*
X0073346Y0074427D01*
X0073945Y0075026D02*
X0065491Y0075026D01*
X0065245Y0075624D02*
X0074543Y0075624D01*
X0075142Y0076223D02*
X0064997Y0076223D01*
X0064749Y0076821D02*
X0075740Y0076821D01*
X0076339Y0077420D02*
X0064283Y0077420D01*
X0063685Y0078018D02*
X0076937Y0078018D01*
X0077536Y0078617D02*
X0063051Y0078617D01*
X0061606Y0079215D02*
X0078940Y0079215D01*
X0058394Y0079215D02*
X0051606Y0079215D01*
X0053051Y0078617D02*
X0056949Y0078617D01*
X0056315Y0078018D02*
X0053685Y0078018D01*
X0054283Y0077420D02*
X0055717Y0077420D01*
X0055251Y0076821D02*
X0054749Y0076821D01*
X0054997Y0076223D02*
X0055003Y0076223D01*
X0048394Y0079215D02*
X0041606Y0079215D01*
X0043051Y0078617D02*
X0046949Y0078617D01*
X0046315Y0078018D02*
X0043685Y0078018D01*
X0044283Y0077420D02*
X0045717Y0077420D01*
X0045251Y0076821D02*
X0044749Y0076821D01*
X0044997Y0076223D02*
X0045003Y0076223D01*
X0044907Y0071435D02*
X0045093Y0071435D01*
X0045341Y0070836D02*
X0044659Y0070836D01*
X0044067Y0070238D02*
X0045933Y0070238D01*
X0046532Y0069639D02*
X0043468Y0069639D01*
X0042529Y0069041D02*
X0047471Y0069041D01*
X0052529Y0069041D02*
X0057471Y0069041D01*
X0056532Y0069639D02*
X0053468Y0069639D01*
X0054067Y0070238D02*
X0055933Y0070238D01*
X0055341Y0070836D02*
X0054659Y0070836D01*
X0054907Y0071435D02*
X0055093Y0071435D01*
X0010000Y0054676D02*
X0154700Y0054676D01*
X0154700Y0054078D02*
X0010000Y0054078D01*
X0010000Y0053479D02*
X0154700Y0053479D01*
X0154700Y0052881D02*
X0010000Y0052881D01*
X0010000Y0052282D02*
X0155222Y0052282D01*
X0155821Y0051684D02*
X0010000Y0051684D01*
X0010000Y0051085D02*
X0156419Y0051085D01*
X0157018Y0050487D02*
X0010000Y0050487D01*
X0010000Y0049888D02*
X0157616Y0049888D01*
X0162384Y0049888D02*
X0207616Y0049888D01*
X0207018Y0050487D02*
X0162982Y0050487D01*
X0163581Y0051085D02*
X0206419Y0051085D01*
X0205821Y0051684D02*
X0164179Y0051684D01*
X0164778Y0052282D02*
X0205222Y0052282D01*
X0204700Y0052881D02*
X0165300Y0052881D01*
X0165300Y0053479D02*
X0204700Y0053479D01*
X0204700Y0054078D02*
X0165300Y0054078D01*
X0165300Y0054676D02*
X0204700Y0054676D01*
X0212384Y0049888D02*
X0217616Y0049888D01*
X0217018Y0050487D02*
X0212982Y0050487D01*
X0213581Y0051085D02*
X0216419Y0051085D01*
X0215821Y0051684D02*
X0214179Y0051684D01*
X0214778Y0052282D02*
X0215222Y0052282D01*
X0222384Y0049888D02*
X0255000Y0049888D01*
X0255000Y0049290D02*
X0010000Y0049290D01*
X0010000Y0048691D02*
X0255000Y0048691D01*
X0255000Y0048093D02*
X0010000Y0048093D01*
X0010000Y0047494D02*
X0255000Y0047494D01*
X0255000Y0046896D02*
X0010000Y0046896D01*
X0010000Y0046297D02*
X0255000Y0046297D01*
X0255000Y0045699D02*
X0010000Y0045699D01*
X0010000Y0045100D02*
X0255000Y0045100D01*
X0255000Y0044502D02*
X0010000Y0044502D01*
X0010000Y0043903D02*
X0255000Y0043903D01*
X0255000Y0043305D02*
X0010000Y0043305D01*
X0010000Y0042706D02*
X0255000Y0042706D01*
X0255000Y0042108D02*
X0010000Y0042108D01*
X0010000Y0041509D02*
X0255000Y0041509D01*
X0255000Y0040911D02*
X0010000Y0040911D01*
X0010000Y0040312D02*
X0255000Y0040312D01*
X0255000Y0039714D02*
X0010000Y0039714D01*
X0010000Y0039115D02*
X0255000Y0039115D01*
X0255000Y0038517D02*
X0010000Y0038517D01*
X0010000Y0037918D02*
X0255000Y0037918D01*
X0255000Y0037320D02*
X0010000Y0037320D01*
X0010000Y0036721D02*
X0255000Y0036721D01*
X0255000Y0036123D02*
X0010000Y0036123D01*
X0010000Y0035524D02*
X0255000Y0035524D01*
X0255000Y0034926D02*
X0197570Y0034926D01*
X0197195Y0035300D02*
X0192805Y0035300D01*
X0190000Y0032495D01*
X0187195Y0035300D01*
X0182805Y0035300D01*
X0179700Y0032195D01*
X0179700Y0027805D01*
X0182805Y0024700D01*
X0187195Y0024700D01*
X0190000Y0027505D01*
X0192805Y0024700D01*
X0197195Y0024700D01*
X0200300Y0027805D01*
X0200300Y0032195D01*
X0197195Y0035300D01*
X0198168Y0034327D02*
X0255000Y0034327D01*
X0255000Y0033729D02*
X0198767Y0033729D01*
X0199365Y0033130D02*
X0255000Y0033130D01*
X0255000Y0032532D02*
X0199964Y0032532D01*
X0200300Y0031933D02*
X0255000Y0031933D01*
X0255000Y0031334D02*
X0200300Y0031334D01*
X0200300Y0030736D02*
X0255000Y0030736D01*
X0255000Y0030137D02*
X0200300Y0030137D01*
X0200300Y0029539D02*
X0255000Y0029539D01*
X0255000Y0028940D02*
X0200300Y0028940D01*
X0200300Y0028342D02*
X0244829Y0028342D01*
X0243384Y0027743D02*
X0200239Y0027743D01*
X0199640Y0027145D02*
X0241940Y0027145D01*
X0241156Y0026546D02*
X0199042Y0026546D01*
X0198443Y0025948D02*
X0240558Y0025948D01*
X0239959Y0025349D02*
X0197845Y0025349D01*
X0197246Y0024751D02*
X0239361Y0024751D01*
X0238838Y0024152D02*
X0027068Y0024152D01*
X0027316Y0023554D02*
X0238590Y0023554D01*
X0238342Y0022955D02*
X0027564Y0022955D01*
X0027811Y0022357D02*
X0238094Y0022357D01*
X0237846Y0021758D02*
X0028059Y0021758D01*
X0028307Y0021160D02*
X0237598Y0021160D01*
X0237413Y0020561D02*
X0028493Y0020561D01*
X0028493Y0019963D02*
X0237413Y0019963D01*
X0237413Y0019364D02*
X0028493Y0019364D01*
X0028493Y0018766D02*
X0237413Y0018766D01*
X0237413Y0018167D02*
X0028493Y0018167D01*
X0028493Y0017569D02*
X0237413Y0017569D01*
X0237413Y0016970D02*
X0028493Y0016970D01*
X0028296Y0016372D02*
X0237610Y0016372D01*
X0237858Y0015773D02*
X0028048Y0015773D01*
X0027800Y0015175D02*
X0238105Y0015175D01*
X0238353Y0014576D02*
X0027552Y0014576D01*
X0027304Y0013978D02*
X0238601Y0013978D01*
X0238849Y0013379D02*
X0027056Y0013379D01*
X0026517Y0012781D02*
X0239388Y0012781D01*
X0239987Y0012182D02*
X0025919Y0012182D01*
X0025320Y0011584D02*
X0240585Y0011584D01*
X0241184Y0010985D02*
X0024722Y0010985D01*
X0023899Y0010387D02*
X0242006Y0010387D01*
X0254891Y0024751D02*
X0255000Y0024751D01*
X0255000Y0025349D02*
X0254293Y0025349D01*
X0253694Y0025948D02*
X0255000Y0025948D01*
X0255000Y0026546D02*
X0253096Y0026546D01*
X0252312Y0027145D02*
X0255000Y0027145D01*
X0255000Y0027743D02*
X0250867Y0027743D01*
X0249423Y0028342D02*
X0255000Y0028342D01*
X0255000Y0050487D02*
X0222982Y0050487D01*
X0223581Y0051085D02*
X0255000Y0051085D01*
X0255000Y0051684D02*
X0224179Y0051684D01*
X0224778Y0052282D02*
X0255000Y0052282D01*
X0255000Y0052881D02*
X0225300Y0052881D01*
X0225300Y0053479D02*
X0255000Y0053479D01*
X0255000Y0054078D02*
X0225300Y0054078D01*
X0225300Y0054676D02*
X0255000Y0054676D01*
X0255000Y0055275D02*
X0225300Y0055275D01*
X0225300Y0055873D02*
X0255000Y0055873D01*
X0255000Y0056472D02*
X0225300Y0056472D01*
X0225300Y0057070D02*
X0255000Y0057070D01*
X0255000Y0057669D02*
X0224826Y0057669D01*
X0224228Y0058268D02*
X0255000Y0058268D01*
X0255000Y0058866D02*
X0223629Y0058866D01*
X0223031Y0059465D02*
X0255000Y0059465D01*
X0255000Y0060063D02*
X0222432Y0060063D01*
X0217568Y0060063D02*
X0212432Y0060063D01*
X0213031Y0059465D02*
X0216969Y0059465D01*
X0216371Y0058866D02*
X0213629Y0058866D01*
X0214228Y0058268D02*
X0215772Y0058268D01*
X0215174Y0057669D02*
X0214826Y0057669D01*
X0192430Y0034926D02*
X0187570Y0034926D01*
X0188168Y0034327D02*
X0191832Y0034327D01*
X0191233Y0033729D02*
X0188767Y0033729D01*
X0189365Y0033130D02*
X0190635Y0033130D01*
X0190036Y0032532D02*
X0189964Y0032532D01*
X0182430Y0034926D02*
X0010000Y0034926D01*
X0010000Y0034327D02*
X0181832Y0034327D01*
X0181233Y0033729D02*
X0010000Y0033729D01*
X0010000Y0033130D02*
X0180635Y0033130D01*
X0180036Y0032532D02*
X0010000Y0032532D01*
X0010000Y0031933D02*
X0179700Y0031933D01*
X0179700Y0031334D02*
X0010000Y0031334D01*
X0010000Y0030736D02*
X0179700Y0030736D01*
X0179700Y0030137D02*
X0010000Y0030137D01*
X0010000Y0029539D02*
X0179700Y0029539D01*
X0179700Y0028940D02*
X0010000Y0028940D01*
X0010000Y0028342D02*
X0016483Y0028342D01*
X0015038Y0027743D02*
X0010000Y0027743D01*
X0010000Y0027145D02*
X0013593Y0027145D01*
X0012810Y0026546D02*
X0010000Y0026546D01*
X0010000Y0025948D02*
X0012211Y0025948D01*
X0011613Y0025349D02*
X0010000Y0025349D01*
X0010000Y0024751D02*
X0011014Y0024751D01*
X0010491Y0024152D02*
X0010000Y0024152D01*
X0010000Y0023554D02*
X0010243Y0023554D01*
X0021076Y0028342D02*
X0179700Y0028342D01*
X0179761Y0027743D02*
X0022521Y0027743D01*
X0023966Y0027145D02*
X0180360Y0027145D01*
X0180958Y0026546D02*
X0024749Y0026546D01*
X0025348Y0025948D02*
X0181557Y0025948D01*
X0182155Y0025349D02*
X0025946Y0025349D01*
X0026545Y0024751D02*
X0182754Y0024751D01*
X0187246Y0024751D02*
X0192754Y0024751D01*
X0192155Y0025349D02*
X0187845Y0025349D01*
X0188443Y0025948D02*
X0191557Y0025948D01*
X0190958Y0026546D02*
X0189042Y0026546D01*
X0189640Y0027145D02*
X0190360Y0027145D01*
X0136147Y0098368D02*
X0129758Y0098368D01*
X0131203Y0098966D02*
X0134702Y0098966D01*
X0133951Y0099565D02*
X0131955Y0099565D01*
X0132553Y0100163D02*
X0133352Y0100163D01*
X0126147Y0098368D02*
X0119758Y0098368D01*
X0121203Y0098966D02*
X0124702Y0098966D01*
X0123951Y0099565D02*
X0121955Y0099565D01*
X0122553Y0100163D02*
X0123352Y0100163D01*
X0116147Y0098368D02*
X0109758Y0098368D01*
X0111203Y0098966D02*
X0114702Y0098966D01*
X0113951Y0099565D02*
X0111955Y0099565D01*
X0112553Y0100163D02*
X0113352Y0100163D01*
X0106147Y0098368D02*
X0099758Y0098368D01*
X0101203Y0098966D02*
X0104702Y0098966D01*
X0103951Y0099565D02*
X0101955Y0099565D01*
X0102553Y0100163D02*
X0103352Y0100163D01*
X0096147Y0098368D02*
X0089758Y0098368D01*
X0091203Y0098966D02*
X0094702Y0098966D01*
X0093951Y0099565D02*
X0091955Y0099565D01*
X0092553Y0100163D02*
X0093352Y0100163D01*
X0086147Y0098368D02*
X0079758Y0098368D01*
X0081203Y0098966D02*
X0084702Y0098966D01*
X0083951Y0099565D02*
X0081955Y0099565D01*
X0082553Y0100163D02*
X0083352Y0100163D01*
X0076147Y0098368D02*
X0069758Y0098368D01*
X0071203Y0098966D02*
X0074702Y0098966D01*
X0073951Y0099565D02*
X0071955Y0099565D01*
X0072553Y0100163D02*
X0073352Y0100163D01*
X0066147Y0098368D02*
X0059758Y0098368D01*
X0061203Y0098966D02*
X0064702Y0098966D01*
X0063951Y0099565D02*
X0061955Y0099565D01*
X0062553Y0100163D02*
X0063352Y0100163D01*
X0056147Y0098368D02*
X0049758Y0098368D01*
X0051203Y0098966D02*
X0054702Y0098966D01*
X0053951Y0099565D02*
X0051955Y0099565D01*
X0052553Y0100163D02*
X0053352Y0100163D01*
X0046147Y0098368D02*
X0042562Y0098368D01*
X0043407Y0098966D02*
X0044702Y0098966D01*
X0043951Y0099565D02*
X0043851Y0099565D01*
X0033343Y0098368D02*
X0010000Y0098368D01*
X0010000Y0098966D02*
X0032499Y0098966D01*
X0032055Y0099565D02*
X0010000Y0099565D01*
X0010000Y0100163D02*
X0015529Y0100163D01*
X0014084Y0100762D02*
X0010000Y0100762D01*
X0010000Y0101360D02*
X0013013Y0101360D01*
X0012415Y0101959D02*
X0010000Y0101959D01*
X0010000Y0102557D02*
X0011816Y0102557D01*
X0011218Y0103156D02*
X0010000Y0103156D01*
X0010000Y0103754D02*
X0010619Y0103754D01*
X0010328Y0104353D02*
X0010000Y0104353D01*
X0010000Y0104951D02*
X0010080Y0104951D01*
X0022030Y0100163D02*
X0031807Y0100163D01*
X0031753Y0100762D02*
X0023475Y0100762D01*
X0024546Y0101360D02*
X0031753Y0101360D01*
X0031753Y0101959D02*
X0025144Y0101959D01*
X0025743Y0102557D02*
X0031753Y0102557D01*
X0031753Y0103156D02*
X0026341Y0103156D01*
X0026940Y0103754D02*
X0031753Y0103754D01*
X0031753Y0104353D02*
X0027231Y0104353D01*
X0027479Y0104951D02*
X0031753Y0104951D01*
X0031753Y0105550D02*
X0027727Y0105550D01*
X0027975Y0106148D02*
X0031753Y0106148D01*
X0031753Y0106747D02*
X0028223Y0106747D01*
X0028471Y0107345D02*
X0031753Y0107345D01*
X0031753Y0107944D02*
X0028493Y0107944D01*
X0028493Y0108542D02*
X0031825Y0108542D01*
X0032073Y0109141D02*
X0028493Y0109141D01*
X0028493Y0109739D02*
X0032543Y0109739D01*
X0033177Y0110338D02*
X0028493Y0110338D01*
X0028493Y0110937D02*
X0032648Y0110937D01*
X0032400Y0111535D02*
X0028380Y0111535D01*
X0028132Y0112134D02*
X0032152Y0112134D01*
X0031904Y0112732D02*
X0027884Y0112732D01*
X0027636Y0113331D02*
X0031753Y0113331D01*
X0031753Y0113929D02*
X0027389Y0113929D01*
X0027141Y0114528D02*
X0031753Y0114528D01*
X0031753Y0115126D02*
X0026721Y0115126D01*
X0026122Y0115725D02*
X0031819Y0115725D01*
X0032067Y0116323D02*
X0025524Y0116323D01*
X0024925Y0116922D02*
X0032315Y0116922D01*
X0032563Y0117520D02*
X0024327Y0117520D01*
X0022946Y0118119D02*
X0032973Y0118119D01*
X0033571Y0118717D02*
X0021501Y0118717D01*
M02*
